<svg width="99" height="99" viewBox="0 0 99 99" fill="none" xmlns="http://www.w3.org/2000/svg">
<path d="M49.5 0C22.1512 0 0 22.1512 0 49.5C0 71.4037 14.1694 89.9044 33.8456 96.4631C36.3206 96.8962 37.2487 95.4112 37.2487 94.1119C37.2487 92.9362 37.1869 89.0381 37.1869 84.8925C24.75 87.1819 21.5325 81.8606 20.5425 79.0762C19.9856 77.6531 17.5725 73.26 15.4688 72.0844C13.7362 71.1562 11.2612 68.8669 15.4069 68.805C19.305 68.7431 22.0894 72.3937 23.0175 73.8787C27.4725 81.3656 34.5881 79.2619 37.4344 77.9625C37.8675 74.745 39.1669 72.5794 40.59 71.3419C29.5763 70.1044 18.0675 65.835 18.0675 46.9012C18.0675 41.5181 19.9856 37.0631 23.1413 33.5981C22.6462 32.3606 20.9137 27.2869 23.6362 20.4806C23.6362 20.4806 27.7819 19.1812 37.2487 25.5544C41.2088 24.4406 45.4163 23.8837 49.6238 23.8837C53.8313 23.8837 58.0388 24.4406 61.9988 25.5544C71.4656 19.1194 75.6113 20.4806 75.6113 20.4806C78.3337 27.2869 76.6012 32.3606 76.1063 33.5981C79.2619 37.0631 81.18 41.4562 81.18 46.9012C81.18 65.8969 69.6094 70.1044 58.5956 71.3419C60.39 72.8887 61.9369 75.8587 61.9369 80.4994C61.9369 87.12 61.875 92.4412 61.875 94.1119C61.875 95.4112 62.8031 96.9581 65.2781 96.4631C75.1053 93.1465 83.6447 86.8313 89.6942 78.4065C95.7436 69.9817 98.9983 59.8717 99 49.5C99 22.1512 76.8487 0 49.5 0Z" fill="white"/>
</svg>
