<svg width="66" height="57" viewBox="0 0 66 57" fill="none" xmlns="http://www.w3.org/2000/svg">
<path d="M3.88235 0H62.1176C64.2618 0 66 1.73819 66 3.88235V42.7059C66 44.85 64.2618 46.5882 62.1176 46.5882H11.6471L1.98828 56.247C1.25455 56.9807 0 56.4611 0 55.4234V3.88235C0 1.73819 1.73819 0 3.88235 0Z" fill="var(--color-primary)"/>
<path d="M21.3529 21.3529C21.3529 24.5692 18.7456 27.1765 15.5293 27.1765C12.3131 27.1765 9.70581 24.5692 9.70581 21.3529C9.70581 18.1367 12.3131 15.5294 15.5293 15.5294C18.7456 15.5294 21.3529 18.1367 21.3529 21.3529Z" fill="white"/>
<path d="M38.8235 21.3529C38.8235 24.5692 36.2162 27.1765 32.9999 27.1765C29.7837 27.1765 27.1764 24.5692 27.1764 21.3529C27.1764 18.1367 29.7837 15.5294 32.9999 15.5294C36.2162 15.5294 38.8235 18.1367 38.8235 21.3529Z" fill="white"/>
<path d="M50.4705 27.1765C53.6868 27.1765 56.294 24.5692 56.294 21.3529C56.294 18.1367 53.6868 15.5294 50.4705 15.5294C47.2543 15.5294 44.647 18.1367 44.647 21.3529C44.647 24.5692 47.2543 27.1765 50.4705 27.1765Z" fill="white"/>
</svg>
