<svg width="94" height="82" viewBox="0 0 94 82" fill="none" xmlns="http://www.w3.org/2000/svg">
<path d="M5.52941 0.99585H88.4706C91.5244 0.99585 94 3.47145 94 6.52526V61.8194C94 64.8732 91.5244 67.3488 88.4706 67.3488H16.5882L2.83179 81.1052C1.78679 82.1502 0 81.4101 0 79.9323V6.52526C0 3.47145 2.4756 0.99585 5.52941 0.99585Z" fill="#51B4FF"/>
<path d="M30.4117 31.4076C30.4117 35.9884 26.6983 39.7018 22.1176 39.7018C17.5369 39.7018 13.8235 35.9884 13.8235 31.4076C13.8235 26.8269 17.5369 23.1135 22.1176 23.1135C26.6983 23.1135 30.4117 26.8269 30.4117 31.4076Z" fill="white"/>
<path d="M55.2941 31.4076C55.2941 35.9884 51.5807 39.7018 47 39.7018C42.4192 39.7018 38.7058 35.9884 38.7058 31.4076C38.7058 26.8269 42.4192 23.1135 47 23.1135C51.5807 23.1135 55.2941 26.8269 55.2941 31.4076Z" fill="white"/>
<path d="M71.8823 39.7018C76.463 39.7018 80.1764 35.9884 80.1764 31.4076C80.1764 26.8269 76.463 23.1135 71.8823 23.1135C67.3016 23.1135 63.5882 26.8269 63.5882 31.4076C63.5882 35.9884 67.3016 39.7018 71.8823 39.7018Z" fill="white"/>
</svg>
