<svg width="63" height="51" viewBox="0 0 63 51" fill="none" xmlns="http://www.w3.org/2000/svg">
<path d="M0 5.50108C0 3.49014 1.51191 1.80768 3.51434 1.62286C9.59474 1.06163 22.2976 0 31.3846 0C40.4716 0 53.1745 1.06163 59.2549 1.62286C61.2573 1.80768 62.7692 3.49014 62.7692 5.50108V45.4989C62.7692 47.5099 61.2573 49.1923 59.2549 49.3771C53.1745 49.9384 40.4716 51 31.3846 51C22.2976 51 9.59473 49.9384 3.51434 49.3771C1.51191 49.1923 0 47.5099 0 45.4989V5.50108Z" fill="var(--color-primary)"/>
<path d="M23.5386 35.1906V15.8095C23.5386 14.8947 24.5366 14.3296 25.321 14.8003L41.472 24.4908C42.2338 24.948 42.2338 26.0521 41.472 26.5092L25.321 36.1998C24.5366 36.6705 23.5386 36.1054 23.5386 35.1906Z" fill="white"/>
</svg>
