<svg width="46" height="53" viewBox="0 0 46 53" fill="none" xmlns="http://www.w3.org/2000/svg">
<path d="M0 3.28571C0 1.47106 1.47106 0 3.28571 0H42.7143C44.5289 0 46 1.47106 46 3.28571V49.2857C46 51.1004 44.5289 52.5714 42.7143 52.5714H3.28572C1.47107 52.5714 0 51.1004 0 49.2857V3.28571Z" fill="#51B4FF"/>
<path fill-rule="evenodd" clip-rule="evenodd" d="M40.1636 31.3877C40.9751 31.7934 41.3041 32.7803 40.8983 33.5918L34.3269 46.7346C33.9211 47.5462 32.9343 47.8751 32.1228 47.4694L25.5513 44.1836C24.7398 43.7779 24.4109 42.7911 24.8166 41.9795C25.2224 41.168 26.2092 40.839 27.0207 41.2448L32.1228 41.9795L37.9595 32.1224C38.3652 31.3108 39.3521 30.9819 40.1636 31.3877Z" fill="white"/>
<g style="mix-blend-mode:multiply">
<path d="M8.21439 19.7142C7.30707 19.7142 6.57153 20.4498 6.57153 21.3571C6.57153 22.2644 7.30707 22.9999 8.21439 22.9999H11.5001C12.4074 22.9999 13.143 22.2644 13.143 21.3571C13.143 20.4498 12.4074 19.7142 11.5001 19.7142H8.21439Z" fill="#6690FF"/>
<path d="M8.21439 26.2857C7.30707 26.2857 6.57153 27.0212 6.57153 27.9285C6.57153 28.8358 7.30707 29.5714 8.21439 29.5714H11.5001C12.4074 29.5714 13.143 28.8358 13.143 27.9285C13.143 27.0212 12.4074 26.2857 11.5001 26.2857H8.21439Z" fill="#6690FF"/>
<path d="M16.4287 21.3571C16.4287 20.4498 17.1642 19.7142 18.0715 19.7142H31.2144C32.1217 19.7142 32.8572 20.4498 32.8572 21.3571C32.8572 22.2644 32.1217 22.9999 31.2144 22.9999H18.0715C17.1642 22.9999 16.4287 22.2644 16.4287 21.3571Z" fill="#6690FF"/>
<path d="M18.0715 26.2857C17.1642 26.2857 16.4287 27.0212 16.4287 27.9285C16.4287 28.8358 17.1642 29.5714 18.0715 29.5714H24.643C25.5503 29.5714 26.2858 28.8358 26.2858 27.9285C26.2858 27.0212 25.5503 26.2857 24.643 26.2857H18.0715Z" fill="#6690FF"/>
</g>
<g style="mix-blend-mode:multiply">
<path d="M8.21439 6.57141C7.30707 6.57141 6.57153 7.30694 6.57153 8.21427C6.57153 9.12159 7.30707 9.85713 8.21439 9.85713H11.5001C12.4074 9.85713 13.143 9.12159 13.143 8.21427C13.143 7.30694 12.4074 6.57141 11.5001 6.57141H8.21439Z" fill="#6690FF"/>
<path d="M8.21439 13.1428C7.30707 13.1428 6.57153 13.8784 6.57153 14.7857C6.57153 15.693 7.30707 16.4286 8.21439 16.4286H11.5001C12.4074 16.4286 13.143 15.693 13.143 14.7857C13.143 13.8784 12.4074 13.1428 11.5001 13.1428H8.21439Z" fill="#6690FF"/>
<path d="M16.4287 8.21427C16.4287 7.30694 17.1642 6.57141 18.0715 6.57141H34.5001C35.4074 6.57141 36.143 7.30694 36.143 8.21427C36.143 9.12159 35.4074 9.85713 34.5001 9.85713H18.0715C17.1642 9.85713 16.4287 9.12159 16.4287 8.21427Z" fill="#6690FF"/>
<path d="M18.0715 13.1428C17.1642 13.1428 16.4287 13.8784 16.4287 14.7857C16.4287 15.693 17.1642 16.4286 18.0715 16.4286H27.9287C28.836 16.4286 29.5715 15.693 29.5715 14.7857C29.5715 13.8784 28.836 13.1428 27.9287 13.1428H18.0715Z" fill="#6690FF"/>
</g>
</svg>
