<svg class='footerIcon' width="91" height="91" viewBox="0 0 91 91" fill="none" xmlns="http://www.w3.org/2000/svg">
<path d="M26.7571 0C12.0698 0 0 12.0536 0 26.7571V64.2429C0 78.9302 12.0536 91 26.7571 91H64.2429C78.9302 91 91 78.9464 91 64.2429V26.7571C91 12.0698 78.9464 0 64.2429 0H26.7571ZM26.7571 8.27273H64.2429C74.4707 8.27273 82.7273 16.5293 82.7273 26.7571V64.2429C82.7273 74.4707 74.4707 82.7273 64.2429 82.7273H26.7571C16.5293 82.7273 8.27273 74.4707 8.27273 64.2429V26.7571C8.27273 16.5293 16.5293 8.27273 26.7571 8.27273ZM69.9304 17.321C67.8461 17.321 66.1818 18.9853 66.1818 21.0696C66.1818 23.1539 67.8461 24.8182 69.9304 24.8182C72.0147 24.8182 73.679 23.1539 73.679 21.0696C73.679 18.9853 72.0147 17.321 69.9304 17.321ZM45.5 20.6818C31.8468 20.6818 20.6818 31.8468 20.6818 45.5C20.6818 59.1532 31.8468 70.3182 45.5 70.3182C59.1532 70.3182 70.3182 59.1532 70.3182 45.5C70.3182 31.8468 59.1532 20.6818 45.5 20.6818ZM45.5 28.9545C54.6937 28.9545 62.0455 36.3063 62.0455 45.5C62.0455 54.6937 54.6937 62.0455 45.5 62.0455C36.3063 62.0455 28.9545 54.6937 28.9545 45.5C28.9545 36.3063 36.3063 28.9545 45.5 28.9545Z" fill="var(--color-text-base)"/>
</svg>
