<svg width="53" height="53" viewBox="0 0 53 53" fill="none" xmlns="http://www.w3.org/2000/svg">
<g id="Group 8485">
<circle id="Ellipse 29" cx="26.5" cy="26.5" r="26" fill="white"/>
<path id="Vector" d="M26.5 14.5C26.8978 14.5 27.2794 14.6564 27.5607 14.9348C27.842 15.2132 28 15.5908 28 15.9845V24.8918H37C37.3978 24.8918 37.7794 25.0482 38.0607 25.3266C38.342 25.605 38.5 25.9826 38.5 26.3763C38.5 26.77 38.342 27.1476 38.0607 27.426C37.7794 27.7044 37.3978 27.8608 37 27.8608H28V36.768C28 37.1618 27.842 37.5394 27.5607 37.8178C27.2794 38.0962 26.8978 38.2526 26.5 38.2526C26.1022 38.2526 25.7206 38.0962 25.4393 37.8178C25.158 37.5394 25 37.1618 25 36.768V27.8608H16C15.6022 27.8608 15.2206 27.7044 14.9393 27.426C14.658 27.1476 14.5 26.77 14.5 26.3763C14.5 25.9826 14.658 25.605 14.9393 25.3266C15.2206 25.0482 15.6022 24.8918 16 24.8918H25V15.9845C25 15.5908 25.158 15.2132 25.4393 14.9348C25.7206 14.6564 26.1022 14.5 26.5 14.5Z" fill="#3882EA"/>
</g>
</svg>
