<svg width="18" height="30" viewBox="0 0 18 30" fill="none" xmlns="http://www.w3.org/2000/svg">
<path d="M15.0004 29.25C14.4042 29.2479 13.8329 29.0107 13.4104 28.59L1.41039 16.59C0.985327 16.1701 0.746094 15.5975 0.746094 15C0.746094 14.4025 0.985327 13.8299 1.41039 13.41L13.4104 1.41003C13.9713 0.808073 14.8161 0.560285 15.6133 0.763876C16.4105 0.967467 17.033 1.58997 17.2365 2.38717C17.4401 3.18437 17.1923 4.02912 16.5904 4.59003L6.18039 15L16.5904 25.41C17.0154 25.8299 17.2547 26.4025 17.2547 27C17.2547 27.5975 17.0154 28.1701 16.5904 28.59C16.1679 29.0107 15.5966 29.2479 15.0004 29.25Z" fill="#3882EA"/>
</svg>
