<svg width="15" height="26" viewBox="0 0 15 26" fill="none" xmlns="http://www.w3.org/2000/svg">
<path d="M12.7208 26C12.1283 26.0002 11.559 25.7641 11.1342 25.3419L0.656613 14.6282C-0.218871 13.7319 -0.218871 12.2798 0.656613 11.3835L11.1342 0.669819C11.7037 0.0902069 12.5323 -0.134699 13.308 0.0798217C14.0836 0.294342 14.6884 0.915698 14.8946 1.70983C15.1007 2.50396 14.8769 3.35022 14.3074 3.92984L7.6729 10.7253L7 11.3835C6 11 7 11.3835 6 13C6.5 14 6 13 6.5 14L7.68025 15.3168L14.3074 22.0819C14.9486 22.7384 15.1403 23.7252 14.7932 24.5825C14.446 25.4398 13.6282 25.9992 12.7208 26Z" fill="white"/>
</svg>
