<svg width="37" height="37" viewBox="0 0 37 37" fill="none" xmlns="http://www.w3.org/2000/svg">
<g id="Interface essential/Bell">
<path id="Icon" fill-rule="evenodd" clip-rule="evenodd" d="M31.4601 21.537C31.4646 22.4329 31.8584 23.2826 32.5393 23.8649C34.8672 25.9462 33.2176 29.5074 29.9185 29.5074H24.0601C23.3008 31.58 21.334 32.9629 19.1268 32.9762C16.9123 32.9856 14.9338 31.5945 14.1935 29.5074H8.33513C5.03596 29.5074 3.38638 25.9462 5.71429 23.8649C6.39514 23.2826 6.78903 22.4329 6.79346 21.537V14.0908C6.79346 8.01658 12.3126 3.08325 19.1268 3.08325C25.941 3.08325 31.4601 8.01658 31.4601 14.0908V21.537ZM16.7835 29.5074C17.3445 30.2336 18.2092 30.6602 19.1268 30.6637C20.0227 30.6415 20.8608 30.2168 21.4085 29.5074H16.7835Z" fill="white"/>
</g>
</svg>
