<svg width="44" height="34" viewBox="0 0 44 34" fill="none" xmlns="http://www.w3.org/2000/svg">
<path fill-rule="evenodd" clip-rule="evenodd" d="M9.40211 2.80236e-05H34.5979C37.0894 -0.00599325 39.4809 0.958522 41.2448 2.68076C43.0087 4.40299 44 6.7414 44 9.18001V24.82C44 27.2586 43.0087 29.597 41.2448 31.3192C39.4809 33.0415 37.0894 34.006 34.5979 34H9.40211C6.91064 34.006 4.51912 33.0415 2.75521 31.3192C0.991307 29.597 -7.59475e-06 27.2586 0 24.82V9.18001C-7.59475e-06 6.7414 0.991307 4.40299 2.75521 2.68076C4.51912 0.958522 6.91064 -0.00599325 9.40211 2.80236e-05ZM34.5979 30.6C37.8186 30.6008 40.4508 28.0848 40.5263 24.9333V9.18001C40.5136 5.98415 37.863 3.4 34.5979 3.40002H9.4021C6.13695 3.4 3.48644 5.98415 3.47368 9.18001V24.82C3.48644 28.0158 6.13695 30.6 9.4021 30.6H34.5979Z" fill="#3882EA"/>
<path fill-rule="evenodd" clip-rule="evenodd" d="M12.5747 17.6347C12.5747 12.6273 16.722 8.56804 21.8379 8.56804C26.9538 8.56804 31.1011 12.6273 31.1011 17.6347C31.1011 22.6421 26.9538 26.7013 21.8379 26.7013C16.722 26.7013 12.5747 22.6421 12.5747 17.6347ZM16.0484 17.6347C16.0484 20.7643 18.6405 23.3013 21.8379 23.3013C25.0353 23.3013 27.6274 20.7643 27.6274 17.6347C27.6274 14.5051 25.0353 11.968 21.8379 11.968C18.6405 11.968 16.0484 14.5051 16.0484 17.6347Z" fill="#3882EA"/>
<path d="M31.1011 7.35538C31.1011 6.76075 31.5935 6.27871 32.2011 6.27871H34.6326C35.2401 6.27871 35.7326 6.76075 35.7326 7.35538V9.75804C35.7326 10.3527 35.2401 10.8347 34.6326 10.8347H32.2011C31.5935 10.8347 31.1011 10.3527 31.1011 9.75804V7.35538Z" fill="#3882EA"/>
</svg>
