<svg width="39" height="33" viewBox="0 0 39 33" fill="none" xmlns="http://www.w3.org/2000/svg">
<path fill-rule="evenodd" clip-rule="evenodd" d="M38.1109 21.5627L38.3783 22.8376C38.6695 23.9267 38.4319 25.0849 37.733 25.984C37.034 26.8831 35.9497 27.4252 34.7872 27.4569H27.5097C27.5114 30.4475 25.0603 32.9003 21.9703 33H6.13543C4.38679 32.972 2.74711 32.173 1.68296 30.8305C0.618802 29.488 0.246684 27.7489 0.672485 26.1081L1.07361 24.2604C1.54003 21.715 3.80725 19.8474 6.47925 19.8074H21.6456C22.3225 19.0249 23.3223 18.5717 24.3771 18.5694H34.4816C36.2657 18.6245 37.7726 19.8673 38.1109 21.5627ZM34.749 24.6669C34.9821 24.6585 35.1991 24.5501 35.3412 24.3712C35.591 24.1274 35.7168 23.7893 35.685 23.4474L35.4176 22.1725C35.3658 21.7594 35.0243 21.4367 34.5962 21.3964H24.4917C24.2719 21.3978 24.066 21.5008 23.9377 21.6736C23.39 22.2838 22.5956 22.6343 21.7602 22.6344H6.59385C5.28621 22.6652 4.19052 23.6004 3.99609 24.8516L3.59497 26.6993C3.39905 27.6093 3.62987 28.5565 4.22531 29.2861C4.69042 29.8535 5.3875 30.1974 6.13543 30.2284H21.913C23.4503 30.1297 24.6317 28.8727 24.5872 27.383C24.6184 25.874 25.8921 24.6666 27.4524 24.6669H34.749Z" fill="#3882EA"/>
<path fill-rule="evenodd" clip-rule="evenodd" d="M21.6074 9.10918C21.6074 13.191 18.1866 16.5 13.9669 16.5C9.7472 16.5 6.32644 13.191 6.32644 9.10918V6.20829C6.32644 2.77954 9.19987 0 12.7444 0H15.2467C18.7689 0.0304215 21.6075 2.80108 21.6074 6.20829V9.10918ZM12.7444 2.77156C10.7823 2.77156 9.19162 4.31023 9.19162 6.20829L9.24892 9.10918C9.55376 11.4358 11.5998 13.1799 14.0242 13.1799C16.4486 13.1799 18.4947 11.4358 18.7995 9.10918V6.20829C18.7995 4.31023 17.2089 2.77156 15.2467 2.77156H12.7444Z" fill="#3882EA"/>
<path fill-rule="evenodd" clip-rule="evenodd" d="M36.0861 9.57111C36.0861 12.6325 33.5205 15.1142 30.3558 15.1142C27.191 15.1142 24.6254 12.6325 24.6254 9.57111V7.44625C24.6251 4.90328 26.734 2.8304 29.3625 2.79003H31.2726C33.931 2.79003 36.0861 4.87469 36.0861 7.44625V9.57111ZM29.4007 5.59854C28.3458 5.59854 27.4906 6.42579 27.4906 7.44625V9.57111C27.4906 11.1018 28.7734 12.3427 30.3558 12.3427C31.9382 12.3427 33.2209 11.1018 33.2209 9.57111V7.44625C33.2209 6.42579 32.3658 5.59854 31.3108 5.59854H29.4007Z" fill="#3882EA"/>
</svg>
