<svg width="28" height="28" viewBox="0 0 28 28" fill="none" xmlns="http://www.w3.org/2000/svg">
<path fill-rule="evenodd" clip-rule="evenodd" d="M11.3755 0.311847C12.3393 0.104658 13.3223 0.000180009 14.3082 0.000163087C18.2494 -0.0191088 22.0055 1.67045 24.6059 4.63217C27.2062 7.59388 28.3955 11.5371 27.8664 15.4427C27.0164 21.9597 20.5843 27.23 14.0106 27.23H4.57512C3.77306 27.2303 3.02977 26.8094 2.61754 26.1214C2.20531 25.4334 2.18473 24.5794 2.56334 23.8723L2.94586 23.1356C3.32657 22.426 3.29956 21.5672 2.87503 20.883C0.497306 17.1451 0.0890804 12.4833 1.78094 8.38902C3.4728 4.29472 7.05271 1.28097 11.3755 0.311847ZM13.8973 25.0907C19.6729 24.9996 24.5846 20.8521 25.6421 15.1735C26.1225 11.8825 25.1331 8.54661 22.9361 6.04966C20.76 3.55942 17.6153 2.12907 14.3082 2.12528C13.4706 2.12688 12.6353 2.21231 11.8147 2.38029C8.16677 3.19195 5.14151 5.72703 3.70416 9.17668C2.2668 12.6263 2.59696 16.5595 4.58928 19.7213C5.43691 21.0529 5.49656 22.7392 4.74513 24.1273L4.3626 24.8499C4.33147 24.8972 4.33147 24.9584 4.3626 25.0057C4.41927 25.0907 4.50428 25.0907 4.50428 25.0907H13.8973Z" fill="white"/>
</svg>
