<svg width="40" height="40" viewBox="0 0 40 40" fill="none" xmlns="http://www.w3.org/2000/svg">
<g id="Interface essential/chat">
<path id="Icon" fill-rule="evenodd" clip-rule="evenodd" d="M15.9374 4.17434C17.0429 3.93669 18.1704 3.81686 19.3011 3.81684C23.8217 3.79473 28.13 5.73265 31.1126 9.12973C34.0951 12.5268 35.4593 17.0497 34.8524 21.5293C33.8774 29.0043 26.4999 35.0493 18.9599 35.0493H8.1374C7.21744 35.0497 6.36488 34.5669 5.89206 33.7777C5.41923 32.9886 5.39563 32.0091 5.8299 31.1981L6.26865 30.3531C6.70531 29.5392 6.67434 28.5542 6.1874 27.7693C3.46016 23.482 2.99193 18.135 4.93248 13.4388C6.87304 8.74267 10.9792 5.28592 15.9374 4.17434ZM18.8299 32.5956C25.4544 32.4911 31.0882 27.734 32.3011 21.2206C32.8521 17.4458 31.7173 13.6196 29.1974 10.7556C26.7013 7.89929 23.0944 6.25868 19.3011 6.25434C18.3404 6.25617 17.3823 6.35416 16.4411 6.54684C12.257 7.4778 8.78704 10.3855 7.1384 14.3423C5.48977 18.299 5.86846 22.8103 8.15364 26.4368C9.12587 27.9642 9.19428 29.8984 8.33239 31.4906L7.89364 32.3193C7.85793 32.3736 7.85793 32.4439 7.89364 32.4981C7.95864 32.5956 8.05614 32.5956 8.05614 32.5956H18.8299Z" fill="#3882EA"/>
</g>
</svg>
