<svg width="36" height="31" viewBox="0 0 36 31" fill="none" xmlns="http://www.w3.org/2000/svg">
<path d="M12.4078 15.4998H12.546C16.3619 15.4998 19.4553 12.4404 19.4553 8.66645V5.98437C19.4507 4.45154 18.8283 2.98378 17.7259 1.90634C16.6235 0.828887 15.1322 0.230717 13.5824 0.244369H11.3024C8.10095 0.253751 5.50806 2.81815 5.49858 5.98437V8.66645C5.49858 12.4404 8.59196 15.4998 12.4078 15.4998Z" fill="#0053C8"/>
<path d="M27.2282 14.2185C30.0901 14.2185 32.4102 11.924 32.4102 9.09354V7.12895C32.4102 4.76465 30.4824 2.84272 28.0919 2.82395H26.3645C23.974 2.84272 22.0462 4.76465 22.0463 7.12895V9.09354C22.0463 11.924 24.3663 14.2185 27.2282 14.2185Z" fill="#0053C8"/>
<path d="M35.6748 21.3423L35.3984 19.9927C35.0717 18.14 33.448 16.7862 31.5465 16.781H21.0099C19.7222 16.7837 18.5219 17.4254 17.8143 18.4894H5.63676C4.41499 18.4902 3.2402 18.955 2.35486 19.7877C1.5942 20.477 1.05892 21.3752 0.817549 22.3673C0.817549 22.4527 0.817549 22.5381 0.817549 22.6065V23.0506L0.454813 24.4173C0.0853637 25.9125 0.414939 27.4927 1.35245 28.7213C2.28997 29.9498 3.73614 30.6966 5.29129 30.7552H19.5935C19.9605 30.754 20.326 30.7081 20.6817 30.6185H20.9062C21.1658 30.5454 21.4198 30.454 21.6662 30.3452L21.9426 30.1915C22.1488 30.0764 22.3452 29.945 22.5299 29.7985L22.8063 29.5765C22.9762 29.4198 23.1376 29.2545 23.2899 29.081C23.2899 28.9956 23.4454 28.9273 23.5145 28.8248C23.7075 28.5739 23.8753 28.305 24.0154 28.0219C24.0891 27.8666 24.1525 27.7069 24.2054 27.5435C24.2733 27.3879 24.331 27.2282 24.3781 27.0652C24.3781 26.8944 24.4645 26.7235 24.499 26.5527V26.2965H31.8919C33.1117 26.2607 34.2492 25.6796 34.9846 24.7165C35.72 23.7534 35.9738 22.5124 35.6748 21.3423Z" fill="#0053C8"/>
</svg>
