<svg width="30" height="30" viewBox="0 0 30 30" fill="none" xmlns="http://www.w3.org/2000/svg">
<path d="M16.965 20.1282L12.0805 21.1624C11.89 21.1831 11.6979 21.1831 11.5075 21.1624C10.8299 21.1682 10.1789 20.9024 9.70266 20.4257C9.09064 19.8048 8.83736 18.9201 9.02943 18.074L10.0751 13.2574C10.2972 12.3103 10.7952 11.4483 11.5075 10.7782L19.6722 2.7032H6.78055C5.1829 2.684 3.64502 3.30321 2.51523 4.42059C1.38544 5.53796 0.759344 7.05894 0.778759 8.63903V23.3015C0.778759 26.5407 3.43378 29.1665 6.70893 29.1665H21.5487C24.8238 29.1665 27.4788 26.5407 27.4788 23.3015V10.849L19.486 18.7682C18.7977 19.455 17.9214 19.9277 16.965 20.1282Z" fill="#0053C8"/>
<path fill-rule="evenodd" clip-rule="evenodd" d="M22.0214 2.4057C23.6791 0.524735 26.5574 0.310135 28.4815 1.92403C29.288 2.84242 29.6902 4.04134 29.5988 5.25438C29.5073 6.46741 28.9298 7.59408 27.9945 8.38403L18.4403 17.8332C17.9365 18.3046 17.3041 18.6198 16.6212 18.7399L11.7797 19.8165C11.3813 19.9314 10.9515 19.8154 10.6673 19.5164C10.3831 19.2174 10.2927 18.786 10.4332 18.3999L11.4788 13.5832C11.6386 12.9271 11.981 12.3284 12.4672 11.8549L22.0214 2.4057ZM22.6086 9.00737L25.8172 5.83403C26.2117 5.41539 26.2 4.76302 25.7909 4.3584C25.3818 3.95378 24.7222 3.94227 24.2989 4.33237L21.0903 7.5057C20.6714 7.92052 20.6714 8.59254 21.0903 9.00737C21.5097 9.42168 22.1892 9.42168 22.6086 9.00737Z" fill="#0053C8"/>
</svg>
