<svg width="34" height="34" viewBox="0 0 34 34" fill="none" xmlns="http://www.w3.org/2000/svg">
<path fill-rule="evenodd" clip-rule="evenodd" d="M29.5058 8.99746C31.9879 8.99746 34 6.98331 34 4.49873C34 2.01415 31.9879 0 29.5058 0C27.0238 0 25.0117 2.01415 25.0117 4.49873C25.0071 5.69327 25.4791 6.84023 26.3229 7.68491C27.1667 8.52959 28.3125 9.00208 29.5058 8.99746ZM29.5058 2.61272C30.2764 2.61275 30.9708 3.07837 31.2641 3.79172C31.5573 4.50506 31.3915 5.32505 30.8441 5.868C30.2967 6.41096 29.4761 6.5695 28.7662 6.26944C28.0562 5.96939 27.5975 5.27008 27.6045 4.49873C27.6044 3.99552 27.8053 3.51316 28.1624 3.15897C28.5195 2.80477 29.0032 2.60811 29.5058 2.61272Z" fill="#3882EA"/>
<path d="M32.2197 10.3471C31.5037 10.3471 30.9233 10.9281 30.9233 11.6448V25.487C30.9138 28.8659 28.1798 31.6027 24.8043 31.6122H8.64261C5.26714 31.6027 2.53314 28.8659 2.52364 25.487V9.23969C2.53314 5.86079 5.26714 3.12401 8.64261 3.1145H22.3325C23.0485 3.1145 23.6289 2.5335 23.6289 1.81679C23.6289 1.10009 23.0485 0.519084 22.3325 0.519084H8.64261C3.86943 0.519084 0 4.39245 0 9.17048V25.3486C0 27.6431 0.910558 29.8436 2.53136 31.4661C4.15217 33.0885 6.35045 34 8.64261 34H24.8043C29.5775 34 33.4469 30.1266 33.4469 25.3486V11.5064C33.3726 10.8732 32.8554 10.3847 32.2197 10.3471Z" fill="#3882EA"/>
<path fill-rule="evenodd" clip-rule="evenodd" d="M11.5811 9.39542C13.851 7.72608 16.7861 7.25572 19.4632 8.13232C21.8354 8.93987 23.7684 10.6933 24.8043 12.9771C25.715 14.8812 26.0168 17.0202 25.6686 19.1023C25.4218 20.6852 24.2944 21.9883 22.7646 22.459C21.4603 22.8447 20.0496 22.5454 19.0138 21.6631C18.2803 22.1135 17.437 22.353 16.5765 22.3552C16.1562 22.3482 15.7383 22.2901 15.332 22.1822C12.7267 21.3394 11.2903 18.5487 12.1169 15.9359C12.7227 13.7667 14.6567 12.2361 16.905 12.1466C17.3259 12.1445 17.745 12.2027 18.1495 12.3196C20.7545 13.1618 22.1856 15.9572 21.3473 18.5659C21.2208 18.988 21.0468 19.3943 20.8287 19.7771C21.1941 20.0096 21.6441 20.0667 22.056 19.9328C22.6404 19.7494 23.0653 19.243 23.1449 18.6351C23.4019 17.0828 23.1788 15.4889 22.5054 14.0672C21.7643 12.4349 20.3816 11.1823 18.6853 10.6066C16.7922 9.96814 14.7067 10.2978 13.1022 11.4891C11.2622 12.867 10.1846 15.0372 10.1983 17.3374C10.0715 21.0677 12.9723 24.203 16.6975 24.3623C17.0414 24.3669 17.3693 24.508 17.6092 24.7546C17.8491 25.0013 17.9813 25.3332 17.9766 25.6774C17.9767 26.02 17.8395 26.3483 17.5959 26.5889C17.3523 26.8295 17.0225 26.9624 16.6802 26.9578C11.5342 26.7791 7.48882 22.4905 7.6055 17.3374C7.58889 14.2067 9.06591 11.2561 11.5811 9.39542ZM16.0234 19.7079C16.2011 19.7328 16.3815 19.7328 16.5592 19.7079C16.9815 19.6931 17.3901 19.5548 17.7346 19.3099C18.3162 18.9582 18.7379 18.3934 18.91 17.7354C19.1077 17.08 19.0458 16.3737 18.7372 15.7629C18.4891 15.2478 18.0383 14.8592 17.4926 14.6901C17.3144 14.6743 17.1351 14.6743 16.9568 14.6901C15.8034 14.7179 14.825 15.546 14.606 16.6799C14.1656 17.9077 14.7991 19.2609 16.0234 19.7079Z" fill="#3882EA"/>
</svg>
