<svg width="40" height="40" viewBox="0 0 40 40" fill="none" xmlns="http://www.w3.org/2000/svg">
<path d="M19.2333 18.8883C19.0357 18.8708 18.8368 18.8708 18.6392 18.8883C17.4181 18.9432 16.3834 19.8055 16.1092 20.9966C15.6209 22.3567 16.3233 23.8557 17.6808 24.3508C17.8779 24.3783 18.0779 24.3783 18.275 24.3508C18.7093 24.3429 19.1334 24.217 19.5017 23.9866C20.1466 23.597 20.6141 22.9713 20.805 22.2425C21.0241 21.5165 20.9555 20.7341 20.6133 20.0575C20.3341 19.4942 19.8348 19.0712 19.2333 18.8883Z" fill="#3882EA"/>
<path fill-rule="evenodd" clip-rule="evenodd" d="M27.5325 3.57412C27.2736 4.28715 27.1375 5.03892 27.13 5.79746C27.1173 8.10039 28.2419 10.2612 30.1354 11.5721C32.0289 12.883 34.4473 13.175 36.5983 12.3525V31.6725C36.5983 35.9066 33.1659 39.3391 28.9317 39.3391H8.50001C4.26583 39.3391 0.833344 35.9066 0.833344 31.6725V11.2408C0.833344 7.00661 4.26583 3.57412 8.50001 3.57412H27.5325ZM25.175 27.3216C26.8713 26.8002 28.1213 25.3567 28.395 23.6033C28.8172 21.2862 28.5091 18.8952 27.5133 16.7608C26.3393 14.2635 24.1912 12.3579 21.5717 11.49C18.6032 10.5189 15.3486 11.04 12.8317 12.8891C10.0427 14.9503 8.40491 18.2187 8.42333 21.6866C8.29395 27.3948 12.7796 32.1453 18.4858 32.3433C18.8653 32.3484 19.231 32.2013 19.5012 31.9347C19.7713 31.6682 19.9234 31.3045 19.9233 30.925C19.9284 30.5437 19.7819 30.176 19.5159 29.9028C19.2499 29.6297 18.8863 29.4733 18.505 29.4683C14.3742 29.2918 11.1578 25.8188 11.2983 21.6866C11.2832 19.1386 12.478 16.7346 14.5183 15.2083C16.2929 13.8951 18.5965 13.5302 20.69 14.2308C22.5709 14.8685 24.1041 16.256 24.9258 18.0641C25.6726 19.639 25.92 21.4046 25.635 23.1241C25.5467 23.7975 25.0755 24.3584 24.4275 24.5616C23.9709 24.7099 23.4719 24.6467 23.0667 24.3891C23.3086 23.9651 23.5015 23.515 23.6417 23.0475C24.5713 20.1578 22.9844 17.0613 20.0958 16.1283C19.6473 15.9988 19.1826 15.9343 18.7158 15.9366C16.2191 16.0143 14.0582 17.695 13.3683 20.0958C12.4517 22.9901 14.0444 26.0814 16.9333 27.015C17.3839 27.1345 17.8473 27.1989 18.3133 27.2066C19.2675 27.2041 20.2025 26.9389 21.0158 26.44C22.1644 27.4173 23.7287 27.7489 25.175 27.3216Z" fill="#3882EA"/>
<path d="M34.145 0.833289C32.126 0.825538 30.3018 2.03684 29.5256 3.90071C28.7493 5.76459 29.1745 7.91265 30.6021 9.34034C32.0298 10.768 34.1779 11.1932 36.0418 10.4169C37.9056 9.64068 39.1169 7.81649 39.1092 5.79746C39.1092 4.48088 38.5862 3.21822 37.6552 2.28726C36.7243 1.3563 35.4616 0.833289 34.145 0.833289Z" fill="#3882EA"/>
</svg>
