<svg width="35" height="35" viewBox="0 0 35 35" fill="none" xmlns="http://www.w3.org/2000/svg">
<g id="Interface essential/Magnifier ">
<path id="Icon" fill-rule="evenodd" clip-rule="evenodd" d="M6.00416 11.3651C8.02461 6.51353 12.7586 3.34777 18.0141 3.33373C23.6879 3.29964 28.7347 6.93241 30.5034 12.3236C32.2721 17.7148 30.3579 23.6312 25.7666 26.9648C21.1752 30.2983 14.9568 30.2864 10.3782 26.9354L6.3124 31.0012C5.89757 31.4155 5.22556 31.4155 4.81073 31.0012C4.39642 30.5864 4.39642 29.9144 4.81073 29.4996L8.76323 25.5471C5.07126 21.8068 3.9837 16.2167 6.00416 11.3651ZM21.3017 11.8927C21.6474 12.7198 22.4585 13.2561 23.3549 13.2504C24.5676 13.2504 25.5507 12.2673 25.5507 11.0546C25.5565 10.1582 25.0201 9.34708 24.193 9.00138C23.3659 8.65569 22.4119 8.84387 21.7781 9.47774C21.1442 10.1116 20.956 11.0656 21.3017 11.8927Z" fill="white"/>
</g>
</svg>
