<svg width="51" height="34" viewBox="0 0 51 34" fill="none" xmlns="http://www.w3.org/2000/svg">
<path d="M25.9126 15.0104C29.6652 15.0109 32.725 12.0021 32.7876 8.25001V5.68334C32.7878 4.16001 32.1764 2.70036 31.0907 1.63186C30.0049 0.563352 28.5357 -0.024562 27.0126 7.86381e-06H24.8355C21.7056 0.0126284 19.175 2.55345 19.1751 5.68334V8.25001C19.236 11.9493 22.2135 14.9369 25.9126 15.0104Z" fill="#3882EA"/>
<path d="M50.2042 26.8354L49.9292 23.375C49.632 21.6372 48.14 20.3569 46.3771 20.3271H36.4771C36.3253 20.3034 36.1707 20.3034 36.0188 20.3271C35.1405 19.3406 33.8792 18.7809 32.5584 18.7917H19.2896C17.8909 18.7856 16.5659 19.4185 15.6917 20.5104C15.3173 20.3735 14.9216 20.3037 14.523 20.3042H4.62296C2.85285 20.336 1.35828 21.6281 1.07088 23.375L0.795881 26.95C0.565586 28.0463 0.830214 29.1884 1.5192 30.0717C2.20819 30.955 3.25148 31.4898 4.37088 31.5333H14.798C15.0035 31.557 15.2111 31.557 15.4167 31.5333C16.3256 32.5366 17.6151 33.1106 18.9688 33.1146H32.8792C34.1917 33.1083 35.4436 32.5612 36.3396 31.6021H46.6292C47.7893 31.5701 48.8712 31.0103 49.5675 30.0819C50.2638 29.1535 50.4983 27.958 50.2042 26.8354Z" fill="#3882EA"/>
<path d="M41.5417 16.7521C44.3262 16.7521 46.5834 14.4949 46.5834 11.7104V9.76251C46.5838 8.61796 46.1214 7.52187 45.3014 6.72342C44.4814 5.92497 43.3733 5.49199 42.2292 5.52292H40.625C38.2836 5.52292 36.3855 7.42105 36.3855 9.76251V11.7104C36.3851 13.0676 36.932 14.3677 37.9024 15.3166C38.8728 16.2654 40.1848 16.7829 41.5417 16.7521Z" fill="#3882EA"/>
<path d="M9.57297 16.7521C12.3574 16.7521 14.6146 14.4949 14.6146 11.7104V9.76251C14.6146 7.42105 12.7165 5.52292 10.3751 5.52292H8.77089C6.42943 5.52292 4.5313 7.42105 4.5313 9.76251V11.7104C4.5313 14.4949 6.78853 16.7521 9.57297 16.7521Z" fill="#3882EA"/>
</svg>
