<svg width="28" height="20" viewBox="0 0 28 20" fill="none" xmlns="http://www.w3.org/2000/svg">
<path fill-rule="evenodd" clip-rule="evenodd" d="M16.6537 6.92688C18.0052 6.89441 19.2124 6.07362 19.7394 4.82888C19.8519 4.8763 19.9722 4.90245 20.0943 4.90601H26.2657C26.9048 4.90601 27.4229 4.38801 27.4229 3.74902C27.4229 3.11004 26.9048 2.59203 26.2657 2.59203H20.1714C20.1049 2.58331 20.0374 2.58331 19.9709 2.59203C19.5289 0.855938 17.8285 -0.25046 16.0619 0.0487482C14.2954 0.347956 13.0542 1.9526 13.2088 3.73737C13.3634 5.52213 14.8621 6.88952 16.6537 6.8806V6.92688ZM16.6537 2.37606C17.2757 2.37606 17.78 2.88025 17.78 3.5022C17.78 4.12415 17.2757 4.62833 16.6537 4.62833C16.0317 4.62833 15.5274 4.12415 15.5274 3.5022C15.5274 2.88025 16.0317 2.37606 16.6537 2.37606Z" fill="#3882EA"/>
<path d="M1.65714 2.59204H10.9143C11.5534 2.59204 12.0714 3.11004 12.0714 3.74902C12.0714 4.38801 11.5534 4.90601 10.9143 4.90601H1.65714C1.01807 4.90601 0.5 4.38801 0.5 3.74902C0.5 3.11004 1.01807 2.59204 1.65714 2.59204Z" fill="#3882EA"/>
<path fill-rule="evenodd" clip-rule="evenodd" d="M4.604 14.9332C5.08727 13.5665 6.37877 12.6521 7.82857 12.6501V12.6193C9.57326 12.617 11.0434 13.9209 11.2495 15.6531C11.4555 17.3854 10.3322 18.9976 8.63561 19.4046C6.93906 19.8115 5.20643 18.8844 4.604 17.2472H1.65714C1.01807 17.2472 0.5 16.7292 0.5 16.0902C0.5 15.4512 1.01807 14.9332 1.65714 14.9332H4.604ZM6.70415 16.1714C6.71475 16.785 7.21478 17.2771 7.82857 17.2781V17.2164C8.4506 17.2164 8.95486 16.7122 8.95486 16.0902C8.92122 15.4774 8.40306 15.0044 7.78967 15.0265C7.17628 15.0486 6.69355 15.5578 6.70415 16.1714Z" fill="#3882EA"/>
<path d="M14 14.9332H26.3429C26.9819 14.9332 27.5 15.4512 27.5 16.0902C27.5 16.7292 26.9819 17.2472 26.3429 17.2472H14C13.3609 17.2472 12.8429 16.7292 12.8429 16.0902C12.8429 15.4512 13.3609 14.9332 14 14.9332Z" fill="#3882EA"/>
</svg>
