<svg width="38" height="37" viewBox="0 0 38 37" fill="none" xmlns="http://www.w3.org/2000/svg">
<g id="Interface essential/Flame">
<path id="Icon" d="M19.3287 3.08325L17.2166 7.39992C15.7074 10.4838 13.6847 13.2885 11.235 15.6941L10.9575 15.9562C9.38414 17.4836 8.4852 19.5756 8.45997 21.7683V22.0458C8.4183 26.3395 10.9769 30.2322 14.935 31.897L15.3358 32.0666C17.9318 33.1692 20.8644 33.1692 23.4604 32.0666H23.5529C27.5405 30.334 30.0991 26.3777 30.0433 22.0303V15.3395C28.7144 18.3743 26.3011 20.8042 23.2754 22.1537C23.2754 22.1537 23.2754 22.1537 23.1829 22.1537C23.0904 22.1537 22.0112 22.6008 21.5487 22.1537C21.1356 21.7357 21.0961 21.0764 21.4562 20.612L21.5641 20.5349H21.6412C25.1805 17.8447 26.0057 12.8601 23.5221 9.17284C21.5179 6.12034 19.3287 3.08325 19.3287 3.08325Z" fill="white"/>
</g>
</svg>
