<svg width="20" height="20" viewBox="0 0 20 20" fill="none" xmlns="http://www.w3.org/2000/svg">
<path fill-rule="evenodd" clip-rule="evenodd" d="M12.0991 11.8331C13.5379 11.8623 14.757 12.9012 15.0141 14.3173L15.2249 15.3623C15.4331 16.2642 15.2284 17.2121 14.6665 17.9477C14.1046 18.6833 13.244 19.1301 12.3191 19.1665H3.80322C2.87698 19.1334 2.0142 18.6874 1.45159 17.9509C0.888987 17.2143 0.685655 16.2646 0.897386 15.3623L1.10822 14.3173C1.36125 12.9027 2.57729 11.8631 4.01405 11.8331H12.0991ZM12.3191 17.7915C12.7823 17.7873 13.218 17.5711 13.5016 17.2048C13.865 16.7662 14.0038 16.1835 13.8774 15.6281L13.6666 14.5831C13.5372 13.8091 12.8832 13.2316 12.0991 13.199H4.01405C3.23205 13.2323 2.58111 13.8105 2.45572 14.5831L2.29072 15.6373C2.16726 16.1898 2.30597 16.7684 2.66655 17.2048C2.94004 17.5588 3.35621 17.7736 3.80322 17.7915H12.3191Z" fill="white"/>
<path fill-rule="evenodd" clip-rule="evenodd" d="M8.51489 9.9998H7.59822C5.57317 9.9998 3.93155 8.35818 3.93155 6.33313V3.91313C3.93155 2.21209 5.31051 0.833131 7.01155 0.833131H9.08322C9.904 0.825777 10.6936 1.14732 11.2757 1.726C11.8578 2.30468 12.184 3.09232 12.1816 3.91313V6.33313C12.1816 8.35818 10.5399 9.9998 8.51489 9.9998ZM7.01155 2.20813C6.06991 2.20813 5.30655 2.97149 5.30655 3.91313V6.33313C5.31147 7.58961 6.32348 8.60979 7.57988 8.6248H8.49655C9.10434 8.6248 9.68723 8.38336 10.117 7.95358C10.5468 7.52381 10.7882 6.94092 10.7882 6.33313V3.91313C10.7882 2.97149 10.0249 2.20813 9.08322 2.20813H7.01155Z" fill="white"/>
<path d="M18.5982 4.72896H17.3332V3.47313C17.3332 3.09344 17.0254 2.78563 16.6457 2.78563C16.266 2.78563 15.9582 3.09344 15.9582 3.47313V4.72896H14.7115C14.3319 4.72896 14.024 5.03677 14.024 5.41646C14.024 5.79616 14.3319 6.10396 14.7115 6.10396H15.9674V7.3598C15.9674 7.73949 16.2752 8.0473 16.6549 8.0473C17.0346 8.0473 17.3424 7.73949 17.3424 7.3598V6.10396H18.5982C18.9779 6.10396 19.2857 5.79616 19.2857 5.41646C19.2857 5.03677 18.9779 4.72896 18.5982 4.72896Z" fill="white"/>
</svg>
