<svg width="39" height="39" viewBox="0 0 39 39" fill="none" xmlns="http://www.w3.org/2000/svg">
<path d="M11.7925 15.5692C13.9209 15.5692 15.6462 13.8438 15.6462 11.7154C15.6462 9.58704 13.9209 7.86166 11.7925 7.86166C9.66412 7.86166 7.93874 9.58704 7.93874 11.7154C7.93874 13.8438 9.66412 15.5692 11.7925 15.5692Z" fill="#0053C8"/>
<path fill-rule="evenodd" clip-rule="evenodd" d="M23.585 0H15.415C6.90154 0 0 6.90154 0 15.415V23.585C0 32.0985 6.90154 39 15.415 39H23.585C32.0985 39 39 32.0985 39 23.585V15.415C39 11.3267 37.3759 7.40583 34.485 4.51496C31.5942 1.62408 27.6733 0 23.585 0ZM15.415 2.89032H23.585C29.8395 2.90009 35.128 7.52245 35.9748 13.7194H32.9881C24.9468 13.7259 17.5113 17.9937 13.4496 24.9338C10.9131 22.9189 7.76755 21.8251 4.52816 21.8315H2.89032V15.415C2.90093 8.50222 8.50222 2.90093 15.415 2.89032ZM4.52816 24.7218H2.94812C3.36669 29.2659 6.22358 33.2227 10.4051 35.0499C10.5432 32.4778 11.1234 29.9487 12.1201 27.5736C10.0168 25.7375 7.32012 24.7246 4.52816 24.7218ZM23.585 36.1097H15.415C14.6906 36.1068 13.9681 36.0358 13.2569 35.8977C13.4975 25.1676 22.2553 16.5894 32.9881 16.5711H36.1097V23.585C36.0991 30.4978 30.4978 36.0991 23.585 36.1097Z" fill="#0053C8"/>
</svg>
