<svg width="37" height="37" viewBox="0 0 37 37" fill="none" xmlns="http://www.w3.org/2000/svg">
<path d="M10.9731 14.4895C12.9535 14.4895 14.559 12.8838 14.559 10.903C14.559 8.92221 12.9535 7.31648 10.9731 7.31648C8.99259 7.31648 7.38709 8.92221 7.38709 10.903C7.38709 12.8838 8.99259 14.4895 10.9731 14.4895Z" fill="white"/>
<path fill-rule="evenodd" clip-rule="evenodd" d="M21.9461 0H14.3439C6.42197 0 0 6.42294 0 14.346V21.9494C0 29.8725 6.42197 36.2955 14.3439 36.2955H21.9461C29.868 36.2955 36.29 29.8725 36.29 21.9494V14.346C36.29 10.5412 34.7788 6.89226 32.0888 4.20186C29.3988 1.51145 25.7504 0 21.9461 0ZM14.3439 2.68988H21.9461C27.766 2.69898 32.6871 7.00079 33.475 12.768H30.6959C23.2133 12.7741 16.2945 16.7458 12.515 23.2047C10.1548 21.3295 7.2278 20.3116 4.21351 20.3176H2.68948V14.346C2.69935 7.91261 7.91142 2.69976 14.3439 2.68988ZM4.21351 23.0075H2.74327C3.13275 27.2364 5.79112 30.9188 9.68211 32.6193C9.81062 30.2256 10.3504 27.8719 11.2779 25.6615C9.32075 23.9527 6.81147 23.01 4.21351 23.0075ZM21.9461 33.6056H14.3439C13.6698 33.6029 12.9975 33.5369 12.3357 33.4083C12.5596 23.4223 20.7089 15.4389 30.6959 15.422H33.6005V21.9494C33.5907 28.3829 28.3786 33.5957 21.9461 33.6056Z" fill="white"/>
</svg>
