<svg width="34" height="29" viewBox="0 0 34 29" fill="none" xmlns="http://www.w3.org/2000/svg">
<path d="M16.9125 28.925C16.1 28.925 15.125 28.6 14.475 27.95C3.9125 18.6875 3.75 18.525 3.75 18.3625L3.5875 18.2C1.6375 16.25 0.5 13.4875 0.5 10.725V10.4C0.6625 4.55 5.375 0 11.225 0C13.0125 0 15.45 0.975 16.9125 2.925C18.375 0.975 20.975 0 22.7625 0C28.6125 0 33.1625 4.55 33.4875 10.4V10.725C33.4875 13.65 32.35 16.25 30.4 18.3625L30.2375 18.525C30.075 18.6875 28.775 19.825 19.5125 28.1125C18.7 28.6 17.8875 28.925 16.9125 28.925ZM6.1875 17.875C6.8375 18.525 10.0875 20.8 16.1 26C16.5875 26.4875 17.2375 26.4875 17.725 26C23.9 20.475 27.475 17.3875 28.2875 16.7375L28.45 16.575C30.075 14.95 30.8875 12.8375 30.8875 10.725V10.4C30.725 5.85 27.15 2.4375 22.6 2.4375C21.4625 2.4375 19.1875 3.25 18.375 5.0375C18.05 5.6875 17.4 6.0125 16.75 6.0125C16.1 6.0125 15.45 5.6875 15.125 5.0375C14.3125 3.4125 12.2 2.4375 10.9 2.4375C6.5125 2.4375 2.775 6.0125 2.6125 10.4V10.8875C2.6125 13 3.5875 15.1125 5.05 16.575L6.1875 17.875Z" fill="white"/>
</svg>
