<svg width="42" height="41" viewBox="0 0 42 41" fill="none" xmlns="http://www.w3.org/2000/svg">
<g id="Interface essential/Heart" clip-path="url(#clip0_889_1524)">
<path id="Icon" d="M21.1708 35.5333C20.3166 35.5333 19.2916 35.1917 18.6083 34.5083C7.50412 24.7708 7.33329 24.6 7.33329 24.4292L7.16246 24.2583C5.11246 22.2083 3.91663 19.3042 3.91663 16.4V16.0583C4.08746 9.90833 9.04162 5.125 15.1916 5.125C17.0708 5.125 19.6333 6.15 21.1708 8.2C22.7083 6.15 25.4416 5.125 27.3208 5.125C33.4708 5.125 38.2541 9.90833 38.5958 16.0583V16.4C38.5958 19.475 37.4 22.2083 35.35 24.4292L35.1791 24.6C35.0083 24.7708 33.6416 25.9667 23.9041 34.6792C23.05 35.1917 22.1958 35.5333 21.1708 35.5333ZM9.89579 23.9167C10.5791 24.6 13.9958 26.9917 20.3166 32.4583C20.8291 32.9708 21.5125 32.9708 22.025 32.4583C28.5166 26.65 32.275 23.4042 33.1291 22.7208L33.3 22.55C35.0083 20.8417 35.8625 18.6208 35.8625 16.4V16.0583C35.6916 11.275 31.9333 7.6875 27.15 7.6875C25.9541 7.6875 23.5625 8.54167 22.7083 10.4208C22.3666 11.1042 21.6833 11.4458 21 11.4458C20.3166 11.4458 19.6333 11.1042 19.2916 10.4208C18.4375 8.7125 16.2166 7.6875 14.85 7.6875C10.2375 7.6875 6.30829 11.4458 6.13746 16.0583V16.5708C6.13746 18.7917 7.16246 21.0125 8.69996 22.55L9.89579 23.9167Z" fill="#3882EA"/>
</g>
<defs>
<clipPath id="clip0_889_1524">
<rect width="41" height="41" fill="white" transform="translate(0.5)"/>
</clipPath>
</defs>
</svg>
