<svg width="36" height="31" viewBox="0 0 36 31" fill="none" xmlns="http://www.w3.org/2000/svg">
<path d="M18.0445 30.92C17.176 30.92 16.1337 30.5726 15.4389 29.8778C4.14786 19.9764 3.97416 19.8027 3.97416 19.629L3.80045 19.4553C1.71595 17.3708 0.5 14.4178 0.5 11.4647V11.1173C0.673708 4.86382 5.71123 0 11.9647 0C13.8755 0 16.4811 1.04225 18.0445 3.12674C19.6079 1.04225 22.3872 0 24.298 0C30.5515 0 35.4153 4.86382 35.7627 11.1173V11.4647C35.7627 14.5915 34.5467 17.3708 32.4622 19.629L32.2885 19.8027C32.1148 19.9764 30.7252 21.1924 20.8238 30.0515C19.9553 30.5726 19.0867 30.92 18.0445 30.92Z" fill="white"/>
</svg>
