<svg width="32" height="29" viewBox="0 0 32 29" fill="none" xmlns="http://www.w3.org/2000/svg">
<path d="M31.992 10.4083C31.8337 5.025 27.5587 0.75 22.1753 0.75C20.4337 0.75 17.742 2.01667 16.6337 4.075C16.4753 4.55 15.842 4.55 15.6837 4.075C14.417 2.175 11.8837 0.908333 9.98366 0.908333C4.75866 0.908333 0.325326 5.18333 0.166992 10.4083V10.725C0.166992 13.4167 1.27533 15.95 3.17533 17.85C3.17533 17.85 3.17533 17.85 3.17533 18.0083C3.33366 18.1667 10.9337 24.8167 14.417 27.825C15.367 28.6167 16.792 28.6167 17.742 27.825C21.2253 24.8167 28.667 18.1667 28.9837 18.0083C28.9837 18.0083 28.9837 18.0083 28.9837 17.85C30.8837 16.1083 31.992 13.575 31.992 10.725V10.4083Z" fill="#0053C8"/>
</svg>
