<svg width="38" height="39" viewBox="0 0 38 39" fill="none" xmlns="http://www.w3.org/2000/svg">
<g id="Interface essential/Home">
<path id="Icon" fill-rule="evenodd" clip-rule="evenodd" d="M22.885 6.52173L30.805 12.3717C32.3314 13.4764 33.2396 15.2426 33.25 17.1267V27.7167C33.1519 31.1125 30.3313 33.7924 26.935 33.7167H11.08C7.67789 33.8007 4.84808 31.1185 4.75 27.7167V17.1267C4.76044 15.2426 5.66863 13.4764 7.195 12.3717L15.115 6.52173C17.4275 4.82609 20.5725 4.82609 22.885 6.52173ZM12.25 27.3717H25.75C26.3713 27.3717 26.875 26.868 26.875 26.2467C26.875 25.6254 26.3713 25.1217 25.75 25.1217H12.25C11.6287 25.1217 11.125 25.6254 11.125 26.2467C11.125 26.868 11.6287 27.3717 12.25 27.3717Z" fill="white"/>
</g>
</svg>
