<svg width="31" height="31" viewBox="0 0 31 31" fill="none" xmlns="http://www.w3.org/2000/svg">
<g id="three-dots-vertical">
<path id="Vector" d="M18.4062 25.1875C18.4062 25.9583 18.1001 26.6975 17.555 27.2425C17.01 27.7876 16.2708 28.0938 15.5 28.0938C14.7292 28.0938 13.99 27.7876 13.445 27.2425C12.8999 26.6975 12.5938 25.9583 12.5938 25.1875C12.5938 24.4167 12.8999 23.6775 13.445 23.1325C13.99 22.5874 14.7292 22.2812 15.5 22.2812C16.2708 22.2812 17.01 22.5874 17.555 23.1325C18.1001 23.6775 18.4062 24.4167 18.4062 25.1875ZM18.4062 15.5C18.4062 16.2708 18.1001 17.01 17.555 17.555C17.01 18.1001 16.2708 18.4062 15.5 18.4062C14.7292 18.4062 13.99 18.1001 13.445 17.555C12.8999 17.01 12.5938 16.2708 12.5938 15.5C12.5938 14.7292 12.8999 13.99 13.445 13.445C13.99 12.8999 14.7292 12.5938 15.5 12.5938C16.2708 12.5938 17.01 12.8999 17.555 13.445C18.1001 13.99 18.4062 14.7292 18.4062 15.5ZM18.4062 5.8125C18.4062 6.58329 18.1001 7.3225 17.555 7.86753C17.01 8.41256 16.2708 8.71875 15.5 8.71875C14.7292 8.71875 13.99 8.41256 13.445 7.86753C12.8999 7.3225 12.5938 6.58329 12.5938 5.8125C12.5938 5.04171 12.8999 4.3025 13.445 3.75747C13.99 3.21244 14.7292 2.90625 15.5 2.90625C16.2708 2.90625 17.01 3.21244 17.555 3.75747C18.1001 4.3025 18.4062 5.04171 18.4062 5.8125Z" fill="#3882EA"/>
</g>
</svg>
