<svg width="17" height="17" viewBox="0 0 17 17" fill="none" xmlns="http://www.w3.org/2000/svg">
<g id="geo-alt-fill" clip-path="url(#clip0_889_1511)">
<path id="Vector" d="M7.83395 16.3319C8.20268 16.7145 8.79732 16.7145 9.16605 16.3319C10.8001 14.636 14.875 10.0396 14.875 6.375C14.875 4.68425 14.2034 3.06274 13.0078 1.86719C11.8123 0.67165 10.1908 0 8.5 0C6.80925 0 5.18774 0.67165 3.99219 1.86719C2.79665 3.06274 2.125 4.68425 2.125 6.375C2.125 10.0396 6.19992 14.636 7.83395 16.3319ZM8.5 9.5625C7.65462 9.5625 6.84387 9.22668 6.2461 8.6289C5.64832 8.03113 5.3125 7.22038 5.3125 6.375C5.3125 5.52962 5.64832 4.71887 6.2461 4.1211C6.84387 3.52332 7.65462 3.1875 8.5 3.1875C9.34538 3.1875 10.1561 3.52332 10.7539 4.1211C11.3517 4.71887 11.6875 5.52962 11.6875 6.375C11.6875 7.22038 11.3517 8.03113 10.7539 8.6289C10.1561 9.22668 9.34538 9.5625 8.5 9.5625Z" fill="#3882EA"/>
</g>
<defs>
<clipPath id="clip0_889_1511">
<rect width="17" height="17" fill="white"/>
</clipPath>
</defs>
</svg>
