<svg width="19" height="22" viewBox="0 0 19 22" fill="none" xmlns="http://www.w3.org/2000/svg">
<path d="M7.53205 20.9511C8.59975 22.135 10.4002 22.135 11.4679 20.9511C14.0135 18.1284 18.125 12.9066 18.125 8.625C18.125 6.33751 17.2163 4.14371 15.5988 2.5262C13.9813 0.908703 11.7875 0 9.5 0C7.21251 0 5.01871 0.908703 3.4012 2.5262C1.7837 4.14371 0.875 6.33751 0.875 8.625C0.875 12.9066 4.98647 18.1284 7.53205 20.9511ZM9.5 12.9375C8.35625 12.9375 7.25935 12.4831 6.4506 11.6744C5.64185 10.8656 5.1875 9.76875 5.1875 8.625C5.1875 7.48125 5.64185 6.38435 6.4506 5.5756C7.25935 4.76685 8.35625 4.3125 9.5 4.3125C10.6437 4.3125 11.7406 4.76685 12.5494 5.5756C13.3581 6.38435 13.8125 7.48125 13.8125 8.625C13.8125 9.76875 13.3581 10.8656 12.5494 11.6744C11.7406 12.4831 10.6437 12.9375 9.5 12.9375Z" fill="white"/>
</svg>
