<svg width="36" height="35" viewBox="0 0 36 35" fill="none" xmlns="http://www.w3.org/2000/svg">
<g id="Group 8386">
<g id="Group 8385">
<path id="Vector 72" d="M19.1411 16.9956C19.5054 17.0582 20.0012 17.2306 20.2036 17.3089H20.6589C20.8106 17.3089 21.6454 17.9354 21.7972 18.327C21.949 18.7187 22.4043 18.327 22.7837 18.327C23.1632 18.327 22.2525 19.6585 21.949 19.9718C21.6454 20.2851 22.1766 20.9116 22.2525 21.0683C22.3284 21.2249 22.0249 21.4599 21.949 22.0865C21.8731 22.713 21.6454 23.5746 21.4936 24.1228C21.3722 24.5614 20.7854 24.9321 20.5071 25.0627C20.4059 25.1149 20.1429 25.1253 19.9 24.7494C19.5964 24.2794 19.4447 23.4962 19.3688 23.1829C19.2929 22.8697 19.9759 21.2249 18.6099 21.0683C17.2439 20.9116 18.0028 22.2431 16.2574 20.9116C14.512 19.5802 16.4851 16.9956 16.6369 16.7606C16.7886 16.5257 17.1681 16.7606 17.8511 16.5257C18.3974 16.3377 18.9388 16.4473 19.1411 16.5257C18.9894 16.6562 18.7769 16.9329 19.1411 16.9956Z" fill="white"/>
<path id="Vector 79" d="M9.34443 20.3152C9.41974 20.0998 9.06204 19.3879 8.87378 19.0589C9.03066 18.8495 9.41974 18.4846 9.72095 18.6999C10.0975 18.9691 11.227 18.341 11.6036 18.4307C11.9801 18.5205 12.8273 18.6102 12.9214 18.8794C13.0155 19.1486 13.0155 19.7768 13.2038 20.046C13.3544 20.2613 13.2038 20.8536 13.1097 21.1228C13.0783 21.2125 12.959 21.41 12.7331 21.4817C12.4507 21.5715 13.1097 21.5715 13.6744 21.751C14.2392 21.9304 13.8627 22.8278 14.051 23.2765C14.2392 23.7251 15.2747 24.5328 15.4629 24.7122C15.6512 24.8917 15.4629 25.1609 15.2747 25.0712C15.0864 24.9814 13.0155 23.3662 12.0742 23.1867C11.3212 23.0431 9.94059 21.6313 9.34443 20.9433C9.31306 20.8237 9.26913 20.5305 9.34443 20.3152Z" fill="white"/>
<path id="Vector 76" d="M25.8803 20.0052C26.1676 20.0052 26.399 19.5264 26.4788 19.287C26.5783 19.0475 26.8379 19.0475 26.9576 19.1673C27.0773 19.287 26.9576 20.6037 26.5985 21.2022C26.2394 21.8007 25.8803 21.681 25.6409 21.681C25.4015 21.681 25.6409 21.2022 25.8803 20.9628C26.1197 20.7234 25.5212 20.0052 25.8803 20.0052Z" fill="white"/>
<path id="Subtract" d="M23.465 14.5423C23.5847 14.5025 23.8241 14.3269 23.8241 13.9439C23.8241 13.4652 23.8241 13.1062 23.2257 13.1062H21.7895C21.4305 13.1062 20.114 12.7471 20.473 12.3881C20.8321 12.0291 20.7123 11.7897 20.473 11.7897C20.2337 11.7897 19.2762 11.1913 19.5156 11.7897C19.755 12.3881 20.2337 13.1062 19.8747 13.1062C19.5156 13.1062 18.3188 12.6274 18.5582 12.3881C18.7975 12.1488 18.4385 11.7897 17.8401 11.7897H16.2843C15.9252 11.7897 16.6433 12.5078 17.3614 12.6275C18.0795 12.7472 18.3189 13.2259 17.8401 13.3456C17.3614 13.4653 17.2417 14.5423 17.122 13.9439C17.0024 13.3456 17.4811 13.5848 16.763 13.1062C16.0449 12.6275 15.6859 12.1487 15.3268 12.3881C14.9678 12.6275 13.8907 13.226 14.0103 13.585C14.13 13.9439 13.5316 15.7392 13.1726 15.9786C12.8135 16.2179 11.8561 16.936 11.3774 16.4573C10.8986 15.9786 10.4199 16.577 10.4199 15.9786C10.4199 15.3802 9.9412 15.1407 10.4199 14.5423C10.8986 13.9439 11.138 13.226 11.6167 13.585C12.0954 13.9439 12.215 13.1062 12.6938 13.1062C13.1723 13.1062 12.8139 12.8672 12.4551 12.6279L12.4544 12.6275C12.1704 12.4381 12.4871 12.3892 12.6871 12.3881C12.711 12.3518 12.8284 12.2027 13.1726 11.7897C13.7709 11.0717 13.412 10.4733 14.0103 10.3536C14.6087 10.2339 15.0875 10.1142 15.3268 9.87486C15.5661 9.6355 15.8056 9.27646 15.3268 9.27646C14.8481 9.27646 14.4891 9.51582 14.0103 9.27646C13.5316 9.0371 14.0103 8.91742 14.0103 8.67806C14.0103 8.43869 14.6088 7.72061 15.3268 7.48125C16.0449 7.24189 17.1221 6.52381 17.8401 6.88285C18.5582 7.24189 18.1991 7.36168 19.0369 7.12226C19.8747 6.88285 19.9944 6.8829 20.2337 6.2845C20.4251 5.80578 20.9213 5.58063 21.2405 5.42106C21.5738 5.08769 25.0621 6.32185 26.3374 7.48125C27.6539 8.67806 29.0901 9.99448 30.2869 13.585C30.6698 14.7339 30.2869 16.9361 30.0475 17.8935C30.1273 16.6169 30.1193 13.968 29.4491 13.585C28.7789 13.2019 28.2922 13.2658 28.1326 13.3456C28.0129 13.4253 27.63 13.4891 27.0555 13.1062C26.3374 12.6275 25.9784 12.8667 27.0555 13.9439C27.9172 14.8057 28.2922 14.5425 28.372 14.3031C28.6113 14.5026 29.0182 14.9733 28.731 15.2605C28.372 15.6196 26.9358 16.4573 26.3374 16.4573C25.739 16.4573 25.2603 14.5423 24.6619 14.5423C24.1831 14.5423 24.1433 14.7818 24.1831 14.9015L23.465 14.5423Z" fill="white"/>
</g>
<path id="Subtract_2" fill-rule="evenodd" clip-rule="evenodd" d="M36.0001 16.4752C36.0001 25.5572 28.1117 32.9197 18.381 32.9197C16.7257 32.9197 15.1237 32.7066 13.6048 32.3083C13.352 32.242 13.0849 32.2706 12.8518 32.3888C11.5018 33.0729 8.89493 34.1625 4.81036 34.9509C4.02546 35.1023 3.40165 34.2891 3.67195 33.5368C4.29331 31.8074 4.83061 29.7079 5.05497 27.7265C5.08699 27.4437 4.98783 27.1639 4.79902 26.9509C2.27733 24.1061 0.761963 20.4558 0.761963 16.4752C0.761963 7.39319 8.65028 0.0307617 18.381 0.0307617C28.1117 0.0307617 36.0001 7.39319 36.0001 16.4752ZM29.6798 20.1039C29.9778 19.0868 30.1268 17.9953 30.1268 16.8542C30.1268 15.862 30.0027 14.9193 29.8537 14.0263C29.6302 13.158 29.3073 12.3146 28.91 11.5208C28.5624 10.851 28.165 10.206 27.6932 9.61064C27.6551 9.56501 27.6171 9.51704 27.5783 9.46817C27.4906 9.35765 27.3992 9.24252 27.2959 9.13931C27.2586 9.0897 27.2152 9.04628 27.1717 9.00287C27.1282 8.95946 27.0848 8.91605 27.0475 8.86643L26.675 8.49433C25.7811 7.60128 24.7381 6.85708 23.5957 6.31133C23.5768 6.30185 23.5614 6.296 23.5483 6.291C23.5271 6.2829 23.5118 6.27705 23.4964 6.26172L22.9749 6.03845C22.919 6.01612 22.8644 5.9938 22.8105 5.97175C22.6248 5.89583 22.4472 5.82325 22.2548 5.76558C21.9071 5.64154 21.5346 5.54232 21.1621 5.44309C20.5413 5.29425 19.8708 5.19502 19.2003 5.14541C19.0761 5.1206 18.9271 5.1206 18.803 5.1206H18.4305C15.2518 5.1206 12.3464 6.38575 10.2356 8.44471C9.56508 9.06489 8.99392 9.78428 8.49726 10.5533C8.19926 11.0246 7.92609 11.5208 7.7026 12.0169C7.23077 13.034 6.90794 14.1255 6.75894 15.2914L6.68444 15.8868C6.65961 16.2093 6.63478 16.5317 6.63478 16.8542C6.63478 17.4248 6.68444 17.9705 6.75894 18.5163C6.78378 18.7892 6.83344 19.0372 6.88311 19.2853C6.95761 19.6326 7.05694 19.9799 7.15627 20.3272C7.30527 20.7985 7.4791 21.2698 7.67776 21.7164C7.71474 21.8272 7.76549 21.9243 7.81976 22.0281C7.83837 22.0637 7.8574 22.1001 7.87643 22.1381V22.1629C7.92609 22.3117 8.00059 22.4358 8.07508 22.5598L8.07509 22.5598C8.39792 23.1056 8.74559 23.6265 9.11808 24.0978C9.63958 24.7428 10.2107 25.3382 10.8316 25.8591C12.4954 27.2731 14.5565 28.2158 16.8412 28.5134C16.9902 28.5258 17.1454 28.5382 17.3006 28.5507C17.4558 28.5631 17.611 28.5755 17.76 28.5879C17.9586 28.6127 18.1821 28.6127 18.3808 28.6127C19.846 28.6127 21.2614 28.3398 22.5528 27.8437C23.9682 27.2979 25.2844 26.4793 26.377 25.4622C27.9167 24.0234 29.0839 22.1877 29.6798 20.1039Z" fill="white"/>
</g>
</svg>
