<svg width="6" height="26" viewBox="0 0 6 26" fill="none" xmlns="http://www.w3.org/2000/svg">
<path d="M5.81308 22.2835C5.81308 23.0543 5.50685 23.7936 4.96177 24.3387C4.41669 24.8838 3.6774 25.19 2.90654 25.19C2.13568 25.19 1.39639 24.8838 0.851305 24.3387C0.306223 23.7936 0 23.0543 0 22.2835C0 21.5126 0.306223 20.7733 0.851305 20.2282C1.39639 19.6831 2.13568 19.3769 2.90654 19.3769C3.6774 19.3769 4.41669 19.6831 4.96177 20.2282C5.50685 20.7733 5.81308 21.5126 5.81308 22.2835ZM5.81308 12.595C5.81308 13.3659 5.50685 14.1052 4.96177 14.6502C4.41669 15.1953 3.6774 15.5015 2.90654 15.5015C2.13568 15.5015 1.39639 15.1953 0.851305 14.6502C0.306223 14.1052 0 13.3659 0 12.595C0 11.8241 0.306223 11.0848 0.851305 10.5398C1.39639 9.99469 2.13568 9.68846 2.90654 9.68846C3.6774 9.68846 4.41669 9.99469 4.96177 10.5398C5.50685 11.0848 5.81308 11.8241 5.81308 12.595V12.595ZM5.81308 2.90654C5.81308 3.6774 5.50685 4.41669 4.96177 4.96177C4.41669 5.50685 3.6774 5.81308 2.90654 5.81308C2.13568 5.81308 1.39639 5.50685 0.851305 4.96177C0.306223 4.41669 0 3.6774 0 2.90654C0 2.13568 0.306223 1.39639 0.851305 0.851306C1.39639 0.306224 2.13568 0 2.90654 0C3.6774 0 4.41669 0.306224 4.96177 0.851306C5.50685 1.39639 5.81308 2.13568 5.81308 2.90654V2.90654Z" fill="#0053C8"/>
</svg>
