<svg width="6" height="24" viewBox="0 0 6 24" fill="none" xmlns="http://www.w3.org/2000/svg">
<path d="M5.35154 21.0142C5.35154 21.7239 5.06963 22.4045 4.56782 22.9063C4.06602 23.4081 3.38543 23.69 2.67577 23.69C1.96611 23.69 1.28552 23.4081 0.783714 22.9063C0.28191 22.4045 0 21.7239 0 21.0142C0 20.3046 0.28191 19.624 0.783714 19.1222C1.28552 18.6204 1.96611 18.3385 2.67577 18.3385C3.38543 18.3385 4.06602 18.6204 4.56782 19.1222C5.06963 19.624 5.35154 20.3046 5.35154 21.0142ZM5.35154 12.095C5.35154 12.8047 5.06963 13.4853 4.56782 13.9871C4.06602 14.4889 3.38543 14.7708 2.67577 14.7708C1.96611 14.7708 1.28552 14.4889 0.783714 13.9871C0.28191 13.4853 0 12.8047 0 12.095C0 11.3853 0.28191 10.7047 0.783714 10.2029C1.28552 9.70114 1.96611 9.41923 2.67577 9.41923C3.38543 9.41923 4.06602 9.70114 4.56782 10.2029C5.06963 10.7047 5.35154 11.3853 5.35154 12.095ZM5.35154 3.17577C5.35154 3.88543 5.06963 4.56602 4.56782 5.06782C4.06602 5.56963 3.38543 5.85154 2.67577 5.85154C1.96611 5.85154 1.28552 5.56963 0.783714 5.06782C0.28191 4.56602 0 3.88543 0 3.17577C0 2.46611 0.28191 1.78552 0.783714 1.28371C1.28552 0.781911 1.96611 0.5 2.67577 0.5C3.38543 0.5 4.06602 0.781911 4.56782 1.28371C5.06963 1.78552 5.35154 2.46611 5.35154 3.17577Z" fill="white"/>
</svg>
