<svg width="45" height="45" viewBox="0 0 45 45" fill="none" xmlns="http://www.w3.org/2000/svg">
<path d="M23.4447 21.6436C23.9094 21.7235 24.542 21.9433 24.8001 22.0432H25.381C25.5746 22.0432 26.6396 22.8426 26.8333 23.3422C27.0269 23.8418 27.6078 23.3422 28.0919 23.3422C28.576 23.3422 27.4142 25.0409 27.0269 25.4406C26.6396 25.8402 27.3173 26.6396 27.4142 26.8394C27.511 27.0393 27.1237 27.339 27.0269 28.1384C26.9301 28.9378 26.6396 30.0369 26.446 30.7364C26.2911 31.2959 25.5424 31.7689 25.1874 31.9354C25.0583 32.002 24.7227 32.0153 24.4128 31.5357C24.0255 30.9362 23.8319 29.937 23.7351 29.5373C23.6383 29.1376 24.5097 27.0393 22.767 26.8394C21.0243 26.6396 21.9925 28.3383 19.7657 26.6396C17.5389 24.9409 20.0561 21.6436 20.2498 21.3438C20.4434 21.044 20.9275 21.3438 21.7988 21.044C22.4959 20.8042 23.1865 20.9441 23.4447 21.044C23.2511 21.2106 22.98 21.5636 23.4447 21.6436Z" fill="#0053C8"/>
<path d="M10.9491 25.8783C11.0452 25.6036 10.5888 24.6953 10.3486 24.2756C10.5488 24.0084 11.0452 23.5429 11.4294 23.8176C11.9098 24.1611 13.3509 23.3597 13.8313 23.4742C14.3116 23.5887 15.3924 23.7032 15.5125 24.0466C15.6326 24.3901 15.6326 25.1914 15.8728 25.5349C16.0649 25.8097 15.8728 26.5652 15.7527 26.9087C15.7127 27.0232 15.5606 27.275 15.2723 27.3666C14.9121 27.4811 15.7527 27.4811 16.4732 27.7101C17.1938 27.9391 16.7134 29.0839 16.9536 29.6563C17.1938 30.2287 18.5148 31.2591 18.755 31.488C18.9952 31.717 18.755 32.0605 18.5148 31.946C18.2746 31.8315 15.6326 29.7708 14.4317 29.5418C13.471 29.3586 11.7097 27.5574 10.9491 26.6797C10.9091 26.5271 10.853 26.1531 10.9491 25.8783Z" fill="#0053C8"/>
<path d="M32.0461 25.4823C32.4127 25.4823 32.7079 24.8714 32.8097 24.566C32.9366 24.2606 33.2679 24.2606 33.4206 24.4133C33.5733 24.566 33.4206 26.2459 32.9624 27.0094C32.5043 27.773 32.0461 27.6203 31.7408 27.6203C31.4354 27.6203 31.7407 27.0094 32.0461 26.704C32.3516 26.3986 31.588 25.4823 32.0461 25.4823Z" fill="#0053C8"/>
<path d="M28.963 18.5138C29.1157 18.4629 29.4211 18.239 29.4211 17.7504C29.4211 17.1396 29.4211 16.6816 28.6577 16.6816H26.8254C26.3674 16.6816 24.6878 16.2235 25.1459 15.7654C25.6039 15.3074 25.4512 15.002 25.1459 15.002C24.8405 15.002 23.619 14.2386 23.9244 15.002C24.2298 15.7654 24.8406 16.6816 24.3825 16.6816C23.9244 16.6816 22.3976 16.0708 22.7029 15.7654C23.0083 15.4601 22.5503 15.002 21.7869 15.002H19.8019C19.3439 15.002 20.26 15.9182 21.1761 16.0709C22.0923 16.2236 22.3976 16.8343 21.7869 16.987C21.1761 17.1397 21.0234 18.5137 20.8707 17.7504C20.7181 16.987 21.3288 17.2922 20.4127 16.6816C19.4966 16.0709 19.0385 15.46 18.5804 15.7654C18.1224 16.0709 16.7482 16.8344 16.9009 17.2924C17.0536 17.7504 16.2901 20.0407 15.8321 20.3461C15.374 20.6515 14.1525 21.5676 13.5418 20.9569C12.931 20.3461 12.3203 21.1095 12.3203 20.3461C12.3203 19.5827 11.7095 19.2772 12.3203 18.5138C12.931 17.7504 13.2363 16.8344 13.8471 17.2924C14.4578 17.7504 14.6104 16.6816 15.2213 16.6816C15.8317 16.6816 15.3745 16.3767 14.9167 16.0714L14.9159 16.0709C14.5535 15.8293 14.9576 15.7668 15.2127 15.7655C15.2432 15.7191 15.393 15.5289 15.8321 15.002C16.5954 14.086 16.1375 13.3225 16.9009 13.1698C17.6642 13.0172 18.2751 12.8645 18.5804 12.5591C18.8857 12.2537 19.1912 11.7957 18.5804 11.7957C17.9696 11.7957 17.5117 12.101 16.9009 11.7957C16.2901 11.4903 16.9009 11.3376 16.9009 11.0322C16.9009 10.7269 17.6644 9.81073 18.5804 9.50536C19.4965 9.19998 20.8708 8.28386 21.7869 8.74192C22.7029 9.19998 22.2448 9.35281 23.3137 9.04736C24.3825 8.74192 24.5352 8.74199 24.8405 7.97856C25.0848 7.36781 25.7178 7.08057 26.125 6.87699C26.5503 6.45169 31.0005 8.02621 32.6276 9.50536C34.3071 11.0322 36.1394 12.7117 37.6662 17.2924C38.1548 18.7582 37.6662 21.5677 37.3609 22.7892C37.4627 21.1605 37.4525 17.781 36.5974 17.2924C35.7424 16.8037 35.1215 16.8852 34.9179 16.987C34.7652 17.0887 34.2766 17.1701 33.5437 16.6816C32.6276 16.0709 32.1695 16.3761 33.5437 17.7504C34.643 18.8498 35.1215 18.5139 35.2232 18.2086C35.5286 18.463 36.0478 19.0636 35.6813 19.4301C35.2233 19.8881 33.391 20.9569 32.6276 20.9569C31.8641 20.9569 31.2534 18.5138 30.49 18.5138C29.8792 18.5138 29.8283 18.8193 29.8792 18.972L28.963 18.5138Z" fill="#0053C8"/>
<path fill-rule="evenodd" clip-rule="evenodd" d="M44.9563 20.9796C44.9563 32.5663 34.8925 41.9592 22.4781 41.9592C20.3268 41.9592 18.246 41.6771 16.276 41.1504C16.0236 41.0829 15.7551 41.1122 15.5226 41.2316C13.7769 42.1279 10.2642 43.6156 4.6568 44.6463C3.87058 44.7908 3.25082 43.9789 3.53378 43.2312C4.41402 40.9054 5.19253 37.9627 5.49054 35.2113C5.52119 34.9283 5.42257 34.6484 5.23254 34.4365C1.96622 30.7939 0 26.1011 0 20.9796C0 9.39289 10.0638 0 22.4781 0C34.8925 0 44.9563 9.39289 44.9563 20.9796ZM36.8944 25.6096C37.2746 24.312 37.4646 22.9195 37.4646 21.4636C37.4646 20.1977 37.3062 18.9951 37.1161 17.8557C36.831 16.7481 36.4191 15.672 35.9122 14.6593C35.4687 13.8048 34.9618 12.9819 34.3598 12.2224C34.3113 12.1641 34.2627 12.103 34.2132 12.0406C34.1013 11.8996 33.9847 11.7527 33.8529 11.6211C33.8054 11.5578 33.75 11.5024 33.6945 11.447C33.6391 11.3916 33.5836 11.3362 33.5361 11.2729L33.0609 10.7982C31.9204 9.65886 30.5897 8.70941 29.1324 8.01315C29.1082 8.00106 29.0886 7.99359 29.0719 7.98721C29.0448 7.97689 29.0252 7.96942 29.0056 7.94986L28.3403 7.66502C28.269 7.63653 28.1993 7.60805 28.1305 7.57992C27.8936 7.48306 27.6671 7.39047 27.4216 7.31689C26.978 7.15865 26.5028 7.03206 26.0276 6.90546C25.2355 6.71558 24.3801 6.58898 23.5247 6.52569C23.3663 6.49404 23.1762 6.49404 23.0178 6.49404H22.5426C18.4873 6.49404 14.7806 8.10809 12.0876 10.7349C11.2322 11.5261 10.5036 12.4439 9.86992 13.425C9.48974 14.0263 9.14124 14.6593 8.85611 15.2922C8.25416 16.5898 7.8423 17.9823 7.65221 19.4698L7.55716 20.2294C7.52548 20.6408 7.4938 21.0522 7.4938 21.4636C7.4938 22.1915 7.55716 22.8878 7.65221 23.5841C7.68389 23.9322 7.74725 24.2487 7.81062 24.5652C7.90566 25.0082 8.03238 25.4513 8.15911 25.8944C8.3492 26.4957 8.57097 27.097 8.82443 27.6667C8.87161 27.8081 8.93635 27.9319 9.00558 28.0643C9.02933 28.1098 9.0536 28.1562 9.07788 28.2047V28.2364C9.14124 28.4263 9.23629 28.5845 9.33133 28.7427C9.74319 29.439 10.1867 30.1036 10.662 30.7049C11.3273 31.5278 12.056 32.2873 12.848 32.9519C14.9707 34.7559 17.6002 35.9585 20.515 36.3383C20.705 36.3541 20.9031 36.3699 21.1011 36.3858C21.2991 36.4016 21.4971 36.4174 21.6872 36.4332C21.9406 36.4649 22.2258 36.4649 22.4792 36.4649C24.3484 36.4649 26.1543 36.1168 27.8017 35.4838C29.6076 34.7875 31.2867 33.7431 32.6807 32.4456C34.645 30.61 36.134 28.268 36.8944 25.6096Z" fill="#0053C8"/>
</svg>
