<svg width="37" height="37" viewBox="0 0 37 37" fill="none" xmlns="http://www.w3.org/2000/svg">
<path id="Vector" d="M18.5 0C19.1133 0 19.7015 0.243638 20.1352 0.677316C20.5689 1.11099 20.8125 1.69919 20.8125 2.3125V16.1875L34.6875 16.1875C35.3008 16.1875 35.889 16.4311 36.3227 16.8648C36.7564 17.2985 37 17.8867 37 18.5C37 19.1133 36.7564 19.7015 36.3227 20.1352C35.889 20.5689 35.3008 20.8125 34.6875 20.8125L20.8125 20.8125L20.8125 34.6875C20.8125 35.3008 20.5689 35.889 20.1352 36.3227C19.7015 36.7564 19.1133 37 18.5 37C17.8867 37 17.2985 36.7564 16.8648 36.3227C16.4311 35.889 16.1875 35.3008 16.1875 34.6875L16.1875 20.8125H2.3125C1.69919 20.8125 1.11099 20.5689 0.677316 20.1352C0.243638 19.7015 0 19.1133 0 18.5C0 17.8867 0.243638 17.2985 0.677316 16.8648C1.11099 16.4311 1.69919 16.1875 2.3125 16.1875H16.1875V2.3125C16.1875 1.69919 16.4311 1.11099 16.8648 0.677316C17.2985 0.243638 17.8867 0 18.5 0Z" fill="white"/>
</svg>
