<svg width="32" height="32" viewBox="0 0 32 32" fill="none" xmlns="http://www.w3.org/2000/svg">
<path fill-rule="evenodd" clip-rule="evenodd" d="M9.57925 20.8178L10.8039 15.0838C10.9822 14.287 11.3838 13.5577 11.9615 12.9819L23.1513 1.86697C24.286 0.708355 25.8266 0.0387812 27.446 0.000471773C28.6673 -0.0170683 29.845 0.455113 30.7174 1.31207C32.6235 3.56946 32.3774 6.94052 30.1638 8.89577L18.974 20.1116C18.3995 20.6906 17.6719 21.0931 16.8769 21.2718L11.1562 22.4994H10.8375C10.4193 22.5154 10.0198 22.3247 9.7687 21.9891C9.51759 21.6535 9.44678 21.2157 9.57925 20.8178ZM13.7398 14.7811C13.5047 15.0094 13.3414 15.3017 13.27 15.6219L12.448 19.5399L16.3569 18.6991C16.6763 18.6275 16.9679 18.4639 17.1957 18.2283L28.3855 7.01245C29.6113 6.0288 29.8545 4.25555 28.9391 2.97678C28.5382 2.5929 28.0001 2.38685 27.446 2.40506C26.4907 2.44351 25.588 2.85369 24.9296 3.5485L13.7398 14.7811Z" fill="#3882EA"/>
<path d="M29.9121 13.52C29.221 13.529 28.6629 14.0884 28.6539 14.7811V24.349C28.6764 25.7015 28.1561 27.0063 27.2098 27.9706C26.2635 28.9349 24.9705 29.4779 23.621 29.4777H7.63321C4.84393 29.4229 2.60891 27.1453 2.60032 24.349V8.39131C2.64612 5.59171 4.92361 3.34634 7.71709 3.34672H17.2628C17.9577 3.34672 18.521 2.78208 18.521 2.08557C18.521 1.38906 17.9577 0.824422 17.2628 0.824422H7.63321C3.45005 0.824169 0.0459688 4.19867 0 8.39131V24.349C0 28.5745 3.41751 32 7.63321 32H23.5539C27.7631 31.9907 31.1703 28.568 31.1703 24.349V14.7811C31.1613 14.0884 30.6032 13.529 29.9121 13.52Z" fill="#3882EA"/>
</svg>
