<svg width="30" height="28" viewBox="0 0 30 28" fill="none" xmlns="http://www.w3.org/2000/svg">
<path d="M14.1769 27.4269C13.5502 27.4271 12.9481 27.1829 12.4986 26.746L1.41528 15.6627C0.489178 14.7355 0.489178 13.2333 1.41528 12.306L12.4986 1.22272C13.1011 0.623105 13.9776 0.390439 14.7981 0.612361C15.6186 0.834283 16.2584 1.47708 16.4764 2.29861C16.6945 3.12014 16.4577 3.9956 15.8553 4.59522L8.83723 11.6251H26.9068C28.2185 11.6251 29.2818 12.6884 29.2818 14.0001C29.2818 15.3118 28.2185 16.3751 26.9068 16.3751H8.84501L15.8553 23.3735C16.5336 24.0528 16.7364 25.0735 16.3692 25.9605C16.0019 26.8474 15.1369 27.426 14.1769 27.4269Z" fill="white"/>
</svg>
