<svg width="26" height="29" viewBox="0 0 26 29" fill="none" xmlns="http://www.w3.org/2000/svg">
<path d="M13.7257 3.69675L14.8023 2.62008C15.1924 2.20144 15.1809 1.54907 14.7763 1.14445C14.3717 0.739835 13.7193 0.728324 13.3007 1.11842L10.4673 3.95175C10.053 4.36657 10.053 5.03859 10.4673 5.45342L13.3007 8.28675C13.7155 8.70106 14.3875 8.70106 14.8023 8.28675C15.2166 7.87192 15.2166 7.19991 14.8023 6.78508L13.8673 5.85008C18.6378 6.44099 22.3555 10.2698 22.8057 15.0556C23.2559 19.8414 20.3174 24.2964 15.7409 25.7666C11.1643 27.2368 6.18109 25.3266 3.75989 21.174C1.33869 17.0213 2.13101 11.7437 5.66483 8.48508C6.00728 8.07789 5.99575 7.48018 5.63786 7.0865C5.27996 6.69281 4.68605 6.62454 4.24816 6.92675C-0.061079 10.896 -1.00298 17.3402 1.98995 22.3767C4.98288 27.4132 11.0933 29.6666 16.6396 27.7792C22.186 25.8918 25.6536 20.379 24.9532 14.5623C24.2528 8.74567 19.5757 4.21361 13.7398 3.69675H13.7257Z" fill="#3882EA"/>
</svg>
