<svg width="43" height="43" viewBox="0 0 43 43" fill="none" xmlns="http://www.w3.org/2000/svg">
<g id="Interface essential/Bookmark">
<path id="Icon" fill-rule="evenodd" clip-rule="evenodd" d="M15.1575 5.69119H27.8424C29.3328 5.61501 30.7933 6.11445 31.9017 7.07927C33.01 8.04409 33.675 9.39497 33.75 10.8338V35.4273C33.752 35.9198 33.5389 36.3904 33.1629 36.7233C32.7869 37.0563 32.2829 37.2208 31.7747 37.1765C31.3294 37.1765 30.8964 37.0351 30.5425 36.7742L22.696 31.0194C21.955 30.4829 20.9362 30.4829 20.1953 31.0194L12.4212 36.7742C12.0772 37.028 11.6582 37.169 11.2252 37.1765C10.7171 37.2208 10.2131 37.0563 9.83707 36.7233C9.46108 36.3904 9.24794 35.9198 9.25001 35.4273V10.8338C9.32496 9.39497 9.98998 8.04409 11.0983 7.07927C12.2066 6.11445 13.6672 5.61501 15.1575 5.69119ZM24.3813 28.9378L30.9955 33.8355L30.9593 10.8338C30.7878 9.30878 29.3903 8.19238 27.8062 8.31496H15.1213C13.5372 8.19238 12.1397 9.30878 11.9682 10.8338V33.8355L18.5825 28.9378C20.2951 27.6782 22.6686 27.6782 24.3813 28.9378Z" fill="#3882EA"/>
</g>
</svg>
