<svg width="21" height="27" viewBox="0 0 21 27" fill="none" xmlns="http://www.w3.org/2000/svg">
<path fill-rule="evenodd" clip-rule="evenodd" d="M4.96984 0.506387H15.6412C16.8951 0.442306 18.1238 0.862466 19.0562 1.67414C19.9886 2.48581 20.548 3.62227 20.6111 4.8327V25.5225C20.6128 25.9368 20.4335 26.3327 20.1172 26.6128C19.8009 26.8929 19.3769 27.0313 18.9494 26.994C18.5747 26.994 18.2105 26.8751 17.9127 26.6556L11.3117 21.8142C10.6884 21.3629 9.83126 21.3629 9.20791 21.8142L2.66786 26.6556C2.37847 26.8691 2.02591 26.9877 1.6617 26.994C1.23419 27.0313 0.810195 26.8929 0.493887 26.6128C0.177579 26.3327 -0.00172977 25.9368 1.25805e-05 25.5225V4.8327C0.0630599 3.62227 0.622522 2.48581 1.55493 1.67414C2.48733 0.862466 3.71603 0.442306 4.96984 0.506387ZM12.7295 20.0631L18.2939 24.1834L18.2634 4.8327C18.1191 3.54976 16.9434 2.61056 15.6108 2.71369H4.93935C3.60671 2.61056 2.43101 3.54976 2.28674 4.8327V24.1834L7.85112 20.0631C9.29195 19.0034 11.2887 19.0034 12.7295 20.0631Z" fill="white"/>
</svg>
