<svg width="27" height="29" viewBox="0 0 27 29" fill="none" xmlns="http://www.w3.org/2000/svg">
<path fill-rule="evenodd" clip-rule="evenodd" d="M1.75416 8.86504C3.77461 4.01348 8.50862 0.847716 13.7641 0.833679C19.4282 0.803852 24.4646 4.43191 26.2302 9.81388C27.9958 15.1959 26.0873 21.1023 21.5063 24.4335C16.9252 27.7647 10.7181 27.7597 6.1424 24.4212L2.0624 28.5012C1.64757 28.9155 0.975557 28.9155 0.560732 28.5012C0.146423 28.0864 0.146423 27.4143 0.560732 26.9995L4.51323 23.047C0.821261 19.3068 -0.266296 13.7166 1.75416 8.86504ZM3.64846 18.073C5.34488 22.161 9.33802 24.8236 13.7641 24.8178V24.7612C19.7711 24.7535 24.6477 19.9023 24.6866 13.8953C24.6923 9.46931 22.0298 5.47616 17.9417 3.77974C13.8537 2.08332 9.1462 3.01811 6.01652 6.1478C2.88683 9.27748 1.95204 13.985 3.64846 18.073Z" fill="#3882EA"/>
</svg>
