<svg width="29" height="27" viewBox="0 0 29 27" fill="none" xmlns="http://www.w3.org/2000/svg">
<path d="M1.29535 6.48384C0.452318 6.69659 0.213718 7.7803 0.889449 8.32743L1.14878 8.53741L9.95042 15.814L15.5881 25.7455L15.7498 26.0373C16.1713 26.7978 17.28 26.751 17.6359 25.9577L28.1997 2.06634C28.6462 1.05168 27.7349 -0.0342987 26.6582 0.229179L1.29535 6.48384ZM4.85744 8.8461C4.5897 8.62513 4.45584 8.51465 4.48319 8.39447C4.51054 8.27429 4.67904 8.23263 5.01604 8.1493L20.467 4.32883C21.128 4.16539 21.4585 4.08366 21.5305 4.22534C21.6025 4.36701 21.3417 4.58586 20.8201 5.02356L11.8832 12.5225C11.2735 13.0341 10.9686 13.2899 10.607 13.2914C10.2453 13.2929 9.93838 13.0395 9.32454 12.5329L4.85744 8.8461ZM12.2525 15.552L22.4644 6.98319C22.986 6.5455 23.2469 6.32665 23.3739 6.42217C23.5009 6.5177 23.363 6.82899 23.0873 7.45159L16.6418 22.0044C16.5012 22.3218 16.4309 22.4805 16.3078 22.4865C16.1847 22.4926 16.0992 22.3416 15.9281 22.0396L12.2525 15.552Z" fill="white"/>
</svg>
