<svg width="24" height="22" viewBox="0 0 24 22" fill="none" xmlns="http://www.w3.org/2000/svg">
<path fill-rule="evenodd" clip-rule="evenodd" d="M20.6761 7.55453C20.8973 8.07547 21.4214 8.41626 22.004 8.4179C22.7948 8.42406 23.4324 9.04537 23.4324 9.80966V12.2116C23.4324 12.9802 22.7877 13.6033 21.9924 13.6033C21.4098 13.605 20.8856 13.9458 20.6645 14.4667C20.4433 14.9876 20.5687 15.5861 20.9821 15.9828C21.5368 16.5321 21.5368 17.4088 20.9821 17.9582L19.2403 19.6418C18.6719 20.1779 17.7648 20.1779 17.1965 19.6418C16.9343 19.3733 16.5681 19.2228 16.1862 19.2265C15.8023 19.2235 15.433 19.3688 15.1605 19.6301C14.8879 19.8915 14.7346 20.2472 14.7346 20.6182C14.7346 21.3869 14.0899 22.01 13.2947 22.01H10.8096C10.0143 22.01 9.36963 21.3869 9.36963 20.6182C9.36965 20.2472 9.21634 19.8915 8.94378 19.6301C8.67122 19.3688 8.30198 19.2235 7.91807 19.2265C7.53614 19.2228 7.16995 19.3733 6.90778 19.6418C6.33941 20.1779 5.43236 20.1779 4.86399 19.6418L3.12211 17.9582C2.56746 17.4088 2.56746 16.5321 3.12211 15.9828C3.53557 15.5861 3.66096 14.9876 3.43977 14.4667C3.21859 13.9458 2.69442 13.605 2.11182 13.6033C1.72993 13.6033 1.36367 13.4567 1.09363 13.1957C0.823583 12.9347 0.671875 12.5807 0.671875 12.2116V9.80966C0.671875 9.04101 1.31656 8.4179 2.11182 8.4179C2.69442 8.41626 3.21859 8.07547 3.43977 7.55453C3.66096 7.03359 3.53557 6.43516 3.12211 6.03844C2.56746 5.48909 2.56746 4.61239 3.12211 4.06304L4.86399 2.37946C5.43236 1.84337 6.33941 1.84337 6.90778 2.37946C7.16995 2.64793 7.53614 2.79845 7.91807 2.79474C8.304 2.79776 8.67503 2.65092 8.94793 2.38715C9.22083 2.12338 9.37276 1.76477 9.36963 1.39176C9.36963 0.623112 10.0143 0 10.8096 0H13.3063C14.1015 0 14.7462 0.623112 14.7462 1.39176C14.7431 1.76477 14.895 2.12338 15.1679 2.38715C15.4408 2.65092 15.8119 2.79776 16.1978 2.79474C16.5797 2.79845 16.9459 2.64793 17.2081 2.37946C17.7764 1.84337 18.6835 1.84337 19.2519 2.37946L20.9937 4.06304C21.5484 4.61239 21.5484 5.48909 20.9937 6.03844C20.5803 6.43516 20.4549 7.03359 20.6761 7.55453ZM19.0196 13.8166C19.4729 12.7483 20.511 12.0187 21.7021 11.931L21.6673 10.0903C20.4891 9.9904 19.4673 9.26272 19.0196 8.20465C18.5811 7.14408 18.7819 5.93632 19.5422 5.06196L18.2067 3.77122C17.6404 4.22961 16.9248 4.48003 16.1862 4.47832C14.5405 4.47442 13.1653 3.26654 13.0043 1.68358H11.0999C10.9441 3.26906 9.56583 4.47966 7.91807 4.47832C7.1794 4.48003 6.46381 4.22961 5.8975 3.77122L4.5969 5.06196C5.34536 5.94299 5.5327 7.15014 5.08462 8.20465C4.63693 9.26272 3.61517 9.9904 2.43697 10.0903V11.931C3.61517 12.0308 4.63693 12.7585 5.08462 13.8166C5.52316 14.8771 5.32233 16.0849 4.56206 16.9593L5.8975 18.25C6.46381 17.7916 7.1794 17.5412 7.91807 17.5429C9.56373 17.5468 10.9389 18.7547 11.0999 20.3376H13.0043C13.1495 18.7471 14.5342 17.5309 16.1862 17.5429C16.9248 17.5412 17.6404 17.7916 18.2067 18.25L19.5073 16.9593C18.7589 16.0782 18.5715 14.8711 19.0196 13.8166Z" fill="white"/>
<path fill-rule="evenodd" clip-rule="evenodd" d="M8.0342 11.0106C8.0342 8.86584 9.83308 7.12715 12.0521 7.12715C13.1177 7.12715 14.1397 7.5363 14.8932 8.26459C15.6467 8.99288 16.07 9.98065 16.07 11.0106C16.07 13.1554 14.2712 14.8941 12.0521 14.8941C9.83308 14.8941 8.0342 13.1554 8.0342 11.0106ZM9.72962 11.0106C9.72962 12.2504 10.7694 13.2554 12.0521 13.2554C13.3348 13.2554 14.3746 12.2504 14.3746 11.0106C14.3746 9.77086 13.3348 8.76584 12.0521 8.76584C10.7694 8.76584 9.72962 9.77086 9.72962 11.0106Z" fill="white"/>
</svg>
