<svg width="28" height="34" viewBox="0 0 28 34" fill="none" xmlns="http://www.w3.org/2000/svg">
<path d="M21.7334 33.6666H6.26674C4.58203 33.6053 3.01269 32.795 1.98732 31.4568C0.961952 30.1187 0.587686 28.3926 0.966742 26.7499L1.36674 24.8499C1.8268 22.2779 4.03778 20.3878 6.65008 20.3333H21.3501C23.9624 20.3878 26.1734 22.2779 26.6334 24.8499L27.0334 26.7499C27.4125 28.3926 27.0382 30.1187 26.0128 31.4568C24.9875 32.795 23.4181 33.6053 21.7334 33.6666Z" fill="#3882EA"/>
<path d="M14.8334 16.9999H13.1667C9.48484 16.9999 6.50008 14.0152 6.50008 10.3333V5.93328C6.49563 4.44671 7.0842 3.01974 8.13537 1.96857C9.18654 0.917404 10.6135 0.328833 12.1001 0.333277H15.9001C17.3866 0.328833 18.8136 0.917404 19.8648 1.96857C20.9159 3.01974 21.5045 4.44671 21.5001 5.93328V10.3333C21.5001 12.1014 20.7977 13.7971 19.5475 15.0473C18.2972 16.2976 16.6015 16.9999 14.8334 16.9999Z" fill="#3882EA"/>
</svg>
