<svg width="19" height="19" viewBox="0 0 19 19" fill="none" xmlns="http://www.w3.org/2000/svg">
<path d="M1.41721 1.41721C1.69625 1.13816 2.07472 0.98139 2.46936 0.98139C2.86399 0.98139 3.24246 1.13816 3.52151 1.41721L9.83441 7.73011L16.1473 1.41721C16.4264 1.13816 16.8048 0.98139 17.1995 0.98139C17.5941 0.98139 17.9726 1.13816 18.2516 1.41721C18.5307 1.69625 18.6874 2.07472 18.6874 2.46936C18.6874 2.86399 18.5307 3.24246 18.2516 3.52151L11.9387 9.83441L18.2516 16.1473C18.5307 16.4264 18.6874 16.8048 18.6874 17.1995C18.6874 17.5941 18.5307 17.9726 18.2516 18.2516C17.9726 18.5307 17.5941 18.6874 17.1995 18.6874C16.8048 18.6874 16.4264 18.5307 16.1473 18.2516L9.83441 11.9387L3.52151 18.2516C3.24246 18.5307 2.86399 18.6874 2.46936 18.6874C2.07472 18.6874 1.69625 18.5307 1.41721 18.2516C1.13816 17.9726 0.981391 17.5941 0.981391 17.1995C0.981391 16.8048 1.13816 16.4264 1.41721 16.1473L7.73011 9.83441L1.41721 3.52151C1.13816 3.24246 0.981391 2.86399 0.981391 2.46936C0.981391 2.07472 1.13816 1.69625 1.41721 1.41721V1.41721Z" fill="white"/>
</svg>
