<svg width="493" height="493" viewBox="0 0 493 493" fill="none" xmlns="http://www.w3.org/2000/svg">
<path d="M258.075 227.195L261.238 224.475L257.347 222.969C254.171 221.739 246.144 220.128 237.982 222.936C233.722 224.402 230.437 224.407 227.765 224.407C227.711 224.407 227.658 224.407 227.603 224.407C226.375 224.407 225.003 224.406 223.811 224.665C222.402 224.971 221.043 225.674 220.085 227.158C219.976 227.326 219.777 227.612 219.502 228.005C217.442 230.961 211.158 239.973 207.496 250.459C205.414 256.421 204.095 263.068 204.961 269.529C205.84 276.079 208.953 282.313 215.477 287.29C221.462 291.855 225.576 294.364 228.681 295.393C230.286 295.925 231.75 296.108 233.134 295.889C234.534 295.668 235.625 295.07 236.516 294.413C237.125 293.964 237.748 293.397 238.272 292.919C238.438 292.768 238.595 292.625 238.737 292.498C239.405 291.906 240.053 291.387 240.833 290.956C242.314 290.136 244.624 289.44 248.892 289.929C253.003 290.401 255.221 291.924 256.502 293.719C257.853 295.612 258.427 298.176 258.487 301.157C258.547 304.123 258.097 307.203 257.658 309.954C257.627 310.151 257.595 310.348 257.564 310.543C257.382 311.672 257.207 312.765 257.098 313.701C256.981 314.704 256.881 315.941 257.129 316.964C257.25 317.461 257.389 318.07 257.549 318.764C258.042 320.915 258.725 323.893 259.624 326.984C260.81 331.064 262.448 335.634 264.726 339.161C268.536 345.059 273.41 345.756 276.231 344.336C278.301 343.361 281.426 341.544 284.285 339.163C287.101 336.817 290.002 333.642 291.038 329.9C293.107 322.424 296.275 310.462 297.339 301.675C297.811 297.78 298.98 295.117 299.962 293.089C300.05 292.909 300.141 292.724 300.233 292.535C300.626 291.737 301.043 290.889 301.303 290.151C301.637 289.203 301.959 287.798 301.26 286.355C300.985 285.788 300.424 284.938 299.878 284.112C299.727 283.883 299.577 283.656 299.435 283.437C298.687 282.287 297.88 280.987 297.237 279.659C296.581 278.306 296.179 277.09 296.101 276.099C296.028 275.178 296.237 274.614 296.653 274.185C298.918 271.846 303.187 266.037 306.228 260.852C307.738 258.277 309.078 255.637 309.672 253.539C309.948 252.564 310.203 251.253 309.847 250.034C309.645 249.341 309.225 248.618 308.48 248.099C307.757 247.594 306.959 247.444 306.277 247.444C304.589 247.444 302.931 247.874 301.528 248.31C300.852 248.52 300.28 248.714 299.752 248.893C299.039 249.135 298.406 249.35 297.706 249.54C296.549 249.855 295.957 249.861 295.67 249.786C295.667 249.785 295.664 249.784 295.66 249.784C295.597 249.771 295.379 249.728 295.112 249.04C294.428 247.276 293.084 245.466 291.626 243.839C290.13 242.169 288.349 240.512 286.595 239.05C284.841 237.588 283.068 236.283 281.567 235.328C280.82 234.853 280.102 234.44 279.462 234.136C278.948 233.891 278.087 233.515 277.208 233.515H271.441C268.398 232.363 261.849 230.122 256.869 229.265C256.666 229.23 256.504 229.193 256.376 229.157C256.479 228.972 256.628 228.744 256.834 228.482C257.204 228.011 257.657 227.555 258.075 227.195Z" fill="white" stroke="black" stroke-width="5"/>
<path d="M113.978 258.459L112.993 259.773L113.809 261.199C115.062 263.39 116.879 266.857 118.246 270.104C118.931 271.733 119.474 273.238 119.785 274.463C119.94 275.076 120.022 275.562 120.049 275.925C120.069 276.211 120.048 276.336 120.047 276.349C119.391 278.243 119.291 280.332 119.373 282.051C119.456 283.804 119.741 285.389 119.999 286.372L120.147 286.935L120.528 287.375C124.66 292.143 131.496 299.406 138.624 305.745C142.187 308.913 145.863 311.887 149.34 314.208C152.763 316.492 156.214 318.297 159.294 318.885C162.114 319.422 166.015 321.103 170.485 323.52C174.898 325.905 179.657 328.889 184.135 331.862C188.608 334.832 192.766 337.767 195.983 340.048C196.233 340.225 196.477 340.398 196.716 340.567C198.008 341.484 199.133 342.282 200.028 342.903C200.994 343.574 201.919 344.203 202.47 344.466C205.177 345.756 207.76 344.338 208.91 342.42C210.121 340.4 210.027 337.568 207.847 335.489C207.263 334.933 206.174 334.006 204.873 332.898C204.592 332.658 204.3 332.41 204.002 332.155C202.277 330.683 200.212 328.903 198.153 327.016C196.089 325.124 194.064 323.154 192.412 321.304C190.716 319.405 189.585 317.821 189.11 316.689C188.671 315.641 188.5 314.147 188.5 312.151C188.5 311.181 188.538 310.169 188.579 309.098L188.58 309.081C188.619 308.033 188.661 306.926 188.661 305.841C188.661 303.707 188.508 301.344 187.674 299.283C186.78 297.073 185.123 295.266 182.411 294.404C179.578 293.504 176.587 292.918 174.135 292.495C175.288 291.225 175.983 289.889 176.288 289.018C176.97 287.067 177.854 283.963 178.301 280.914C178.524 279.391 178.651 277.8 178.56 276.334C178.472 274.922 178.167 273.32 177.264 272.029C176.857 271.447 176.466 270.533 176.116 269.265C175.772 268.023 175.507 266.6 175.27 265.094C175.155 264.361 175.049 263.627 174.943 262.892L174.936 262.842C174.828 262.097 174.72 261.349 174.605 260.636C174.383 259.248 174.114 257.827 173.712 256.677C173.041 254.759 171.259 253.615 169.805 252.912C168.224 252.147 166.297 251.561 164.39 251.087C162.462 250.607 160.428 250.212 158.596 249.867C158.341 249.819 158.091 249.772 157.847 249.726C156.294 249.434 154.951 249.182 153.903 248.932C152.845 248.68 151.705 248.713 150.653 248.839C149.574 248.967 148.409 249.217 147.232 249.517C145.62 249.929 143.818 250.483 142.036 251.03C141.258 251.269 140.485 251.506 139.732 251.731C137.165 252.495 134.768 253.129 132.745 253.37C130.61 253.625 129.505 253.358 129.022 253.014C125.773 250.691 122.23 251.725 119.77 253.166C117.28 254.624 115.178 256.856 113.978 258.459Z" fill="white" stroke="black" stroke-width="5"/>
<path d="M354.508 262.118L354.474 262.201L354.445 262.286C353.952 263.765 352.982 265.991 351.733 267.792C351.11 268.691 350.482 269.39 349.891 269.843C349.304 270.294 348.892 270.401 348.63 270.401C347.64 270.401 346.421 270.65 345.513 271.638C344.632 272.597 344.499 273.765 344.52 274.553C344.541 275.358 344.732 276.175 344.933 276.873C345.14 277.593 345.409 278.354 345.662 279.063L345.7 279.168C346.223 280.634 346.674 281.896 346.855 282.982C346.944 283.518 346.94 283.868 346.905 284.076C346.888 284.171 346.869 284.216 346.863 284.229C346.862 284.231 346.862 284.232 346.861 284.233C344.997 286.097 343.167 288.835 342.216 291.211C341.769 292.329 341.347 293.774 341.555 295.129C341.67 295.877 342.007 296.76 342.8 297.437C343.592 298.113 344.536 298.323 345.356 298.323C345.676 298.323 346.036 298.343 346.501 298.372C346.538 298.375 346.576 298.377 346.615 298.38C347.033 298.406 347.521 298.437 348.029 298.45C349.156 298.479 350.499 298.426 351.949 298.03C354.967 297.207 357.897 295.062 360.598 290.56C363.318 286.026 365.01 279.07 365.841 273.254C366.263 270.303 366.48 267.521 366.48 265.328C366.48 264.24 366.427 263.23 366.298 262.39C366.233 261.972 366.141 261.533 366 261.121C365.874 260.756 365.632 260.17 365.134 259.672C363.708 258.246 361.587 257.625 359.588 257.949C357.469 258.292 355.52 259.682 354.508 262.118Z" fill="white" stroke="black" stroke-width="5"/>
<mask id="path-4-outside-1_385_529" maskUnits="userSpaceOnUse" x="129.221" y="67.6272" width="287" height="178" fill="black">
<rect fill="white" x="129.221" y="67.6272" width="287" height="178"/>
<path d="M315.596 198.168C317.233 197.623 320.508 195.221 320.508 189.982C320.508 183.433 320.508 178.521 312.321 178.521H292.673C287.762 178.521 269.751 173.609 274.663 168.697C279.575 163.785 277.937 160.511 274.663 160.511C271.389 160.511 258.291 152.324 261.565 160.511C264.84 168.697 271.389 178.521 266.477 178.521C261.565 178.521 245.192 171.971 248.467 168.697C251.742 165.423 246.831 160.511 238.644 160.511H217.359C212.447 160.511 222.271 170.335 232.095 171.972C241.919 173.61 245.193 180.159 238.644 181.796C232.095 183.433 230.457 198.168 228.82 189.982C227.183 181.796 233.732 185.069 223.908 178.521C214.084 171.972 209.173 165.422 204.261 168.697C199.349 171.972 184.613 180.16 186.25 185.071C187.888 189.982 179.701 214.542 174.789 217.817C169.877 221.091 156.779 230.915 150.23 224.366C143.681 217.817 137.131 226.003 137.131 217.817C137.131 209.63 130.582 206.355 137.131 198.168C143.681 189.982 146.955 180.16 153.504 185.071C160.053 189.982 161.689 178.521 168.239 178.521C174.785 178.521 169.883 175.252 164.974 171.978L164.965 171.972C161.079 169.381 165.412 168.712 168.147 168.697C168.475 168.2 170.081 166.161 174.789 160.511C182.975 150.688 178.065 142.501 186.25 140.864C194.436 139.227 200.987 137.589 204.261 134.315C207.535 131.04 210.81 126.128 204.261 126.128C197.711 126.128 192.8 129.403 186.25 126.128C179.7 122.854 186.25 121.216 186.25 117.942C186.25 114.667 194.438 104.843 204.261 101.569C214.084 98.2942 228.821 88.4704 238.644 93.3823C248.467 98.2942 243.555 99.9329 255.016 96.6576C266.477 93.3823 268.115 93.383 271.389 85.1966C274.008 78.6474 280.796 75.5673 285.162 73.3842C289.723 68.8236 337.444 85.7076 354.891 101.569C372.901 117.942 392.549 135.951 408.922 185.071C414.161 200.789 408.922 230.916 405.647 244.014C406.739 226.55 406.63 190.311 397.461 185.071C388.292 179.831 381.634 180.704 379.451 181.796C377.813 182.887 372.574 183.76 364.715 178.521C354.891 171.972 349.979 175.245 364.715 189.982C376.504 201.772 381.634 198.17 382.725 194.895C386 197.624 391.567 204.064 387.637 207.994C382.725 212.905 363.078 224.366 354.891 224.366C346.705 224.366 340.156 198.168 331.969 198.168C325.42 198.168 324.874 201.444 325.42 203.082L315.596 198.168Z"/>
</mask>
<path d="M315.596 198.168C317.233 197.623 320.508 195.221 320.508 189.982C320.508 183.433 320.508 178.521 312.321 178.521H292.673C287.762 178.521 269.751 173.609 274.663 168.697C279.575 163.785 277.937 160.511 274.663 160.511C271.389 160.511 258.291 152.324 261.565 160.511C264.84 168.697 271.389 178.521 266.477 178.521C261.565 178.521 245.192 171.971 248.467 168.697C251.742 165.423 246.831 160.511 238.644 160.511H217.359C212.447 160.511 222.271 170.335 232.095 171.972C241.919 173.61 245.193 180.159 238.644 181.796C232.095 183.433 230.457 198.168 228.82 189.982C227.183 181.796 233.732 185.069 223.908 178.521C214.084 171.972 209.173 165.422 204.261 168.697C199.349 171.972 184.613 180.16 186.25 185.071C187.888 189.982 179.701 214.542 174.789 217.817C169.877 221.091 156.779 230.915 150.23 224.366C143.681 217.817 137.131 226.003 137.131 217.817C137.131 209.63 130.582 206.355 137.131 198.168C143.681 189.982 146.955 180.16 153.504 185.071C160.053 189.982 161.689 178.521 168.239 178.521C174.785 178.521 169.883 175.252 164.974 171.978L164.965 171.972C161.079 169.381 165.412 168.712 168.147 168.697C168.475 168.2 170.081 166.161 174.789 160.511C182.975 150.688 178.065 142.501 186.25 140.864C194.436 139.227 200.987 137.589 204.261 134.315C207.535 131.04 210.81 126.128 204.261 126.128C197.711 126.128 192.8 129.403 186.25 126.128C179.7 122.854 186.25 121.216 186.25 117.942C186.25 114.667 194.438 104.843 204.261 101.569C214.084 98.2942 228.821 88.4704 238.644 93.3823C248.467 98.2942 243.555 99.9329 255.016 96.6576C266.477 93.3823 268.115 93.383 271.389 85.1966C274.008 78.6474 280.796 75.5673 285.162 73.3842C289.723 68.8236 337.444 85.7076 354.891 101.569C372.901 117.942 392.549 135.951 408.922 185.071C414.161 200.789 408.922 230.916 405.647 244.014C406.739 226.55 406.63 190.311 397.461 185.071C388.292 179.831 381.634 180.704 379.451 181.796C377.813 182.887 372.574 183.76 364.715 178.521C354.891 171.972 349.979 175.245 364.715 189.982C376.504 201.772 381.634 198.17 382.725 194.895C386 197.624 391.567 204.064 387.637 207.994C382.725 212.905 363.078 224.366 354.891 224.366C346.705 224.366 340.156 198.168 331.969 198.168C325.42 198.168 324.874 201.444 325.42 203.082L315.596 198.168Z" fill="white"/>
<path d="M315.596 198.168L314.014 193.425L302.564 197.242L313.359 202.64L315.596 198.168ZM274.663 168.697L271.128 165.162L271.128 165.162L274.663 168.697ZM261.565 160.511L256.923 162.368L256.923 162.368L261.565 160.511ZM248.467 168.697L244.932 165.161L248.467 168.697ZM232.095 171.972L232.917 167.04L232.917 167.04L232.095 171.972ZM238.644 181.796L237.431 176.945L237.431 176.945L238.644 181.796ZM228.82 189.982L223.917 190.963L223.917 190.963L228.82 189.982ZM223.908 178.521L221.135 182.681L221.135 182.681L223.908 178.521ZM204.261 168.697L201.487 164.537L201.487 164.537L204.261 168.697ZM186.25 185.071L181.507 186.652L181.507 186.652L186.25 185.071ZM174.789 217.817L172.016 213.656L172.016 213.656L174.789 217.817ZM150.23 224.366L153.765 220.83L153.765 220.83L150.23 224.366ZM137.131 198.168L133.227 195.045L137.131 198.168ZM153.504 185.071L150.504 189.071L150.504 189.071L153.504 185.071ZM164.974 171.978L162.198 176.137L162.2 176.138L164.974 171.978ZM164.965 171.972L167.74 167.814L167.739 167.812L164.965 171.972ZM168.147 168.697L168.174 173.697L170.849 173.683L172.321 171.45L168.147 168.697ZM174.789 160.511L178.63 163.712L178.63 163.712L174.789 160.511ZM204.261 134.315L200.725 130.779L200.725 130.779L204.261 134.315ZM186.25 126.128L184.014 130.6L184.014 130.6L186.25 126.128ZM204.261 101.569L202.679 96.8254L202.679 96.8254L204.261 101.569ZM238.644 93.3823L240.88 88.9102L240.88 88.9102L238.644 93.3823ZM255.016 96.6576L253.642 91.8501L253.642 91.8501L255.016 96.6576ZM271.389 85.1966L266.747 83.3398L266.747 83.3398L271.389 85.1966ZM285.162 73.3842L287.398 77.8564L288.124 77.4935L288.698 76.9197L285.162 73.3842ZM354.891 101.569L351.528 105.268L351.528 105.268L354.891 101.569ZM408.922 185.071L413.666 183.49L413.666 183.49L408.922 185.071ZM405.647 244.014L400.657 243.702L410.498 245.227L405.647 244.014ZM397.461 185.071L399.942 180.73L399.942 180.73L397.461 185.071ZM379.451 181.796L377.214 177.324L376.937 177.463L376.678 177.635L379.451 181.796ZM364.715 178.521L361.942 182.681L361.942 182.681L364.715 178.521ZM364.715 189.982L361.179 193.517L361.179 193.517L364.715 189.982ZM382.725 194.895L385.926 191.054L380.298 186.364L377.982 193.314L382.725 194.895ZM387.637 207.994L391.173 211.529L391.173 211.529L387.637 207.994ZM325.42 203.082L323.183 207.554L333.98 212.953L330.163 201.501L325.42 203.082ZM317.177 202.912C320.587 201.775 325.508 197.644 325.508 189.982H315.508C315.508 191.487 315.061 192.323 314.71 192.777C314.28 193.333 313.872 193.472 314.014 193.425L317.177 202.912ZM325.508 189.982C325.508 188.404 325.512 186.624 325.358 184.967C325.205 183.312 324.867 181.38 323.956 179.559C322.981 177.609 321.44 175.969 319.25 174.899C317.181 173.887 314.817 173.521 312.321 173.521V183.521C313.918 183.521 314.624 183.768 314.858 183.883C314.971 183.938 314.964 183.936 315.012 184.031C315.125 184.257 315.298 184.782 315.401 185.889C315.503 186.996 315.508 188.285 315.508 189.982H325.508ZM312.321 173.521H292.673V183.521H312.321V173.521ZM292.673 173.521C292.028 173.521 290.428 173.32 288.233 172.807C286.129 172.317 283.833 171.623 281.878 170.823C279.743 169.95 278.663 169.207 278.37 168.893C278.264 168.78 278.765 169.249 278.818 170.265C278.881 171.447 278.291 172.14 278.199 172.233L271.128 165.162C269.807 166.482 268.706 168.403 268.832 170.794C268.95 173.019 270.09 174.677 271.059 175.716C272.915 177.704 275.723 179.11 278.091 180.079C280.638 181.121 283.459 181.962 285.96 182.546C288.37 183.108 290.863 183.521 292.673 183.521V173.521ZM278.199 172.233C280.985 169.446 283.23 165.886 282.683 162.055C282.386 159.979 281.285 158.204 279.641 157.03C278.078 155.913 276.281 155.511 274.663 155.511V165.511C274.66 165.511 274.579 165.511 274.437 165.47C274.294 165.429 274.075 165.343 273.829 165.168C273.26 164.761 272.875 164.112 272.783 163.469C272.706 162.928 272.885 162.778 272.701 163.156C272.522 163.524 272.082 164.207 271.128 165.162L278.199 172.233ZM274.663 155.511C275.069 155.511 275.129 155.593 274.518 155.402C274.029 155.25 273.399 155.016 272.594 154.702C271.125 154.128 269.007 153.249 267.15 152.668C266.203 152.372 265.105 152.081 264.004 151.949C263.033 151.832 261.334 151.739 259.648 152.53C257.475 153.548 256.271 155.555 256.074 157.705C255.916 159.437 256.41 161.085 256.923 162.368L266.208 158.654C265.902 157.89 266.089 158.002 266.033 158.615C265.939 159.646 265.246 160.95 263.892 161.584C263.024 161.991 262.451 161.834 262.811 161.877C263.04 161.905 263.477 161.997 264.167 162.213C265.585 162.656 267.151 163.312 268.956 164.017C269.788 164.342 270.693 164.684 271.535 164.947C272.254 165.172 273.439 165.511 274.663 165.511V155.511ZM256.923 162.368C257.814 164.595 258.909 166.889 259.9 168.947C260.928 171.081 261.821 172.918 262.468 174.489C263.203 176.274 263.241 176.862 263.244 176.736C263.249 176.545 263.317 175.505 264.275 174.547C265.255 173.568 266.312 173.521 266.477 173.521V183.521C267.871 183.521 269.798 183.167 271.346 181.618C272.874 180.091 273.211 178.219 273.241 176.98C273.295 174.756 272.413 172.377 271.715 170.682C270.929 168.774 269.878 166.62 268.91 164.609C267.906 162.524 266.954 160.52 266.208 158.654L256.923 162.368ZM266.477 173.521C266.036 173.521 264.69 173.306 262.593 172.665C260.642 172.068 258.468 171.235 256.552 170.322C254.534 169.361 253.2 168.499 252.621 167.958C252.284 167.644 252.668 167.868 252.899 168.657C253.039 169.138 253.116 169.824 252.917 170.596C252.719 171.365 252.326 171.91 252.002 172.233L244.932 165.161C244.199 165.894 243.55 166.873 243.234 168.098C242.918 169.325 243.015 170.488 243.3 171.462C243.818 173.235 244.983 174.508 245.797 175.269C247.52 176.876 249.973 178.265 252.253 179.351C254.634 180.485 257.269 181.494 259.668 182.228C261.92 182.917 264.463 183.521 266.477 183.521V173.521ZM252.002 172.233C253.791 170.445 254.786 168.007 254.417 165.349C254.077 162.895 252.674 160.972 251.176 159.639C248.186 156.981 243.61 155.511 238.644 155.511V165.511C241.864 165.511 243.837 166.496 244.531 167.113C244.875 167.418 244.597 167.337 244.512 166.724C244.399 165.909 244.781 165.312 244.932 165.161L252.002 172.233ZM238.644 155.511H217.359V165.511H238.644V155.511ZM217.359 155.511C216.229 155.511 213.633 155.755 212.026 158.151C210.429 160.534 211.186 162.993 211.574 163.95C212.423 166.045 214.267 167.968 215.926 169.406C219.481 172.487 225.212 175.894 231.273 176.904L232.917 167.04C229.154 166.413 225.061 164.089 222.476 161.849C221.065 160.626 220.76 159.991 220.842 160.193C220.846 160.203 221.565 161.882 220.332 163.721C219.723 164.629 218.921 165.097 218.343 165.31C217.811 165.507 217.429 165.511 217.359 165.511V155.511ZM231.273 176.904C233.255 177.235 234.753 177.789 235.779 178.352C236.29 178.632 236.655 178.898 236.897 179.113C237.145 179.332 237.224 179.46 237.222 179.457C237.201 179.422 236.772 178.546 237.346 177.461C237.812 176.581 238.351 176.716 237.431 176.945L239.857 186.647C242.212 186.058 244.797 184.76 246.184 182.14C247.679 179.315 247.046 176.394 245.797 174.312C243.49 170.467 238.506 167.972 232.917 167.04L231.273 176.904ZM237.431 176.945C234.135 177.77 231.927 180.096 230.56 181.939C229.157 183.831 228.102 185.968 227.418 187.336C227.032 188.108 226.799 188.569 226.617 188.877C226.53 189.024 226.532 189.002 226.615 188.899C226.648 188.858 227.032 188.364 227.796 187.962C228.778 187.445 230.334 187.14 231.913 187.887C233.155 188.476 233.688 189.396 233.792 189.579C234.008 189.96 233.922 189.995 233.723 189.001L223.917 190.963C224.128 192.015 224.451 193.381 225.096 194.517C225.414 195.076 226.165 196.23 227.634 196.926C229.439 197.78 231.228 197.456 232.453 196.811C233.461 196.281 234.097 195.551 234.395 195.181C234.743 194.751 235.021 194.311 235.226 193.965C235.626 193.288 236.032 192.469 236.362 191.809C237.11 190.313 237.796 188.97 238.593 187.895C239.426 186.771 239.879 186.641 239.857 186.647L237.431 176.945ZM233.723 189.001C233.434 187.559 233.569 186.975 233.602 186.84C233.628 186.732 233.663 186.628 233.77 186.365C233.809 186.268 234.169 185.456 234.337 184.618C234.568 183.462 234.51 182.129 233.892 180.782C233.373 179.65 232.597 178.825 232.006 178.272C230.856 177.197 229.059 175.945 226.681 174.36L221.135 182.681C223.669 184.371 224.737 185.166 225.174 185.574C225.375 185.763 225.073 185.539 224.803 184.951C224.435 184.148 224.402 183.301 224.531 182.657C224.596 182.331 224.726 182.056 224.504 182.604C224.348 182.988 224.089 183.639 223.885 184.477C223.457 186.235 223.387 188.312 223.917 190.963L233.723 189.001ZM226.681 174.36C224.379 172.826 222.346 171.278 220.443 169.807C218.607 168.387 216.737 166.912 215.016 165.765C213.322 164.636 211.275 163.472 208.983 163.023C206.417 162.52 203.841 162.967 201.487 164.537L207.035 172.857C207.136 172.789 207.016 172.827 207.059 172.836C207.377 172.898 208.093 173.168 209.469 174.085C210.818 174.985 212.325 176.171 214.326 177.718C216.261 179.214 218.525 180.942 221.135 182.681L226.681 174.36ZM201.487 164.537C199.454 165.892 194 169.12 189.799 172.271C187.652 173.881 185.421 175.758 183.804 177.746C182.433 179.431 180.213 182.771 181.507 186.652L190.994 183.489C191.469 184.914 190.477 185.389 191.562 184.057C192.4 183.025 193.854 181.73 195.8 180.27C199.786 177.281 204.155 174.777 207.035 172.857L201.487 164.537ZM181.507 186.652C181.392 186.306 181.508 186.419 181.441 187.42C181.384 188.273 181.221 189.415 180.94 190.81C180.379 193.589 179.422 197.006 178.246 200.436C177.069 203.868 175.721 207.176 174.418 209.757C173.765 211.051 173.166 212.079 172.652 212.819C172.075 213.65 171.841 213.773 172.016 213.656L177.563 221.977C178.966 221.042 180.062 219.681 180.866 218.523C181.734 217.274 182.567 215.807 183.347 214.261C184.909 211.164 186.426 207.41 187.705 203.679C188.985 199.946 190.075 196.097 190.742 192.787C191.075 191.138 191.322 189.53 191.418 188.087C191.505 186.792 191.518 185.063 190.994 183.489L181.507 186.652ZM172.016 213.656C169.311 215.46 165.311 218.372 161.13 220.19C156.52 222.194 154.58 221.645 153.765 220.83L146.694 227.901C152.429 233.636 160.313 231.449 165.117 229.361C170.35 227.085 175.356 223.448 177.563 221.977L172.016 213.656ZM153.765 220.83C151.391 218.456 148.827 217.272 146.322 216.813C144.006 216.388 141.867 216.634 140.809 216.723C140.514 216.747 140.307 216.762 140.137 216.769C140.056 216.772 139.997 216.773 139.956 216.773C139.914 216.773 139.897 216.772 139.901 216.772C139.904 216.772 139.936 216.775 139.989 216.783C140.043 216.792 140.126 216.808 140.23 216.838C140.444 216.9 140.743 217.017 141.065 217.235C142.58 218.264 142.131 219.628 142.131 217.817H132.131C132.131 220.099 132.501 223.509 135.45 225.51C136.813 226.436 138.226 226.679 139.197 226.747C140.132 226.813 141.057 226.737 141.64 226.688C143.039 226.571 143.764 226.511 144.519 226.649C145.083 226.752 145.794 227.001 146.694 227.901L153.765 220.83ZM142.131 217.817C142.131 215.072 141.575 212.789 140.969 210.909C140.676 210.002 140.353 209.136 140.101 208.446C139.833 207.711 139.633 207.145 139.483 206.619C139.201 205.632 139.171 205.041 139.277 204.491C139.39 203.911 139.751 202.898 141.036 201.292L133.227 195.045C131.238 197.532 129.961 199.999 129.46 202.591C128.952 205.213 129.331 207.488 129.868 209.366C130.127 210.273 130.439 211.14 130.708 211.876C130.993 212.657 131.233 213.3 131.452 213.979C131.869 215.272 132.131 216.468 132.131 217.817H142.131ZM141.036 201.292C142.83 199.049 144.378 196.721 145.692 194.751C147.073 192.679 148.123 191.117 149.114 189.962C150.158 188.743 150.565 188.679 150.403 188.722C149.854 188.87 149.726 188.488 150.504 189.071L156.503 181.071C154.006 179.198 151.014 178.202 147.804 179.066C144.982 179.826 142.933 181.807 141.521 183.454C140.056 185.163 138.65 187.285 137.371 189.204C136.024 191.224 134.708 193.194 133.227 195.045L141.036 201.292ZM150.504 189.071C153.057 190.986 156.063 191.895 159.199 190.873C161.765 190.035 163.571 188.101 164.571 187.001C165.895 185.544 166.482 184.766 167.328 184.049C167.992 183.486 168.213 183.521 168.239 183.521V173.521C164.991 173.521 162.551 174.988 160.861 176.421C159.354 177.699 157.894 179.48 157.171 180.274C156.125 181.425 155.884 181.435 156.097 181.366C156.879 181.111 157.225 181.612 156.503 181.071L150.504 189.071ZM168.239 183.521C169.226 183.521 170.225 183.463 171.153 183.278C171.958 183.119 173.381 182.742 174.588 181.619C176.168 180.148 176.662 178.095 176.264 176.256C175.956 174.833 175.183 173.804 174.745 173.278C173.807 172.152 172.496 171.128 171.428 170.347C170.275 169.503 168.951 168.621 167.747 167.818L162.2 176.138C163.451 176.972 164.58 177.727 165.522 178.416C165.987 178.757 166.36 179.047 166.645 179.291C166.786 179.411 166.89 179.506 166.965 179.579C167.042 179.654 167.067 179.686 167.059 179.676C167.056 179.672 166.978 179.579 166.877 179.404C166.781 179.236 166.601 178.884 166.49 178.372C166.374 177.833 166.329 177.085 166.575 176.25C166.826 175.399 167.294 174.747 167.774 174.299C168.223 173.881 168.643 173.675 168.859 173.585C168.976 173.536 169.066 173.507 169.12 173.492C169.175 173.476 169.206 173.47 169.207 173.47C169.208 173.469 169.189 173.473 169.144 173.479C169.1 173.485 169.037 173.492 168.953 173.498C168.782 173.511 168.548 173.521 168.239 173.521V183.521ZM167.749 167.819L167.74 167.814L162.189 176.131L162.198 176.137L167.749 167.819ZM167.739 167.812C167.444 167.616 167.426 167.566 167.532 167.68C167.61 167.763 168.092 168.289 168.313 169.257C168.581 170.433 168.325 171.655 167.685 172.602C167.16 173.378 166.555 173.713 166.397 173.796C166.101 173.951 166.099 173.881 166.663 173.8C167.116 173.734 167.664 173.7 168.174 173.697L168.121 163.697C167.263 163.702 166.243 163.757 165.236 163.902C164.34 164.031 162.984 164.293 161.749 164.942C161.121 165.271 160.15 165.892 159.401 167.001C158.536 168.28 158.198 169.879 158.563 171.482C158.882 172.877 159.642 173.881 160.215 174.496C160.818 175.144 161.515 175.681 162.191 176.132L167.739 167.812ZM172.321 171.45C172.289 171.499 172.347 171.411 172.616 171.062C172.858 170.75 173.213 170.3 173.717 169.675C174.724 168.427 176.284 166.527 178.63 163.712L170.948 157.31C166.351 162.826 164.498 165.149 163.973 165.945L172.321 171.45ZM178.63 163.712C183.572 157.781 184.586 152.164 185.387 148.763C185.817 146.937 186.058 146.386 186.232 146.141C186.261 146.1 186.271 146.09 186.319 146.061C186.392 146.017 186.645 145.884 187.231 145.767L185.27 135.961C182.222 136.57 179.774 137.966 178.083 140.345C176.62 142.403 176.042 144.819 175.653 146.472C174.816 150.03 174.192 153.417 170.948 157.31L178.63 163.712ZM187.231 145.767C191.335 144.946 195.287 144.077 198.678 142.947C202.007 141.837 205.34 140.307 207.797 137.85L200.725 130.779C199.907 131.597 198.328 132.523 195.516 133.46C192.768 134.376 189.352 135.144 185.27 135.961L187.231 145.767ZM207.797 137.85C208.746 136.9 209.754 135.776 210.616 134.582C211.424 133.463 212.363 131.934 212.795 130.207C213.258 128.356 213.266 125.445 210.848 123.247C208.867 121.447 206.247 121.128 204.261 121.128V131.128C204.793 131.128 205.003 131.181 204.994 131.179C204.986 131.176 204.59 131.073 204.121 130.646C203.595 130.169 203.239 129.52 203.103 128.853C202.983 128.264 203.073 127.864 203.094 127.78C203.116 127.691 203.032 128.003 202.51 128.727C202.042 129.374 201.412 130.092 200.725 130.779L207.797 137.85ZM204.261 121.128C202.212 121.128 200.358 121.385 198.755 121.661C196.967 121.97 195.925 122.21 194.548 122.406C192.254 122.734 190.524 122.675 188.486 121.656L184.014 130.6C188.526 132.856 192.527 132.797 195.963 132.306C197.452 132.093 199.274 131.719 200.454 131.516C201.818 131.281 203.034 131.128 204.261 131.128V121.128ZM188.486 121.656C187.864 121.345 187.596 121.149 187.527 121.093C187.451 121.032 187.761 121.257 188.027 121.833C188.339 122.508 188.411 123.277 188.271 123.962C188.21 124.259 188.123 124.479 188.062 124.61C188.002 124.738 187.955 124.808 187.954 124.809C187.953 124.81 187.977 124.776 188.043 124.692C188.11 124.608 188.195 124.507 188.319 124.362C188.527 124.12 188.932 123.659 189.292 123.191C189.984 122.291 191.25 120.463 191.25 117.942H181.25C181.25 117.057 181.698 116.662 181.366 117.093C181.215 117.29 181.057 117.469 180.727 117.853C180.46 118.165 180.024 118.676 179.634 119.261C178.84 120.452 177.561 123.019 178.947 126.024C180.019 128.346 182.228 129.707 184.014 130.6L188.486 121.656ZM191.25 117.942C191.25 118.464 191.116 118.648 191.243 118.341C191.341 118.103 191.541 117.707 191.889 117.166C192.582 116.088 193.673 114.725 195.107 113.291C198.012 110.386 201.874 107.635 205.842 106.312L202.679 96.8254C196.824 98.7773 191.681 102.575 188.036 106.22C186.196 108.06 184.626 109.972 183.477 111.759C182.904 112.65 182.388 113.585 182 114.523C181.641 115.394 181.25 116.6 181.25 117.942H191.25ZM205.842 106.312C208.577 105.4 211.576 104.062 214.438 102.782C217.392 101.46 220.297 100.155 223.174 99.1C229.237 96.8767 233.54 96.4202 236.408 97.8544L240.88 88.9102C233.925 85.4325 225.947 87.432 219.731 89.7112C216.468 90.9078 213.232 92.3657 210.354 93.6533C207.383 94.9826 204.856 96.0999 202.679 96.8254L205.842 106.312ZM236.408 97.8544C238.586 98.9437 239.892 99.8201 240.81 100.482C241.094 100.687 241.916 101.299 242.231 101.522C242.718 101.867 243.402 102.324 244.245 102.685C246.225 103.534 248.102 103.455 249.873 103.142C251.492 102.857 253.622 102.256 256.39 101.465L253.642 91.8501C250.68 92.6967 249.126 93.1197 248.135 93.2944C247.297 93.4423 247.639 93.2602 248.186 93.4948C248.313 93.5493 248.307 93.5712 248.007 93.3592C247.536 93.0258 247.475 92.96 246.659 92.3713C245.378 91.4472 243.613 90.2768 240.88 88.9102L236.408 97.8544ZM256.39 101.465C259.157 100.674 261.563 100.017 263.49 99.3929C265.436 98.7626 267.294 98.0453 268.957 96.9872C272.627 94.6517 274.337 91.2905 276.032 87.0533L266.747 83.3398C265.167 87.2891 264.421 88.0207 263.589 88.5504C263 88.9248 262.096 89.333 260.408 89.8796C258.702 90.4323 256.606 91.0031 253.642 91.8501L256.39 101.465ZM276.032 87.0533C277.809 82.6101 282.524 80.2933 287.398 77.8564L282.926 68.912C279.068 70.8413 270.208 74.6847 266.747 83.3398L276.032 87.0533ZM288.698 76.9197C287.988 77.6301 287.333 77.7089 287.502 77.6745C287.589 77.6568 287.923 77.6115 288.594 77.6328C289.927 77.675 291.893 77.9514 294.45 78.516C299.519 79.635 306.208 81.7256 313.403 84.4864C327.954 90.0701 343.52 97.9887 351.528 105.268L358.255 97.8691C348.815 89.2876 331.797 80.8336 316.986 75.1502C309.499 72.2774 302.313 70.0109 296.606 68.7511C293.776 68.1263 291.128 67.708 288.91 67.6378C287.807 67.6029 286.63 67.647 285.508 67.8753C284.469 68.0869 282.907 68.5682 281.627 69.8487L288.698 76.9197ZM351.528 105.268C360.526 113.449 369.595 121.744 378.474 133.977C387.341 146.193 396.129 162.503 404.179 186.652L413.666 183.49C405.342 158.519 396.12 141.264 386.567 128.103C377.026 114.958 367.267 106.062 358.255 97.8691L351.528 105.268ZM404.179 186.652C406.443 193.446 406.556 204.001 405.5 215.049C404.463 225.902 402.382 236.46 400.797 242.801L410.498 245.227C412.187 238.47 414.364 227.416 415.455 216.001C416.527 204.781 416.64 192.414 413.666 183.49L404.179 186.652ZM410.638 244.326C411.194 235.434 411.448 221.745 410.383 209.524C409.852 203.433 408.977 197.498 407.563 192.638C406.855 190.207 405.968 187.887 404.824 185.898C403.698 183.941 402.139 181.985 399.942 180.73L394.98 189.412C395.075 189.466 395.526 189.789 396.156 190.885C396.769 191.95 397.386 193.456 397.961 195.432C399.112 199.387 399.915 204.585 400.421 210.392C401.43 221.967 401.193 235.13 400.657 243.702L410.638 244.326ZM399.942 180.73C389.805 174.937 381.331 175.266 377.214 177.324L381.687 186.268C381.631 186.296 381.908 186.16 382.604 186.06C383.26 185.966 384.182 185.922 385.352 186.036C387.677 186.262 390.958 187.113 394.98 189.412L399.942 180.73ZM376.678 177.635C377.444 177.125 374.535 179.058 367.488 174.36L361.942 182.681C370.613 188.461 378.183 188.65 382.223 185.957L376.678 177.635ZM367.488 174.36C364.802 172.57 362.087 171.191 359.657 170.613C358.477 170.332 356.893 170.122 355.265 170.542C353.367 171.031 351.53 172.385 350.762 174.688C350.121 176.611 350.489 178.452 350.894 179.699C351.331 181.042 352.045 182.405 352.906 183.75C354.636 186.451 357.368 189.706 361.179 193.517L368.251 186.447C364.694 182.889 362.514 180.209 361.327 178.356C360.73 177.424 360.485 176.855 360.404 176.606C360.291 176.26 360.583 176.849 360.249 177.851C359.788 179.233 358.642 179.998 357.76 180.225C357.149 180.383 356.908 180.238 357.34 180.341C358.133 180.53 359.716 181.198 361.942 182.681L367.488 174.36ZM361.179 193.517C367.302 199.64 372.655 202.808 377.449 203.08C382.978 203.393 386.339 199.867 387.469 196.476L377.982 193.314C378.021 193.198 378.27 193.11 378.015 193.096C377.023 193.039 373.917 192.113 368.251 186.447L361.179 193.517ZM379.524 198.736C380.876 199.863 382.576 201.678 383.476 203.357C383.921 204.187 383.987 204.644 383.989 204.758C383.989 204.782 383.986 204.712 384.03 204.598C384.077 204.477 384.13 204.43 384.102 204.458L391.173 211.529C393.176 209.526 394.029 207.052 393.987 204.588C393.948 202.303 393.154 200.244 392.289 198.631C390.57 195.426 387.849 192.656 385.926 191.054L379.524 198.736ZM384.102 204.458C382.198 206.361 376.614 210.171 370.147 213.606C366.999 215.278 363.825 216.763 361.015 217.817C358.073 218.92 356.005 219.366 354.891 219.366V229.366C357.871 229.366 361.328 228.379 364.526 227.18C367.856 225.931 371.436 224.245 374.838 222.437C381.469 218.915 388.164 214.538 391.173 211.529L384.102 204.458ZM354.891 219.366C355.258 219.366 355.276 219.521 354.845 219.206C354.398 218.878 353.768 218.259 352.967 217.22C351.341 215.11 349.685 212.188 347.788 208.816C346.001 205.639 343.973 202.011 341.813 199.209C340.721 197.793 339.432 196.365 337.922 195.26C336.396 194.142 334.382 193.168 331.969 193.168V203.168C331.603 203.168 331.585 203.013 332.015 203.329C332.463 203.656 333.092 204.275 333.893 205.314C335.519 207.424 337.176 210.346 339.072 213.718C340.859 216.896 342.887 220.523 345.047 223.325C346.139 224.742 347.429 226.17 348.938 227.275C350.465 228.392 352.478 229.366 354.891 229.366V219.366ZM331.969 193.168C328.021 193.168 324.503 194.142 322.255 196.737C319.952 199.394 319.983 202.582 320.676 204.662L330.163 201.501C330.311 201.943 330.342 202.675 329.813 203.285C329.338 203.833 329.368 203.168 331.969 203.168V193.168ZM327.656 198.61L317.832 193.696L313.359 202.64L323.183 207.554L327.656 198.61Z" fill="black" mask="url(#path-4-outside-1_385_529)"/>
<mask id="path-6-outside-2_385_529" maskUnits="userSpaceOnUse" x="0.000488281" y="0" width="493" height="493" fill="black">
<rect fill="white" x="0.000488281" width="493" height="493"/>
<path fill-rule="evenodd" clip-rule="evenodd" d="M487.077 229.969C487.077 354.216 379.16 454.938 246.039 454.938C221.43 454.938 197.683 451.496 175.319 445.1C156.573 455.233 111.912 475.322 35.5982 487.005C35.4007 487.035 35.2416 486.839 35.3261 486.657C48.1333 459.177 60.8938 416.311 64.3497 377.808C27.3888 338.272 5.00049 286.561 5.00049 229.969C5.00049 105.722 112.917 5 246.039 5C379.16 5 487.077 105.722 487.077 229.969ZM400.616 274.257C404.692 260.343 406.731 245.41 406.731 229.799C406.731 216.224 405.032 203.328 402.994 191.111C399.936 179.233 395.52 167.694 390.084 156.834C385.328 147.671 379.892 138.848 373.437 130.703C372.916 130.079 372.396 129.422 371.865 128.754C370.665 127.242 369.415 125.667 368.002 124.255C367.492 123.576 366.897 122.982 366.303 122.388C365.708 121.794 365.114 121.201 364.604 120.522L359.508 115.431C347.278 103.214 333.009 93.0328 317.382 85.5666C317.122 85.437 316.912 85.3569 316.733 85.2884C316.443 85.1777 316.233 85.0976 316.023 84.8879L308.889 81.8335C308.124 81.5281 307.377 81.2226 306.639 80.9211C304.098 79.8823 301.669 78.8895 299.036 78.1005C294.28 76.4036 289.184 75.0461 284.088 73.6886C275.595 71.6524 266.422 70.2949 257.25 69.6162C255.551 69.2768 253.513 69.2768 251.814 69.2768H246.718C203.233 69.2768 163.484 86.5847 134.607 114.752C125.435 123.237 117.621 133.079 110.826 143.599C106.75 150.047 103.012 156.834 99.9549 163.622C93.5001 177.536 89.0836 192.468 87.0452 208.419L86.026 216.564C85.6863 220.976 85.3466 225.387 85.3466 229.799C85.3466 237.605 86.026 245.071 87.0452 252.537C87.385 256.27 88.0644 259.664 88.7439 263.058C89.763 267.809 91.1219 272.56 92.4807 277.311L92.4809 277.311C94.5193 283.759 96.8974 290.207 99.6152 296.316C100.121 297.832 100.815 299.16 101.558 300.58C101.812 301.067 102.073 301.565 102.333 302.085V302.425C103.012 304.461 104.032 306.157 105.051 307.854L105.051 307.854C109.467 315.321 114.224 322.447 119.32 328.895C126.454 337.719 134.268 345.864 142.761 352.991C165.523 372.335 193.72 385.231 224.975 389.303C227.013 389.473 229.135 389.643 231.257 389.812C233.381 389.982 235.506 390.152 237.545 390.322C240.263 390.661 243.321 390.661 246.039 390.661C266.083 390.661 285.447 386.928 303.113 380.141C322.478 372.674 340.484 361.475 355.432 347.561C376.495 327.877 392.462 302.764 400.616 274.257Z"/>
</mask>
<path fill-rule="evenodd" clip-rule="evenodd" d="M487.077 229.969C487.077 354.216 379.16 454.938 246.039 454.938C221.43 454.938 197.683 451.496 175.319 445.1C156.573 455.233 111.912 475.322 35.5982 487.005C35.4007 487.035 35.2416 486.839 35.3261 486.657C48.1333 459.177 60.8938 416.311 64.3497 377.808C27.3888 338.272 5.00049 286.561 5.00049 229.969C5.00049 105.722 112.917 5 246.039 5C379.16 5 487.077 105.722 487.077 229.969ZM400.616 274.257C404.692 260.343 406.731 245.41 406.731 229.799C406.731 216.224 405.032 203.328 402.994 191.111C399.936 179.233 395.52 167.694 390.084 156.834C385.328 147.671 379.892 138.848 373.437 130.703C372.916 130.079 372.396 129.422 371.865 128.754C370.665 127.242 369.415 125.667 368.002 124.255C367.492 123.576 366.897 122.982 366.303 122.388C365.708 121.794 365.114 121.201 364.604 120.522L359.508 115.431C347.278 103.214 333.009 93.0328 317.382 85.5666C317.122 85.437 316.912 85.3569 316.733 85.2884C316.443 85.1777 316.233 85.0976 316.023 84.8879L308.889 81.8335C308.124 81.5281 307.377 81.2226 306.639 80.9211C304.098 79.8823 301.669 78.8895 299.036 78.1005C294.28 76.4036 289.184 75.0461 284.088 73.6886C275.595 71.6524 266.422 70.2949 257.25 69.6162C255.551 69.2768 253.513 69.2768 251.814 69.2768H246.718C203.233 69.2768 163.484 86.5847 134.607 114.752C125.435 123.237 117.621 133.079 110.826 143.599C106.75 150.047 103.012 156.834 99.9549 163.622C93.5001 177.536 89.0836 192.468 87.0452 208.419L86.026 216.564C85.6863 220.976 85.3466 225.387 85.3466 229.799C85.3466 237.605 86.026 245.071 87.0452 252.537C87.385 256.27 88.0644 259.664 88.7439 263.058C89.763 267.809 91.1219 272.56 92.4807 277.311L92.4809 277.311C94.5193 283.759 96.8974 290.207 99.6152 296.316C100.121 297.832 100.815 299.16 101.558 300.58C101.812 301.067 102.073 301.565 102.333 302.085V302.425C103.012 304.461 104.032 306.157 105.051 307.854L105.051 307.854C109.467 315.321 114.224 322.447 119.32 328.895C126.454 337.719 134.268 345.864 142.761 352.991C165.523 372.335 193.72 385.231 224.975 389.303C227.013 389.473 229.135 389.643 231.257 389.812C233.381 389.982 235.506 390.152 237.545 390.322C240.263 390.661 243.321 390.661 246.039 390.661C266.083 390.661 285.447 386.928 303.113 380.141C322.478 372.674 340.484 361.475 355.432 347.561C376.495 327.877 392.462 302.764 400.616 274.257Z" fill="white"/>
<path d="M175.319 445.1L176.694 440.292C175.438 439.933 174.091 440.08 172.942 440.701L175.319 445.1ZM35.5982 487.005L34.8416 482.062L34.8416 482.062L35.5982 487.005ZM35.3261 486.657L30.7941 484.545L30.794 484.545L35.3261 486.657ZM64.3497 377.808L69.3296 378.255C69.4569 376.837 68.974 375.433 68.0021 374.393L64.3497 377.808ZM400.616 274.257L395.817 272.851C395.814 272.861 395.811 272.872 395.808 272.882L400.616 274.257ZM402.994 191.111L407.926 190.288C407.902 190.146 407.872 190.004 407.836 189.864L402.994 191.111ZM390.084 156.834L394.555 154.596C394.544 154.575 394.533 154.553 394.522 154.531L390.084 156.834ZM373.437 130.703L377.356 127.597C377.33 127.565 377.304 127.532 377.277 127.5L373.437 130.703ZM371.865 128.754L375.782 125.646L375.781 125.646L371.865 128.754ZM368.002 124.255L364.003 127.257C364.145 127.446 364.3 127.625 364.468 127.792L368.002 124.255ZM366.303 122.388L369.837 118.851L369.837 118.851L366.303 122.388ZM364.604 120.522L368.603 117.52C368.461 117.331 368.305 117.152 368.138 116.984L364.604 120.522ZM359.508 115.431L355.975 118.969L355.975 118.969L359.508 115.431ZM317.382 85.5666L315.148 90.0396C315.174 90.0527 315.2 90.0656 315.226 90.0782L317.382 85.5666ZM316.733 85.2884L318.516 80.617L318.515 80.6169L316.733 85.2884ZM316.023 84.8879L319.557 81.3505C319.107 80.9011 318.575 80.5417 317.991 80.2914L316.023 84.8879ZM308.889 81.8335L310.856 77.237C310.819 77.2211 310.782 77.2055 310.744 77.1905L308.889 81.8335ZM306.639 80.9211L304.747 85.5493L304.747 85.5493L306.639 80.9211ZM299.036 78.1005L297.356 82.8097C297.437 82.8386 297.519 82.8654 297.601 82.89L299.036 78.1005ZM284.088 73.6886L285.375 68.8571C285.335 68.8464 285.295 68.8362 285.254 68.8264L284.088 73.6886ZM257.25 69.6162L256.27 74.5193C256.472 74.5596 256.676 74.5874 256.881 74.6026L257.25 69.6162ZM134.607 114.752L138.002 118.423C138.035 118.393 138.067 118.363 138.099 118.332L134.607 114.752ZM110.826 143.599L106.626 140.886C106.617 140.9 106.609 140.913 106.6 140.927L110.826 143.599ZM99.9549 163.622L104.491 165.726C104.498 165.709 104.506 165.692 104.514 165.675L99.9549 163.622ZM87.0452 208.419L82.0856 207.785L82.0839 207.798L87.0452 208.419ZM86.026 216.564L81.0647 215.943C81.0549 216.022 81.0469 216.101 81.0408 216.18L86.026 216.564ZM87.0452 252.537L92.0247 252.084C92.0179 252.009 92.0094 251.935 91.9993 251.861L87.0452 252.537ZM88.7439 263.058L83.8412 264.039C83.8457 264.062 83.8503 264.084 83.8551 264.106L88.7439 263.058ZM92.4807 277.311L97.3315 276.098C97.3179 276.044 97.3034 275.989 97.288 275.936L92.4807 277.311ZM92.4809 277.311L87.6302 278.524C87.6549 278.623 87.6827 278.721 87.7134 278.818L92.4809 277.311ZM99.6152 296.316L104.358 294.733C104.307 294.581 104.249 294.43 104.183 294.283L99.6152 296.316ZM101.558 300.58L105.989 298.263L105.989 298.263L101.558 300.58ZM102.333 302.085H107.333C107.333 301.308 107.152 300.542 106.804 299.847L102.333 302.085ZM102.333 302.425H97.3331C97.3331 302.963 97.4199 303.497 97.5901 304.007L102.333 302.425ZM105.051 307.854L109.37 305.335C109.359 305.316 109.348 305.298 109.337 305.28L105.051 307.854ZM105.051 307.854L100.732 310.374C100.737 310.383 100.742 310.391 100.747 310.4L105.051 307.854ZM119.32 328.895L115.397 331.996C115.408 332.01 115.42 332.025 115.431 332.039L119.32 328.895ZM142.761 352.991L145.999 349.181C145.991 349.174 145.983 349.167 145.975 349.161L142.761 352.991ZM224.975 389.303L224.329 394.262C224.406 394.272 224.483 394.28 224.561 394.286L224.975 389.303ZM231.257 389.812L230.858 394.796L230.858 394.796L231.257 389.812ZM237.545 390.322L238.165 385.36C238.097 385.352 238.029 385.345 237.96 385.339L237.545 390.322ZM303.113 380.141L304.906 384.808L304.912 384.806L303.113 380.141ZM355.432 347.561L358.838 351.221L358.845 351.214L355.432 347.561ZM246.039 459.938C381.591 459.938 492.077 357.297 492.077 229.969H482.077C482.077 351.135 376.729 449.938 246.039 449.938V459.938ZM173.944 449.907C196.752 456.43 220.962 459.938 246.039 459.938V449.938C221.898 449.938 198.613 446.562 176.694 440.292L173.944 449.907ZM36.3548 491.947C113.24 480.177 158.449 459.902 177.697 449.498L172.942 440.701C154.697 450.563 110.584 470.467 34.8416 482.062L36.3548 491.947ZM30.794 484.545C28.8637 488.687 32.5873 492.524 36.3548 491.947L34.8416 482.062C38.214 481.546 41.6196 484.99 39.8581 488.769L30.794 484.545ZM59.3697 377.361C55.9691 415.248 43.3739 457.553 30.7941 484.545L39.8581 488.769C52.8927 460.801 65.8185 417.374 69.3296 378.255L59.3697 377.361ZM0.000488281 229.969C0.000488281 287.919 22.9345 340.829 60.6972 381.222L68.0021 374.393C31.843 335.715 10.0005 285.202 10.0005 229.969H0.000488281ZM246.039 0C110.486 0 0.000488281 102.641 0.000488281 229.969H10.0005C10.0005 108.803 115.348 10 246.039 10V0ZM492.077 229.969C492.077 102.641 381.591 0 246.039 0V10C376.729 10 482.077 108.803 482.077 229.969H492.077ZM401.731 229.799C401.731 244.976 399.749 259.432 395.817 272.851L405.414 275.663C409.636 261.253 411.731 245.844 411.731 229.799H401.731ZM398.062 191.934C400.083 204.046 401.731 216.629 401.731 229.799H411.731C411.731 215.819 409.981 202.61 407.926 190.288L398.062 191.934ZM385.613 159.072C390.901 169.637 395.188 180.845 398.152 192.357L407.836 189.864C404.684 177.621 400.138 165.751 394.555 154.596L385.613 159.072ZM369.519 133.808C375.732 141.649 381.001 150.189 385.646 159.138L394.522 154.531C389.654 145.154 384.052 136.047 377.356 127.597L369.519 133.808ZM367.949 131.862C368.472 132.522 369.031 133.227 369.598 133.906L377.277 127.5C376.802 126.931 376.319 126.323 375.782 125.646L367.949 131.862ZM364.468 127.792C365.644 128.967 366.719 130.314 367.949 131.862L375.781 125.646C374.611 124.17 373.186 122.367 371.535 120.718L364.468 127.792ZM362.769 125.926C363.404 126.56 363.742 126.909 364.003 127.257L372 121.253C371.242 120.243 370.391 119.404 369.837 118.851L362.769 125.926ZM360.606 123.524C361.364 124.534 362.215 125.372 362.769 125.926L369.837 118.851C369.201 118.216 368.864 117.868 368.603 117.52L360.606 123.524ZM355.975 118.969L361.071 124.059L368.138 116.984L363.042 111.894L355.975 118.969ZM315.226 90.0782C330.329 97.2937 344.135 107.141 355.975 118.969L363.042 111.894C350.421 99.2866 335.689 88.7718 319.537 81.0551L315.226 90.0782ZM314.95 89.9599C315.045 89.9958 315.075 90.0077 315.102 90.0191C315.122 90.0272 315.134 90.033 315.148 90.0396L319.616 81.0936C319.119 80.8453 318.711 80.6914 318.516 80.617L314.95 89.9599ZM312.489 88.4253C313.548 89.4825 314.726 89.8743 314.951 89.96L318.515 80.6169C318.429 80.5839 318.428 80.5831 318.439 80.5878C318.46 80.5964 318.546 80.6322 318.663 80.6937C318.944 80.8404 319.263 81.0572 319.557 81.3505L312.489 88.4253ZM306.921 86.43L314.055 89.4844L317.991 80.2914L310.856 77.237L306.921 86.43ZM304.747 85.5493C305.482 85.8498 306.248 86.1626 307.033 86.4766L310.744 77.1905C310.001 76.8935 309.272 76.5955 308.531 76.2928L304.747 85.5493ZM297.601 82.89C299.965 83.5984 302.174 84.4974 304.747 85.5493L308.531 76.2928C306.022 75.2673 303.374 74.1806 300.472 73.3109L297.601 82.89ZM282.801 78.5202C287.937 79.8882 292.829 81.1944 297.356 82.8097L300.717 73.3912C295.732 71.6129 290.432 70.204 285.375 68.8571L282.801 78.5202ZM256.881 74.6026C265.819 75.264 274.722 76.5848 282.923 78.5509L285.254 68.8264C276.468 66.72 267.026 65.3259 257.619 64.6298L256.881 74.6026ZM251.814 74.2768C253.636 74.2768 255.149 74.2954 256.27 74.5193L258.229 64.7131C255.953 64.2583 253.389 64.2768 251.814 64.2768V74.2768ZM246.718 74.2768H251.814V64.2768H246.718V74.2768ZM138.099 118.332C166.071 91.0468 204.577 74.2768 246.718 74.2768V64.2768C201.889 64.2768 160.898 82.1226 131.116 111.173L138.099 118.332ZM115.026 146.312C121.648 136.059 129.203 126.562 138.002 118.423L131.212 111.082C121.667 119.911 113.594 130.098 106.626 140.886L115.026 146.312ZM104.514 165.675C107.461 159.133 111.081 152.553 115.052 146.271L106.6 140.927C102.418 147.542 98.5641 154.536 95.3961 161.568L104.514 165.675ZM92.0049 209.053C93.9769 193.622 98.2471 179.185 104.491 165.726L95.4192 161.518C88.753 175.888 84.1903 191.315 82.0856 207.785L92.0049 209.053ZM90.9873 217.185L92.0065 209.04L82.0839 207.798L81.0647 215.943L90.9873 217.185ZM90.3466 229.799C90.3466 225.612 90.669 221.392 91.0113 216.948L81.0408 216.18C80.7036 220.559 80.3466 225.163 80.3466 229.799H90.3466ZM91.9993 251.861C91.0002 244.542 90.3466 237.312 90.3466 229.799H80.3466C80.3466 237.897 81.0519 245.6 82.0912 253.213L91.9993 251.861ZM93.6466 262.076C92.9615 258.654 92.3366 255.512 92.0247 252.084L82.0658 252.99C82.4333 257.028 83.1674 260.674 83.8412 264.039L93.6466 262.076ZM97.288 275.936C95.9208 271.155 94.6105 266.567 93.6327 262.009L83.8551 264.106C84.9156 269.05 86.323 273.964 87.6735 278.685L97.288 275.936ZM97.3316 276.098L97.3315 276.098L87.63 278.523L87.6302 278.524L97.3316 276.098ZM104.183 294.283C101.554 288.374 99.2402 282.105 97.2483 275.804L87.7134 278.818C89.7984 285.413 92.2406 292.041 95.047 298.348L104.183 294.283ZM105.989 298.263C105.221 296.794 104.718 295.811 104.358 294.733L94.8723 297.898C95.5246 299.853 96.41 301.525 97.1267 302.896L105.989 298.263ZM106.804 299.847C106.521 299.282 106.241 298.745 105.989 298.263L97.1267 302.896C97.3841 303.389 97.6243 303.849 97.8619 304.323L106.804 299.847ZM107.333 302.425V302.085H97.3331V302.425H107.333ZM109.337 305.28C108.287 303.531 107.556 302.281 107.076 300.842L97.5901 304.007C98.4687 306.64 99.7766 308.784 100.764 310.429L109.337 305.28ZM109.37 305.335L109.37 305.335L100.732 310.374L100.732 310.374L109.37 305.335ZM123.242 325.795C118.315 319.56 113.683 312.627 109.354 305.309L100.747 310.4C105.251 318.014 110.132 325.335 115.397 331.996L123.242 325.795ZM145.975 349.161C137.76 342.267 130.168 334.36 123.208 325.752L115.431 332.039C122.74 341.078 130.776 349.461 139.547 356.821L145.975 349.161ZM225.621 384.345C195.339 380.4 168.038 367.911 145.999 349.181L139.523 356.801C163.008 376.759 192.102 390.062 224.329 394.262L225.621 384.345ZM231.655 384.828C229.531 384.658 227.418 384.489 225.39 384.321L224.561 394.286C226.608 394.457 228.738 394.627 230.858 394.796L231.655 384.828ZM237.96 385.339C235.911 385.168 233.778 384.998 231.655 384.828L230.858 394.796C232.985 394.966 235.101 395.135 237.131 395.304L237.96 385.339ZM246.039 385.661C243.252 385.661 240.517 385.654 238.165 385.36L236.926 395.283C240.009 395.668 243.39 395.661 246.039 395.661V385.661ZM301.32 375.473C284.22 382.043 265.463 385.661 246.039 385.661V395.661C266.702 395.661 286.674 391.813 304.906 384.808L301.32 375.473ZM352.025 343.901C337.554 357.372 320.096 368.234 301.314 375.475L304.912 384.806C324.859 377.115 343.414 365.579 358.838 351.221L352.025 343.901ZM395.808 272.882C387.917 300.471 372.455 324.81 352.018 343.908L358.845 351.214C380.535 330.945 397.007 305.057 405.423 275.632L395.808 272.882Z" fill="black" mask="url(#path-6-outside-2_385_529)"/>
</svg>
