<svg width="217" height="58" viewBox="0 0 217 58" fill="none" xmlns="http://www.w3.org/2000/svg">
<path d="M79.1752 24.102C79.8085 23.038 80.6445 22.2147 81.6832 21.632C82.7472 21.024 84.0012 20.72 85.4452 20.72V25.204H84.3432C82.6458 25.204 81.3538 25.6347 80.4672 26.496C79.6058 27.3573 79.1752 28.852 79.1752 30.98V42H74.8432V21.062H79.1752V24.102ZM91.6311 18.288C90.8458 18.288 90.1871 18.022 89.6551 17.49C89.1231 16.958 88.8571 16.2993 88.8571 15.514C88.8571 14.7287 89.1231 14.07 89.6551 13.538C90.1871 13.006 90.8458 12.74 91.6311 12.74C92.3911 12.74 93.0371 13.006 93.5691 13.538C94.1011 14.07 94.3671 14.7287 94.3671 15.514C94.3671 16.2993 94.1011 16.958 93.5691 17.49C93.0371 18.022 92.3911 18.288 91.6311 18.288ZM93.7591 21.062V42H89.4271V21.062H93.7591ZM107.883 20.72C109.504 20.72 110.935 21.0493 112.177 21.708C113.443 22.3413 114.431 23.1393 115.141 24.102V21.062H119.511V42.342C119.511 44.2673 119.105 45.9773 118.295 47.472C117.484 48.992 116.306 50.1827 114.761 51.044C113.241 51.9053 111.417 52.336 109.289 52.336C106.451 52.336 104.095 51.6647 102.221 50.322C100.346 49.0047 99.282 47.206 99.0287 44.926H103.323C103.652 46.0153 104.349 46.8893 105.413 47.548C106.502 48.232 107.794 48.574 109.289 48.574C111.037 48.574 112.443 48.042 113.507 46.978C114.596 45.914 115.141 44.3687 115.141 42.342V38.846C114.406 39.834 113.405 40.67 112.139 41.354C110.897 42.0127 109.479 42.342 107.883 42.342C106.059 42.342 104.387 41.886 102.867 40.974C101.372 40.0367 100.181 38.7447 99.2947 37.098C98.4333 35.426 98.0027 33.5387 98.0027 31.436C98.0027 29.3333 98.4333 27.4713 99.2947 25.85C100.181 24.2287 101.372 22.9747 102.867 22.088C104.387 21.176 106.059 20.72 107.883 20.72ZM115.141 31.512C115.141 30.068 114.837 28.814 114.229 27.75C113.646 26.686 112.873 25.8753 111.911 25.318C110.948 24.7607 109.909 24.482 108.795 24.482C107.68 24.482 106.641 24.7607 105.679 25.318C104.716 25.85 103.931 26.648 103.323 27.712C102.74 28.7507 102.449 29.992 102.449 31.436C102.449 32.88 102.74 34.1467 103.323 35.236C103.931 36.3253 104.716 37.1613 105.679 37.744C106.667 38.3013 107.705 38.58 108.795 38.58C109.909 38.58 110.948 38.3013 111.911 37.744C112.873 37.1867 113.646 36.376 114.229 35.312C114.837 34.2227 115.141 32.956 115.141 31.512ZM127.405 18.288C126.619 18.288 125.961 18.022 125.429 17.49C124.897 16.958 124.631 16.2993 124.631 15.514C124.631 14.7287 124.897 14.07 125.429 13.538C125.961 13.006 126.619 12.74 127.405 12.74C128.165 12.74 128.811 13.006 129.343 13.538C129.875 14.07 130.141 14.7287 130.141 15.514C130.141 16.2993 129.875 16.958 129.343 17.49C128.811 18.022 128.165 18.288 127.405 18.288ZM129.533 21.062V42H125.201V21.062H129.533ZM145.784 20.72C147.431 20.72 148.9 21.062 150.192 21.746C151.509 22.43 152.535 23.4433 153.27 24.786C154.005 26.1287 154.372 27.75 154.372 29.65V42H150.078V30.296C150.078 28.4213 149.609 26.99 148.672 26.002C147.735 24.9887 146.455 24.482 144.834 24.482C143.213 24.482 141.921 24.9887 140.958 26.002C140.021 26.99 139.552 28.4213 139.552 30.296V42H135.22V21.062H139.552V23.456C140.261 22.5947 141.161 21.9233 142.25 21.442C143.365 20.9607 144.543 20.72 145.784 20.72ZM167.498 42.342C165.851 42.342 164.369 42.0507 163.052 41.468C161.76 40.86 160.734 40.0493 159.974 39.036C159.214 37.9973 158.809 36.8447 158.758 35.578H163.242C163.318 36.4647 163.736 37.212 164.496 37.82C165.281 38.4027 166.257 38.694 167.422 38.694C168.638 38.694 169.575 38.466 170.234 38.01C170.918 37.5287 171.26 36.9207 171.26 36.186C171.26 35.4007 170.88 34.818 170.12 34.438C169.385 34.058 168.207 33.64 166.586 33.184C165.015 32.7533 163.736 32.3353 162.748 31.93C161.76 31.5247 160.899 30.904 160.164 30.068C159.455 29.232 159.1 28.13 159.1 26.762C159.1 25.6473 159.429 24.634 160.088 23.722C160.747 22.7847 161.684 22.05 162.9 21.518C164.141 20.986 165.56 20.72 167.156 20.72C169.537 20.72 171.45 21.328 172.894 22.544C174.363 23.7347 175.149 25.3687 175.25 27.446H170.918C170.842 26.5087 170.462 25.7613 169.778 25.204C169.094 24.6467 168.169 24.368 167.004 24.368C165.864 24.368 164.99 24.5833 164.382 25.014C163.774 25.4447 163.47 26.0147 163.47 26.724C163.47 27.2813 163.673 27.75 164.078 28.13C164.483 28.51 164.977 28.814 165.56 29.042C166.143 29.2447 167.004 29.5107 168.144 29.84C169.664 30.2453 170.905 30.6633 171.868 31.094C172.856 31.4993 173.705 32.1073 174.414 32.918C175.123 33.7287 175.491 34.8053 175.516 36.148C175.516 37.3387 175.187 38.4027 174.528 39.34C173.869 40.2773 172.932 41.012 171.716 41.544C170.525 42.076 169.119 42.342 167.498 42.342Z" fill="#213547"/>
<path d="M53.2515 29.4582C53.6132 29.5204 54.1056 29.6915 54.3065 29.7693H54.7587C54.9094 29.7693 55.7384 30.3915 55.8891 30.7804C56.0398 31.1692 56.492 30.7804 56.8688 30.7804C57.2456 30.7804 56.3413 32.1026 56.0398 32.4137C55.7384 32.7248 56.2659 33.347 56.3413 33.5025C56.4166 33.6581 56.1152 33.8914 56.0398 34.5136C55.9645 35.1359 55.7384 35.9914 55.5876 36.5358C55.4671 36.9714 54.8843 37.3395 54.608 37.4692C54.5075 37.521 54.2463 37.5314 54.0051 37.158C53.7036 36.6914 53.5529 35.9136 53.4776 35.6025C53.4022 35.2914 54.0804 33.6581 52.724 33.5025C51.3675 33.347 52.1211 34.6692 50.3878 33.347C48.6545 32.0248 50.6139 29.4582 50.7646 29.2248C50.9153 28.9915 51.2921 29.2248 51.9704 28.9915C52.513 28.8048 53.0505 28.9137 53.2515 28.9915C53.1008 29.1211 52.8898 29.3959 53.2515 29.4582Z" fill="#213547"/>
<path d="M43.5228 32.7549C43.5976 32.541 43.2424 31.8341 43.0554 31.5073C43.2112 31.2994 43.5976 30.937 43.8967 31.1509C44.2706 31.4182 45.3923 30.7944 45.7662 30.8836C46.1401 30.9727 46.9814 31.0618 47.0749 31.3291C47.1684 31.5964 47.1684 32.2202 47.3553 32.4876C47.5049 32.7014 47.3553 33.2896 47.2619 33.5569C47.2307 33.646 47.1123 33.8421 46.888 33.9134C46.6075 34.0025 47.2619 34.0025 47.8227 34.1807C48.3836 34.3589 48.0097 35.25 48.1966 35.6956C48.3836 36.1412 49.4118 36.9432 49.5988 37.1214C49.7857 37.2996 49.5988 37.567 49.4118 37.4778C49.2249 37.3887 47.1684 35.7847 46.2336 35.6065C45.4858 35.4639 44.1148 34.0619 43.5228 33.3787C43.4916 33.2599 43.448 32.9688 43.5228 32.7549Z" fill="#213547"/>
<path d="M59.9436 32.447C60.2289 32.447 60.4587 31.9716 60.538 31.7338C60.6367 31.4961 60.8946 31.4961 61.0134 31.6149C61.1323 31.7338 61.0134 33.0414 60.6568 33.6357C60.3002 34.2301 59.9436 34.1112 59.7059 34.1112C59.4682 34.1112 59.7059 33.6357 59.9436 33.398C60.1813 33.1603 59.587 32.447 59.9436 32.447Z" fill="#213547"/>
<path d="M57.5454 27.022C57.6642 26.9824 57.9019 26.8081 57.9019 26.4278C57.9019 25.9524 57.9019 25.5958 57.3077 25.5958H55.8815C55.525 25.5958 54.2176 25.2393 54.5742 24.8828C54.9307 24.5262 54.8118 24.2885 54.5742 24.2885C54.3365 24.2885 53.3857 23.6943 53.6234 24.2885C53.8611 24.8828 54.3365 25.5958 53.98 25.5958C53.6234 25.5958 52.4349 25.1204 52.6726 24.8828C52.9103 24.6451 52.5538 24.2885 51.9596 24.2885H50.4145C50.058 24.2885 50.7711 25.0017 51.4842 25.1205C52.1973 25.2394 52.435 25.7147 51.9596 25.8336C51.4842 25.9524 51.3653 27.022 51.2465 26.4278C51.1276 25.8336 51.603 26.0712 50.8899 25.5958C50.1768 25.1205 49.8203 24.645 49.4637 24.8828C49.1072 25.1205 48.0375 25.7148 48.1564 26.0713C48.2752 26.4278 47.681 28.2106 47.3245 28.4483C46.9679 28.686 46.0171 29.3991 45.5417 28.9237C45.0663 28.4483 44.5909 29.0425 44.5909 28.4483C44.5909 27.854 44.1155 27.6163 44.5909 27.022C45.0663 26.4278 45.304 25.7148 45.7794 26.0713C46.2548 26.4278 46.3736 25.5958 46.849 25.5958C47.3242 25.5958 46.9683 25.3585 46.6119 25.1209L46.6113 25.1205C46.3293 24.9324 46.6437 24.8838 46.8423 24.8828C46.8661 24.8467 46.9827 24.6987 47.3245 24.2885C47.9186 23.5755 47.5622 22.9812 48.1564 22.8624C48.7506 22.7435 49.2261 22.6247 49.4637 22.387C49.7014 22.1493 49.9392 21.7927 49.4637 21.7927C48.9883 21.7927 48.6318 22.0304 48.1564 21.7927C47.6809 21.555 48.1564 21.4362 48.1564 21.1985C48.1564 20.9608 48.7507 20.2477 49.4637 20.01C50.1768 19.7723 51.2465 19.0592 51.9596 19.4158C52.6726 19.7723 52.3161 19.8913 53.148 19.6535C53.98 19.4158 54.0988 19.4158 54.3365 18.8216C54.5266 18.3462 55.0193 18.1226 55.3363 17.9641C55.6673 17.6331 59.1313 18.8587 60.3978 20.01C61.7051 21.1985 63.1313 22.5058 64.3198 26.0713C64.7001 27.2123 64.3198 29.3991 64.0821 30.3499C64.1614 29.0822 64.1534 26.4517 63.4879 26.0713C62.8223 25.6909 62.339 25.7543 62.1805 25.8336C62.0617 25.9128 61.6814 25.9761 61.1109 25.5958C60.3978 25.1205 60.0413 25.358 61.1109 26.4278C61.9666 27.2836 62.339 27.0221 62.4182 26.7844C62.6559 26.9825 63.06 27.45 62.7748 27.7352C62.4182 28.0918 60.992 28.9237 60.3978 28.9237C59.8036 28.9237 59.3282 27.022 58.7339 27.022C58.2585 27.022 58.2189 27.2598 58.2585 27.3787L57.5454 27.022Z" fill="#213547"/>
<path fill-rule="evenodd" clip-rule="evenodd" d="M69.9932 29.3302C69.9932 38.3491 62.1597 45.6603 52.4966 45.6603C50.7103 45.6603 48.9865 45.4105 47.3632 44.9462C46.0379 45.6625 42.9285 47.0644 37.65 47.9204C37.4527 47.9524 37.2997 47.7503 37.3793 47.567C38.2466 45.5716 39.0732 42.6778 39.3081 40.0616C36.6251 37.1917 35 33.4381 35 29.3302C35 20.3113 42.8335 13 52.4966 13C62.1597 13 69.9932 20.3113 69.9932 29.3302ZM63.7172 32.5451C64.0131 31.535 64.1611 30.4511 64.1611 29.3179C64.1611 28.3326 64.0378 27.3965 63.8898 26.5096C63.6679 25.6474 63.3473 24.8098 62.9527 24.0215C62.6075 23.3564 62.2129 22.7159 61.7443 22.1247C61.7065 22.0794 61.6687 22.0317 61.6302 21.9832C61.5431 21.8735 61.4524 21.7591 61.3498 21.6566C61.3128 21.6074 61.2696 21.5643 61.2265 21.5211C61.1833 21.478 61.1402 21.4349 61.1032 21.3857L60.7333 21.0161C59.8455 20.1293 58.8097 19.3903 57.6754 18.8483C57.6565 18.8389 57.6413 18.8331 57.6283 18.8281C57.6072 18.8201 57.592 18.8143 57.5767 18.799L57.0588 18.5773C57.0034 18.5552 56.9491 18.533 56.8956 18.5111C56.7111 18.4357 56.5348 18.3636 56.3437 18.3063C55.9984 18.1832 55.6285 18.0846 55.2586 17.9861C54.6421 17.8383 53.9763 17.7398 53.3105 17.6905C53.1872 17.6659 53.0392 17.6659 52.9159 17.6659H52.546C49.3894 17.6659 46.5042 18.9222 44.408 20.9669C43.7422 21.5827 43.175 22.2971 42.6818 23.0608C42.3859 23.5288 42.1146 24.0215 41.8927 24.5142C41.4241 25.5242 41.1035 26.6082 40.9556 27.766L40.8816 28.3572C40.8569 28.6774 40.8323 28.9977 40.8323 29.3179C40.8323 29.8845 40.8816 30.4265 40.9556 30.9685C40.9802 31.2394 41.0295 31.4858 41.0789 31.7321C41.1528 32.077 41.2515 32.4219 41.3501 32.7668C41.4981 33.2348 41.6707 33.7029 41.868 34.1463C41.9047 34.2563 41.9551 34.3527 42.009 34.4558C42.0275 34.4912 42.0464 34.5273 42.0653 34.5651V34.5897C42.1146 34.7375 42.1886 34.8607 42.2625 34.9838L42.2626 34.9839C42.5831 35.5258 42.9284 36.0431 43.2983 36.5112C43.8162 37.1517 44.3834 37.7429 44.9999 38.2602C46.6521 39.6644 48.6989 40.6005 50.9677 40.8961C51.1157 40.9085 51.2699 40.9208 51.4241 40.9331C51.5782 40.9454 51.7323 40.9577 51.8801 40.97C52.0774 40.9947 52.2994 40.9947 52.4967 40.9947C53.9516 40.9947 55.3573 40.7237 56.6396 40.231C58.0453 39.689 59.3523 38.8761 60.4373 37.8661C61.9663 36.4373 63.1253 34.6143 63.7172 32.5451Z" fill="#213547"/>
</svg>
