<svg width="555" height="555" viewBox="0 0 555 555" fill="none" xmlns="http://www.w3.org/2000/svg">
<g filter="url(#filter0_d_385_529)">
<path d="M287.445 258.729C292.428 259.586 299.211 261.943 301.979 263.015H308.208C310.285 263.015 321.705 271.587 323.781 276.944C325.857 282.301 332.086 276.944 337.277 276.944C342.468 276.944 330.01 295.159 325.857 299.445C321.705 303.731 328.972 312.303 330.01 314.445C331.048 316.588 326.896 319.803 325.857 328.375C324.819 336.946 321.705 348.733 319.628 356.233C317.967 362.233 309.938 367.305 306.132 369.091C304.748 369.805 301.149 369.948 297.826 364.805C293.673 358.376 291.597 347.661 290.559 343.375C289.521 339.089 298.864 316.588 280.177 314.445C261.49 312.303 271.872 330.518 247.994 312.303C224.115 294.087 251.108 258.729 253.185 255.514C255.261 252.3 260.452 255.514 269.796 252.3C277.271 249.728 284.676 251.229 287.445 252.3C285.368 254.086 282.461 257.872 287.445 258.729Z" fill="white"/>
<path d="M153.417 304.145C154.448 301.198 149.554 291.459 146.979 286.958C149.125 284.093 154.448 279.101 158.568 282.047C163.719 285.73 179.172 277.137 184.323 278.364C189.475 279.592 201.064 280.82 202.352 284.502C203.64 288.185 203.64 296.779 206.215 300.462C208.276 303.408 206.215 311.51 204.928 315.193C204.498 316.421 202.867 319.122 199.777 320.104C195.913 321.331 204.928 321.331 212.654 323.787C220.381 326.242 215.23 338.518 217.805 344.657C220.381 350.795 234.546 361.843 237.122 364.299C239.697 366.754 237.122 370.437 234.546 369.209C231.971 367.982 203.64 345.884 190.762 343.429C180.46 341.465 161.573 322.15 153.417 312.738C152.988 311.101 152.387 307.091 153.417 304.145Z" fill="white"/>
<path d="M379.63 299.901C383.56 299.901 386.725 293.352 387.817 290.077C389.178 286.802 392.729 286.802 394.366 288.44C396.003 290.077 394.366 308.087 389.454 316.274C384.542 324.46 379.63 322.823 376.356 322.823C373.082 322.823 376.356 316.274 379.63 312.999C382.905 309.725 374.718 299.901 379.63 299.901Z" fill="white"/>
<path d="M346.596 225.168C348.233 224.623 351.508 222.221 351.508 216.982C351.508 210.433 351.508 205.521 343.321 205.521H323.673C318.762 205.521 300.751 200.609 305.663 195.697C310.575 190.785 308.937 187.511 305.663 187.511C302.389 187.511 289.291 179.324 292.565 187.511C295.84 195.697 302.389 205.521 297.477 205.521C292.565 205.521 276.192 198.971 279.467 195.697C282.742 192.423 277.831 187.511 269.644 187.511H248.359C243.447 187.511 253.271 197.335 263.095 198.972C272.919 200.61 276.193 207.159 269.644 208.796C263.095 210.433 261.457 225.168 259.82 216.982C258.183 208.796 264.732 212.069 254.908 205.521C245.084 198.972 240.173 192.422 235.261 195.697C230.349 198.972 215.613 207.16 217.25 212.071C218.888 216.982 210.701 241.542 205.789 244.817C200.877 248.091 187.779 257.915 181.23 251.366C174.681 244.817 168.131 253.003 168.131 244.817C168.131 236.63 161.582 233.355 168.131 225.168C174.681 216.982 177.955 207.16 184.504 212.071C191.053 216.982 192.689 205.521 199.239 205.521C205.785 205.521 200.883 202.252 195.974 198.978L195.965 198.972C192.079 196.381 196.412 195.712 199.147 195.697C199.475 195.2 201.081 193.161 205.789 187.511C213.975 177.688 209.065 169.501 217.25 167.864C225.436 166.227 231.987 164.589 235.261 161.315C238.535 158.04 241.81 153.128 235.261 153.128C228.711 153.128 223.8 156.403 217.25 153.128C210.7 149.854 217.25 148.216 217.25 144.942C217.25 141.667 225.438 131.843 235.261 128.569C245.084 125.294 259.821 115.47 269.644 120.382C279.467 125.294 274.555 126.933 286.016 123.658C297.477 120.382 299.115 120.383 302.389 112.197C305.008 105.647 311.796 102.567 316.162 100.384C320.723 95.8236 368.444 112.708 385.891 128.569C403.901 144.942 423.549 162.951 439.922 212.071C445.161 227.789 439.922 257.916 436.647 271.014C437.739 253.55 437.63 217.311 428.461 212.071C419.292 206.831 412.634 207.704 410.451 208.796C408.813 209.887 403.574 210.76 395.715 205.521C385.891 198.972 380.979 202.245 395.715 216.982C407.504 228.772 412.634 225.17 413.725 221.895C417 224.624 422.567 231.064 418.637 234.994C413.725 239.905 394.078 251.366 385.891 251.366C377.705 251.366 371.156 225.168 362.969 225.168C356.42 225.168 355.874 228.444 356.42 230.082L346.596 225.168Z" fill="white"/>
<path fill-rule="evenodd" clip-rule="evenodd" d="M518.077 256.969C518.077 381.216 410.16 481.938 277.039 481.938C252.43 481.938 228.683 478.496 206.319 472.1C187.573 482.233 142.912 502.322 66.5982 514.005C66.4007 514.035 66.2416 513.839 66.3261 513.657C79.1333 486.177 91.8938 443.311 95.3497 404.808C58.3888 365.272 36.0005 313.561 36.0005 256.969C36.0005 132.722 143.917 32 277.039 32C410.16 32 518.077 132.722 518.077 256.969ZM431.616 301.257C435.692 287.343 437.731 272.41 437.731 256.799C437.731 243.224 436.032 230.328 433.994 218.111C430.936 206.233 426.52 194.694 421.084 183.834C416.328 174.671 410.892 165.848 404.437 157.703C403.916 157.079 403.396 156.422 402.865 155.754C401.665 154.242 400.415 152.667 399.002 151.255C398.492 150.576 397.897 149.982 397.303 149.388C396.708 148.794 396.114 148.201 395.604 147.522L390.508 142.431C378.278 130.214 364.009 120.033 348.382 112.567C348.122 112.437 347.912 112.357 347.733 112.288C347.443 112.178 347.233 112.098 347.023 111.888L339.889 108.834C339.124 108.528 338.377 108.223 337.639 107.921C335.098 106.882 332.669 105.89 330.036 105.1C325.28 103.404 320.184 102.046 315.088 100.689C306.595 98.6524 297.422 97.2949 288.25 96.6162C286.551 96.2768 284.513 96.2768 282.814 96.2768H277.718C234.233 96.2768 194.484 113.585 165.607 141.752C156.435 150.237 148.621 160.079 141.826 170.599C137.75 177.047 134.012 183.834 130.955 190.622C124.5 204.536 120.084 219.468 118.045 235.419L117.026 243.564C116.686 247.976 116.347 252.387 116.347 256.799C116.347 264.605 117.026 272.071 118.045 279.537C118.385 283.27 119.064 286.664 119.744 290.058C120.763 294.809 122.122 299.56 123.481 304.311C125.519 310.759 127.897 317.207 130.615 323.316C131.121 324.832 131.815 326.16 132.558 327.58C132.812 328.067 133.073 328.565 133.333 329.085V329.425C134.012 331.461 135.032 333.157 136.051 334.854L136.051 334.854C140.467 342.321 145.224 349.447 150.32 355.895C157.454 364.719 165.268 372.864 173.761 379.991C196.523 399.335 224.72 412.231 255.975 416.303C258.012 416.473 260.132 416.642 262.253 416.812C264.379 416.982 266.505 417.152 268.545 417.322C271.263 417.661 274.321 417.661 277.039 417.661C297.083 417.661 316.447 413.928 334.113 407.141C353.478 399.674 371.483 388.475 386.432 374.561C407.495 354.877 423.462 329.764 431.616 301.257Z" fill="white"/>
</g>
<defs>
<filter id="filter0_d_385_529" x="0.000488281" y="0" width="554.077" height="554.008" filterUnits="userSpaceOnUse" color-interpolation-filters="sRGB">
<feFlood flood-opacity="0" result="BackgroundImageFix"/>
<feColorMatrix in="SourceAlpha" type="matrix" values="0 0 0 0 0 0 0 0 0 0 0 0 0 0 0 0 0 0 127 0" result="hardAlpha"/>
<feOffset dy="4"/>
<feGaussianBlur stdDeviation="18"/>
<feComposite in2="hardAlpha" operator="out"/>
<feColorMatrix type="matrix" values="0 0 0 0 0 0 0 0 0 0 0 0 0 0 0 0 0 0 0.25 0"/>
<feBlend mode="normal" in2="BackgroundImageFix" result="effect1_dropShadow_385_529"/>
<feBlend mode="normal" in="SourceGraphic" in2="effect1_dropShadow_385_529" result="shape"/>
</filter>
</defs>
</svg>
