<svg width="90" height="90" viewBox="0 0 90 90" fill="none" xmlns="http://www.w3.org/2000/svg">
<path d="M28.2713 84.375C62.235 84.375 80.8144 56.2331 80.8144 31.8713C80.8144 31.0838 80.8144 30.285 80.7806 29.4975C84.3978 26.879 87.5197 23.6371 90 19.9238C86.6211 21.4135 83.0405 22.3954 79.3744 22.8375C83.2361 20.5292 86.1284 16.8973 87.5137 12.6169C83.8856 14.7663 79.9145 16.2752 75.7744 17.0775C72.991 14.1133 69.3079 12.1495 65.2955 11.4905C61.2831 10.8315 57.1653 11.5139 53.58 13.4322C49.9947 15.3504 47.142 18.3973 45.4638 22.101C43.7855 25.8046 43.3754 29.9584 44.2969 33.9188C36.9548 33.5506 29.7721 31.6433 23.2146 28.3204C16.6571 24.9976 10.8713 20.3335 6.2325 14.6306C3.87754 18.698 3.15885 23.5091 4.22238 28.0871C5.28592 32.6651 8.05193 36.6667 11.9587 39.2794C9.03116 39.1799 6.16793 38.3938 3.6 36.9844V37.2375C3.60505 41.4983 5.0811 45.6267 7.77866 48.9249C10.4762 52.2231 14.2298 54.4887 18.405 55.3388C16.8202 55.7753 15.1832 55.993 13.5394 55.9856C12.3805 55.9891 11.224 55.8818 10.0856 55.665C11.2657 59.3328 13.5634 62.5397 16.657 64.8364C19.7506 67.1332 23.4851 68.4048 27.3375 68.4731C20.7931 73.6133 12.7091 76.401 4.3875 76.3875C2.92118 76.3937 1.45588 76.3092 0 76.1344C8.44602 81.519 18.2548 84.3781 28.2713 84.375V84.375Z" fill="white"/>
</svg>
