<svg width="143" height="58" viewBox="0 0 143 58" fill="none" xmlns="http://www.w3.org/2000/svg">
<path d="M44.182 24.102C44.8153 23.038 45.6513 22.2147 46.69 21.632C47.754 21.024 49.008 20.72 50.452 20.72V25.204H49.35C47.6527 25.204 46.3607 25.6347 45.474 26.496C44.6127 27.3573 44.182 28.852 44.182 30.98V42H39.85V21.062H44.182V24.102ZM56.638 18.288C55.8527 18.288 55.194 18.022 54.662 17.49C54.13 16.958 53.864 16.2993 53.864 15.514C53.864 14.7287 54.13 14.07 54.662 13.538C55.194 13.006 55.8527 12.74 56.638 12.74C57.398 12.74 58.044 13.006 58.576 13.538C59.108 14.07 59.374 14.7287 59.374 15.514C59.374 16.2993 59.108 16.958 58.576 17.49C58.044 18.022 57.398 18.288 56.638 18.288ZM58.766 21.062V42H54.434V21.062H58.766ZM72.8895 20.72C74.5109 20.72 75.9422 21.0493 77.1835 21.708C78.4502 22.3413 79.4382 23.1393 80.1475 24.102V21.062H84.5175V42.342C84.5175 44.2673 84.1122 45.9773 83.3015 47.472C82.4909 48.992 81.3129 50.1827 79.7675 51.044C78.2475 51.9053 76.4235 52.336 74.2955 52.336C71.4582 52.336 69.1022 51.6647 67.2275 50.322C65.3528 49.0047 64.2888 47.206 64.0355 44.926H68.3295C68.6588 46.0153 69.3555 46.8893 70.4195 47.548C71.5088 48.232 72.8008 48.574 74.2955 48.574C76.0435 48.574 77.4495 48.042 78.5135 46.978C79.6029 45.914 80.1475 44.3687 80.1475 42.342V38.846C79.4128 39.834 78.4122 40.67 77.1455 41.354C75.9042 42.0127 74.4855 42.342 72.8895 42.342C71.0655 42.342 69.3935 41.886 67.8735 40.974C66.3788 40.0367 65.1882 38.7447 64.3015 37.098C63.4402 35.426 63.0095 33.5387 63.0095 31.436C63.0095 29.3333 63.4402 27.4713 64.3015 25.85C65.1882 24.2287 66.3788 22.9747 67.8735 22.088C69.3935 21.176 71.0655 20.72 72.8895 20.72ZM80.1475 31.512C80.1475 30.068 79.8435 28.814 79.2355 27.75C78.6528 26.686 77.8802 25.8753 76.9175 25.318C75.9548 24.7607 74.9162 24.482 73.8015 24.482C72.6868 24.482 71.6482 24.7607 70.6855 25.318C69.7228 25.85 68.9375 26.648 68.3295 27.712C67.7468 28.7507 67.4555 29.992 67.4555 31.436C67.4555 32.88 67.7468 34.1467 68.3295 35.236C68.9375 36.3253 69.7228 37.1613 70.6855 37.744C71.6735 38.3013 72.7122 38.58 73.8015 38.58C74.9162 38.58 75.9548 38.3013 76.9175 37.744C77.8802 37.1867 78.6528 36.376 79.2355 35.312C79.8435 34.2227 80.1475 32.956 80.1475 31.512ZM92.4114 18.288C91.6261 18.288 90.9674 18.022 90.4354 17.49C89.9034 16.958 89.6374 16.2993 89.6374 15.514C89.6374 14.7287 89.9034 14.07 90.4354 13.538C90.9674 13.006 91.6261 12.74 92.4114 12.74C93.1714 12.74 93.8174 13.006 94.3494 13.538C94.8814 14.07 95.1474 14.7287 95.1474 15.514C95.1474 16.2993 94.8814 16.958 94.3494 17.49C93.8174 18.022 93.1714 18.288 92.4114 18.288ZM94.5394 21.062V42H90.2074V21.062H94.5394ZM110.791 20.72C112.438 20.72 113.907 21.062 115.199 21.746C116.516 22.43 117.542 23.4433 118.277 24.786C119.012 26.1287 119.379 27.75 119.379 29.65V42H115.085V30.296C115.085 28.4213 114.616 26.99 113.679 26.002C112.742 24.9887 111.462 24.482 109.841 24.482C108.22 24.482 106.928 24.9887 105.965 26.002C105.028 26.99 104.559 28.4213 104.559 30.296V42H100.227V21.062H104.559V23.456C105.268 22.5947 106.168 21.9233 107.257 21.442C108.372 20.9607 109.55 20.72 110.791 20.72ZM132.505 42.342C130.858 42.342 129.376 42.0507 128.059 41.468C126.767 40.86 125.741 40.0493 124.981 39.036C124.221 37.9973 123.815 36.8447 123.765 35.578H128.249C128.325 36.4647 128.743 37.212 129.503 37.82C130.288 38.4027 131.263 38.694 132.429 38.694C133.645 38.694 134.582 38.466 135.241 38.01C135.925 37.5287 136.267 36.9207 136.267 36.186C136.267 35.4007 135.887 34.818 135.127 34.438C134.392 34.058 133.214 33.64 131.593 33.184C130.022 32.7533 128.743 32.3353 127.755 31.93C126.767 31.5247 125.905 30.904 125.171 30.068C124.461 29.232 124.107 28.13 124.107 26.762C124.107 25.6473 124.436 24.634 125.095 23.722C125.753 22.7847 126.691 22.05 127.907 21.518C129.148 20.986 130.567 20.72 132.163 20.72C134.544 20.72 136.457 21.328 137.901 22.544C139.37 23.7347 140.155 25.3687 140.257 27.446H135.925C135.849 26.5087 135.469 25.7613 134.785 25.204C134.101 24.6467 133.176 24.368 132.011 24.368C130.871 24.368 129.997 24.5833 129.389 25.014C128.781 25.4447 128.477 26.0147 128.477 26.724C128.477 27.2813 128.679 27.75 129.085 28.13C129.49 28.51 129.984 28.814 130.567 29.042C131.149 29.2447 132.011 29.5107 133.151 29.84C134.671 30.2453 135.912 30.6633 136.875 31.094C137.863 31.4993 138.711 32.1073 139.421 32.918C140.13 33.7287 140.497 34.8053 140.523 36.148C140.523 37.3387 140.193 38.4027 139.535 39.34C138.876 40.2773 137.939 41.012 136.723 41.544C135.532 42.076 134.126 42.342 132.505 42.342Z" fill="white"/>
<path d="M18.2515 29.4582C18.6132 29.5204 19.1056 29.6915 19.3065 29.7693H19.7587C19.9094 29.7693 20.7384 30.3915 20.8891 30.7804C21.0398 31.1692 21.492 30.7804 21.8688 30.7804C22.2456 30.7804 21.3413 32.1026 21.0398 32.4137C20.7384 32.7248 21.2659 33.347 21.3413 33.5025C21.4166 33.6581 21.1152 33.8914 21.0398 34.5136C20.9645 35.1359 20.7384 35.9914 20.5876 36.5358C20.4671 36.9714 19.8843 37.3395 19.608 37.4692C19.5075 37.521 19.2463 37.5314 19.0051 37.158C18.7036 36.6914 18.5529 35.9136 18.4776 35.6025C18.4022 35.2914 19.0804 33.6581 17.724 33.5025C16.3675 33.347 17.1211 34.6692 15.3878 33.347C13.6545 32.0248 15.6139 29.4582 15.7646 29.2248C15.9153 28.9915 16.2921 29.2248 16.9704 28.9915C17.513 28.8048 18.0505 28.9137 18.2515 28.9915C18.1008 29.1211 17.8898 29.3959 18.2515 29.4582Z" fill="white"/>
<path d="M8.5228 32.7549C8.59758 32.541 8.24237 31.8341 8.05542 31.5073C8.21121 31.2994 8.59758 30.937 8.89671 31.1509C9.27061 31.4182 10.3923 30.7944 10.7662 30.8836C11.1401 30.9727 11.9814 31.0618 12.0749 31.3291C12.1684 31.5964 12.1684 32.2202 12.3553 32.4876C12.5049 32.7014 12.3553 33.2896 12.2619 33.5569C12.2307 33.646 12.1123 33.8421 11.888 33.9134C11.6075 34.0025 12.2619 34.0025 12.8227 34.1807C13.3836 34.3589 13.0097 35.25 13.1966 35.6956C13.3836 36.1412 14.4118 36.9432 14.5988 37.1214C14.7857 37.2996 14.5988 37.567 14.4118 37.4778C14.2249 37.3887 12.1684 35.7847 11.2336 35.6065C10.4858 35.4639 9.11482 34.0619 8.5228 33.3787C8.49164 33.2599 8.44802 32.9688 8.5228 32.7549Z" fill="white"/>
<path d="M24.9436 32.447C25.2289 32.447 25.4587 31.9716 25.538 31.7338C25.6367 31.4961 25.8946 31.4961 26.0134 31.6149C26.1323 31.7338 26.0134 33.0414 25.6568 33.6357C25.3002 34.2301 24.9436 34.1112 24.7059 34.1112C24.4682 34.1112 24.7059 33.6357 24.9436 33.398C25.1813 33.1603 24.587 32.447 24.9436 32.447Z" fill="white"/>
<path d="M22.5454 27.022C22.6642 26.9824 22.9019 26.8081 22.9019 26.4278C22.9019 25.9524 22.9019 25.5958 22.3077 25.5958H20.8815C20.525 25.5958 19.2176 25.2393 19.5742 24.8828C19.9307 24.5262 19.8118 24.2885 19.5742 24.2885C19.3365 24.2885 18.3857 23.6943 18.6234 24.2885C18.8611 24.8828 19.3365 25.5958 18.98 25.5958C18.6234 25.5958 17.4349 25.1204 17.6726 24.8828C17.9103 24.6451 17.5538 24.2885 16.9596 24.2885H15.4145C15.058 24.2885 15.7711 25.0017 16.4842 25.1205C17.1973 25.2394 17.435 25.7147 16.9596 25.8336C16.4842 25.9524 16.3653 27.022 16.2465 26.4278C16.1276 25.8336 16.603 26.0712 15.8899 25.5958C15.1768 25.1205 14.8203 24.645 14.4637 24.8828C14.1072 25.1205 13.0375 25.7148 13.1564 26.0713C13.2752 26.4278 12.681 28.2106 12.3245 28.4483C11.9679 28.686 11.0171 29.3991 10.5417 28.9237C10.0663 28.4483 9.59093 29.0425 9.59093 28.4483C9.59093 27.854 9.11553 27.6163 9.59093 27.022C10.0663 26.4278 10.304 25.7148 10.7794 26.0713C11.2548 26.4278 11.3736 25.5958 11.849 25.5958C12.3242 25.5958 11.9683 25.3585 11.6119 25.1209L11.6113 25.1205C11.3293 24.9324 11.6437 24.8838 11.8423 24.8828C11.8661 24.8467 11.9827 24.6987 12.3245 24.2885C12.9186 23.5755 12.5622 22.9812 13.1564 22.8624C13.7506 22.7435 14.2261 22.6247 14.4637 22.387C14.7014 22.1493 14.9392 21.7927 14.4637 21.7927C13.9883 21.7927 13.6318 22.0304 13.1564 21.7927C12.6809 21.555 13.1564 21.4362 13.1564 21.1985C13.1564 20.9608 13.7507 20.2477 14.4637 20.01C15.1768 19.7723 16.2465 19.0592 16.9596 19.4158C17.6726 19.7723 17.3161 19.8913 18.148 19.6535C18.98 19.4158 19.0988 19.4158 19.3365 18.8216C19.5266 18.3462 20.0193 18.1226 20.3363 17.9641C20.6673 17.6331 24.1313 18.8587 25.3978 20.01C26.7051 21.1985 28.1313 22.5058 29.3198 26.0713C29.7001 27.2123 29.3198 29.3991 29.0821 30.3499C29.1614 29.0822 29.1534 26.4517 28.4879 26.0713C27.8223 25.6909 27.339 25.7543 27.1805 25.8336C27.0617 25.9128 26.6814 25.9761 26.1109 25.5958C25.3978 25.1205 25.0413 25.358 26.1109 26.4278C26.9666 27.2836 27.339 27.0221 27.4182 26.7844C27.6559 26.9825 28.06 27.45 27.7748 27.7352C27.4182 28.0918 25.992 28.9237 25.3978 28.9237C24.8036 28.9237 24.3282 27.022 23.7339 27.022C23.2585 27.022 23.2189 27.2598 23.2585 27.3787L22.5454 27.022Z" fill="white"/>
<path fill-rule="evenodd" clip-rule="evenodd" d="M34.9932 29.3302C34.9932 38.3491 27.1597 45.6603 17.4966 45.6603C15.7103 45.6603 13.9865 45.4105 12.3632 44.9462C11.0379 45.6625 7.92845 47.0644 2.64997 47.9204C2.4527 47.9524 2.29967 47.7503 2.37933 47.567C3.24659 45.5716 4.07325 42.6778 4.30807 40.0616C1.62513 37.1917 0 33.4381 0 29.3302C0 20.3113 7.8335 13 17.4966 13C27.1597 13 34.9932 20.3113 34.9932 29.3302ZM28.7172 32.5451C29.0131 31.535 29.1611 30.4511 29.1611 29.3179C29.1611 28.3326 29.0378 27.3965 28.8898 26.5096C28.6679 25.6474 28.3473 24.8098 27.9527 24.0215C27.6075 23.3564 27.2129 22.7159 26.7443 22.1247C26.7065 22.0794 26.6687 22.0317 26.6302 21.9832C26.5431 21.8735 26.4524 21.7591 26.3498 21.6566C26.3128 21.6074 26.2696 21.5643 26.2265 21.5211C26.1833 21.478 26.1402 21.4349 26.1032 21.3857L25.7333 21.0161C24.8455 20.1293 23.8097 19.3903 22.6754 18.8483C22.6565 18.8389 22.6413 18.8331 22.6283 18.8281C22.6072 18.8201 22.592 18.8143 22.5767 18.799L22.0588 18.5773C22.0034 18.5552 21.9491 18.533 21.8956 18.5111C21.7111 18.4357 21.5348 18.3636 21.3437 18.3063C20.9984 18.1832 20.6285 18.0846 20.2586 17.9861C19.6421 17.8383 18.9763 17.7398 18.3105 17.6905C18.1872 17.6659 18.0392 17.6659 17.9159 17.6659H17.546C14.3894 17.6659 11.5042 18.9222 9.40802 20.9669C8.74219 21.5827 8.175 22.2971 7.68179 23.0608C7.38586 23.5288 7.11459 24.0215 6.89265 24.5142C6.4241 25.5242 6.10352 26.6082 5.95555 27.766L5.88157 28.3572C5.85691 28.6774 5.83225 28.9977 5.83225 29.3179C5.83225 29.8845 5.88157 30.4265 5.95555 30.9685C5.98022 31.2394 6.02954 31.4858 6.07886 31.7321C6.15284 32.077 6.25148 32.4219 6.35012 32.7668C6.49808 33.2348 6.67071 33.7029 6.86799 34.1463C6.90472 34.2563 6.95511 34.3527 7.009 34.4558C7.02748 34.4912 7.04638 34.5273 7.06528 34.5651V34.5897C7.1146 34.7375 7.18857 34.8607 7.26255 34.9838L7.26256 34.9839C7.58314 35.5258 7.92839 36.0431 8.2983 36.5112C8.81617 37.1517 9.38336 37.7429 9.99987 38.2602C11.6521 39.6644 13.6989 40.6005 15.9677 40.8961C16.1157 40.9085 16.2699 40.9208 16.4241 40.9331C16.5782 40.9454 16.7323 40.9577 16.8801 40.97C17.0774 40.9947 17.2994 40.9947 17.4967 40.9947C18.9516 40.9947 20.3573 40.7237 21.6396 40.231C23.0453 39.689 24.3523 38.8761 25.4373 37.8661C26.9663 36.4373 28.1253 34.6143 28.7172 32.5451Z" fill="white"/>
</svg>
